<?xml version="1.0" standalone="no"?>
<!DOCTYPE svg PUBLIC "-//W3C//DTD SVG 20010904//EN"
 "http://www.w3.org/TR/2001/REC-SVG-20010904/DTD/svg10.dtd">
<svg version="1.0" xmlns="http://www.w3.org/2000/svg"
 width="500.000000pt" height="500.000000pt" viewBox="0 0 500.000000 500.000000"
 preserveAspectRatio="xMidYMid meet">

<g transform="translate(0.000000,500.000000) scale(0.100000,-0.100000)"
fill="#000000" stroke="none">
<path d="M2382 4680 c-29 -12 -41 -45 -31 -90 14 -60 4 -73 -48 -65 -56 8 -90
-11 -98 -58 -13 -68 25 -117 90 -117 24 0 46 -4 49 -9 3 -4 -3 -33 -14 -64
-11 -31 -20 -64 -20 -73 0 -9 -12 -25 -26 -37 -23 -17 -25 -25 -20 -58 7 -43
15 -38 -119 -70 -79 -19 -171 -64 -191 -93 -42 -65 19 -305 142 -554 36 -73
63 -139 60 -147 -3 -8 -28 -24 -56 -36 -38 -16 -52 -28 -56 -48 -13 -59 -28
-82 -61 -96 -38 -16 -48 -34 -39 -70 5 -18 17 -27 49 -36 62 -16 68 -21 81
-59 8 -26 24 -41 66 -65 35 -20 57 -39 61 -55 11 -38 10 -358 -1 -523 -24
-344 -116 -616 -279 -820 -32 -39 -61 -85 -65 -102 -11 -47 -33 -73 -78 -96
-57 -29 -157 -132 -192 -198 -40 -75 -48 -179 -17 -221 29 -40 26 -50 -22 -85
-52 -38 -62 -87 -25 -122 75 -71 556 -109 1238 -100 522 7 684 27 720 90 20
36 5 74 -47 112 -23 16 -42 34 -42 38 -1 4 9 22 22 38 27 37 28 101 4 174 -21
63 -103 172 -159 214 -24 17 -63 46 -88 64 -33 24 -47 43 -57 76 -7 24 -32 66
-56 95 -128 150 -237 395 -281 631 -31 171 -54 665 -33 738 5 20 20 33 50 46
49 21 72 45 81 84 7 30 11 32 69 42 24 4 43 15 54 31 15 24 15 27 -4 52 -11
15 -31 29 -44 32 -19 4 -28 18 -42 62 -18 54 -21 57 -78 82 -32 14 -59 28 -59
32 0 3 29 65 64 137 100 206 156 383 156 496 0 48 -4 57 -33 85 -36 33 -119
66 -235 92 -61 13 -72 19 -67 32 18 43 16 53 -14 79 -17 15 -31 35 -31 45 0 9
-9 40 -20 68 -11 28 -20 55 -20 60 0 6 21 10 48 10 26 0 52 4 58 8 34 22 46
112 20 148 -12 15 -27 19 -73 19 l-58 0 0 70 c0 64 -2 70 -25 82 -29 15 -124
16 -158 3z m115 -77 c-3 -10 -5 -4 -5 12 0 17 2 24 5 18 2 -7 2 -21 0 -30z
m50 -5 c-3 -8 -6 -5 -6 6 -1 11 2 17 5 13 3 -3 4 -12 1 -19z m-240 -174 c-3
-3 -12 -4 -19 -1 -8 3 -5 6 6 6 11 1 17 -2 13 -5z m223 -28 c0 -3 -4 -8 -10
-11 -5 -3 -10 -1 -10 4 0 6 5 11 10 11 6 0 10 -2 10 -4z m-230 -276 c0 -5 -2
-10 -4 -10 -3 0 -8 5 -11 10 -3 6 -1 10 4 10 6 0 11 -4 11 -10z m107 -156 c-3
-3 -12 -4 -19 -1 -8 3 -5 6 6 6 11 1 17 -2 13 -5z m-362 -54 c18 -8 17 -9 -7
-9 -16 -1 -28 4 -28 9 0 12 8 12 35 0z m235 -46 c0 -14 -4 -23 -10 -19 -5 3
-10 15 -10 26 0 10 5 19 10 19 6 0 10 -12 10 -26z m450 -14 c0 -19 -11 -26
-23 -14 -8 8 3 34 14 34 5 0 9 -9 9 -20z m-690 -32 c8 -24 25 -68 38 -98 22
-50 39 -109 61 -215 5 -22 16 -60 25 -84 21 -57 20 -65 -4 -20 -45 85 -121
297 -134 374 -4 22 -10 50 -13 63 -9 40 13 23 27 -20z m620 32 c0 -5 -4 -10
-10 -10 -5 0 -10 5 -10 10 0 6 5 10 10 10 6 0 10 -4 10 -10z m-605 -850 l20
-9 -20 0 c-11 0 -27 4 -35 9 -13 9 -13 10 0 9 8 0 24 -4 35 -9z m115 -96 c0
-33 -33 -30 -38 4 -3 17 2 22 17 22 16 0 21 -6 21 -26z m96 -130 c-3 -9 -6
-24 -6 -35 0 -10 -4 -19 -10 -19 -5 0 -10 16 -10 35 0 25 4 35 16 35 11 0 14
-5 10 -16z m271 -36 c-3 -8 -6 -5 -6 6 -1 11 2 17 5 13 3 -3 4 -12 1 -19z
m-160 -40 c-3 -8 -6 -5 -6 6 -1 11 2 17 5 13 3 -3 4 -12 1 -19z m0 -125 c-2
-21 -4 -4 -4 37 0 41 2 58 4 38 2 -21 2 -55 0 -75z m-122 -480 c-3 -24 -15
-63 -26 -86 l-19 -42 5 55 c3 30 10 72 16 93 14 52 33 37 24 -20z m224 -687
c19 -20 31 -41 28 -49 -7 -19 -65 -29 -117 -21 -37 6 -41 9 -38 33 3 25 57 71
83 71 6 0 26 -15 44 -34z m-506 -83 c-7 -2 -19 -2 -25 0 -7 3 -2 5 12 5 14 0
19 -2 13 -5z m2 -23 c3 -5 -3 -10 -14 -10 -12 0 -21 5 -21 10 0 6 6 10 14 10
8 0 18 -4 21 -10z m496 -80 c-30 -5 -64 -4 -75 0 -14 6 4 9 54 8 l75 0 -54 -8z
m9 -104 c65 -16 90 -26 90 -35 0 -8 -161 -46 -180 -42 -8 1 -40 10 -70 19
l-55 16 63 15 c37 9 62 20 62 28 0 16 20 16 90 -1z m-320 -296 c0 -5 -9 -10
-20 -10 -11 0 -20 5 -20 10 0 6 9 10 20 10 11 0 20 -4 20 -10z m810 -20 c0 -5
-9 -10 -20 -10 -11 0 -20 5 -20 10 0 6 9 10 20 10 11 0 20 -4 20 -10z m-537
-177 c-13 -2 -33 -2 -45 0 -13 2 -3 4 22 4 25 0 35 -2 23 -4z m-698 -34 c16
-16 -60 -10 -81 6 -17 14 -15 14 26 9 25 -4 49 -10 55 -15z m398 -16 c-7 -2
-19 -2 -25 0 -7 3 -2 5 12 5 14 0 19 -2 13 -5z m860 -10 c-7 -2 -19 -2 -25 0
-7 3 -2 5 12 5 14 0 19 -2 13 -5z"/>
</g>
</svg>
