<?xml version="1.0" standalone="no"?>
<!DOCTYPE svg PUBLIC "-//W3C//DTD SVG 20010904//EN"
 "http://www.w3.org/TR/2001/REC-SVG-20010904/DTD/svg10.dtd">
<svg version="1.0" xmlns="http://www.w3.org/2000/svg"
 width="500.000000pt" height="500.000000pt" viewBox="0 0 500.000000 500.000000"
 preserveAspectRatio="xMidYMid meet">

<g transform="translate(0.000000,500.000000) scale(0.100000,-0.100000)"
fill="#000000" stroke="none">
<path d="M2291 3762 c-60 -114 -57 -111 -134 -119 -64 -6 -68 -8 -83 -38 -10
-22 -51 -57 -129 -111 -102 -70 -115 -83 -120 -114 -14 -82 -49 -202 -87 -297
l-41 -102 21 -53 c35 -90 42 -129 42 -253 0 -112 2 -125 31 -194 38 -91 46
-164 29 -280 -11 -77 -10 -96 5 -162 10 -41 17 -101 16 -135 l-1 -61 86 -64
c88 -65 120 -105 109 -139 -4 -11 -35 -57 -71 -102 -35 -45 -64 -90 -64 -100
0 -34 -19 -56 -89 -103 -121 -80 -204 -207 -205 -315 -1 -44 4 -62 22 -85 l23
-30 -23 -18 c-62 -49 -68 -57 -68 -89 0 -18 4 -38 8 -45 41 -64 455 -100 1037
-90 464 8 709 32 784 78 26 16 31 25 31 58 0 32 -6 44 -32 65 -18 15 -39 31
-46 37 -9 8 -7 16 10 40 33 44 30 125 -6 202 -35 73 -124 170 -192 208 -49 28
-74 60 -74 97 0 9 -29 53 -65 97 -82 102 -83 116 -9 186 31 30 62 66 70 81 25
48 18 158 -16 261 -62 182 -130 288 -343 529 -124 140 -184 222 -236 324 -25
50 -31 73 -31 128 0 36 3 66 6 66 3 0 20 -12 38 -27 55 -46 85 -53 234 -53
l138 0 54 -35 c78 -51 145 -68 247 -63 70 2 87 6 99 23 23 31 13 47 -51 83
-83 46 -90 56 -35 48 25 -4 55 -9 67 -12 18 -5 23 -1 29 22 10 40 -11 154 -33
175 -37 36 -134 87 -181 94 -62 9 -196 79 -318 166 -134 96 -145 100 -246 109
-49 4 -93 11 -99 17 -5 5 -19 43 -30 84 -12 41 -25 78 -29 82 -4 5 -27 -27
-49 -71z m453 -573 c-14 -24 -74 -2 -74 27 0 9 10 8 40 -3 22 -9 37 -20 34
-24z m-416 -99 c-14 -22 -24 -19 -15 5 4 8 11 15 17 15 6 0 6 -7 -2 -20z
m-567 -173 c-10 -9 -11 -8 -5 6 3 10 9 15 12 12 3 -3 0 -11 -7 -18z m340 -366
c27 -57 47 -106 45 -108 -9 -10 -178 374 -191 433 -4 16 17 -27 45 -96 28 -69
73 -172 101 -229z m-270 43 c11 -25 22 -62 25 -82 3 -26 -2 -18 -14 26 -11 34
-27 71 -37 82 -11 13 -14 20 -6 20 7 0 21 -21 32 -46z m75 -260 c7 -33 13 -95
12 -139 l-1 -80 -7 88 c-6 78 -10 92 -34 113 -18 17 -26 35 -26 58 0 73 35 47
56 -40z m-39 -91 c-3 -10 -5 -2 -5 17 0 19 2 27 5 18 2 -10 2 -26 0 -35z m163
-73 c0 -5 -4 -10 -10 -10 -5 0 -10 5 -10 10 0 6 5 10 10 10 6 0 10 -4 10 -10z
m10 -79 c0 -38 -12 -53 -37 -44 -28 10 -11 83 18 83 15 0 19 -7 19 -39z m-80
-191 c13 -8 13 -11 0 -24 -18 -19 -46 -5 -37 18 7 18 16 20 37 6z m20 -101
c14 -24 5 -24 -27 1 -14 11 -34 20 -44 20 -22 0 -24 11 -7 28 13 13 61 -16 78
-49z m725 51 c-3 -5 -10 -10 -16 -10 -5 0 -9 5 -9 10 0 6 7 10 16 10 8 0 12
-4 9 -10z m-465 -52 c0 -18 -2 -20 -9 -8 -6 8 -7 18 -5 22 9 14 14 9 14 -14z
m482 -30 c-9 -9 -15 -9 -24 0 -9 9 -7 12 12 12 19 0 21 -3 12 -12z m-625 -130
c-3 -7 -5 -2 -5 12 0 14 2 19 5 13 2 -7 2 -19 0 -25z m353 -88 c0 -11 11 -30
25 -42 45 -39 26 -58 -63 -58 -51 0 -62 17 -35 57 11 15 23 36 26 46 9 24 47
22 47 -3z m23 -211 c-9 -9 -26 -9 -65 -2 l-53 10 65 2 c48 1 61 -2 53 -10z
m49 -119 c29 0 30 -19 1 -26 -15 -3 -54 -13 -86 -21 -53 -13 -63 -12 -105 3
-69 25 -70 31 -8 38 31 4 62 13 69 20 21 22 39 23 76 4 19 -10 43 -18 53 -18z
m-424 -268 c3 -9 -2 -13 -14 -10 -9 1 -19 9 -22 16 -3 9 2 13 14 10 9 -1 19
-9 22 -16z m767 -2 c4 -6 -6 -10 -22 -9 -25 0 -26 1 -8 9 11 5 21 9 22 9 1 1
5 -3 8 -9z m-1075 -30 c0 -12 -27 -12 -55 0 -16 7 -13 9 18 9 20 1 37 -3 37
-9z m638 -157 c-21 -2 -55 -2 -75 0 -21 2 -4 4 37 4 41 0 58 -2 38 -4z m-719
-24 c44 -16 38 -28 -10 -19 -46 9 -77 30 -42 30 11 0 34 -5 52 -11z m361 -19
c0 -5 -4 -10 -9 -10 -6 0 -13 5 -16 10 -3 6 1 10 9 10 9 0 16 -4 16 -10z"/>
</g>
</svg>
