<?xml version="1.0" encoding="UTF-8"?>
<svg version="1.1" xmlns="http://www.w3.org/2000/svg" width="500" height="500">
<path d="M0 0 C6.40674089 5.41564285 12.01809662 11.24102107 13.1328125 19.86328125 C13.46587535 27.92569928 11.95513605 35.42540011 6.83203125 41.82421875 C4.89920882 43.82029718 3.02563373 45.6806918 0.80859375 47.35546875 C0.14859375 47.35546875 -0.51140625 47.35546875 -1.19140625 47.35546875 C-1.19140625 48.34546875 -1.19140625 49.33546875 -1.19140625 50.35546875 C0.12923828 50.79246094 0.12923828 50.79246094 1.4765625 51.23828125 C13.01246018 55.30977455 13.01246018 55.30977455 16.80859375 61.35546875 C14.57694262 65.74975088 12.05946862 67.81871868 7.99609375 70.54296875 C0.77962479 75.77621924 -3.69638579 81.48281227 -5.19140625 90.35546875 C-5.45522555 94.2487138 -5.46824555 98.14168766 -5.50390625 102.04296875 C-5.53291016 103.08130859 -5.56191406 104.11964844 -5.59179688 105.18945312 C-5.68506655 116.63292456 -1.92186902 125.00837374 5.80859375 133.35546875 C8.11788322 135.48682936 10.46190575 137.53727567 12.890625 139.53125 C14.80859375 141.35546875 14.80859375 141.35546875 15.80859375 143.46875 C17.13741271 145.97585765 18.36338731 146.27888811 20.99609375 147.23046875 C25.639723 149.12398747 29.45679021 151.58334258 32.80859375 155.35546875 C32.80859375 156.01546875 32.80859375 156.67546875 32.80859375 157.35546875 C33.46859375 157.35546875 34.12859375 157.35546875 34.80859375 157.35546875 C38.28589843 163.18836693 39.95232219 167.03526803 39.93359375 173.91796875 C39.93617188 174.86800781 39.93875 175.81804687 39.94140625 176.796875 C39.80859375 179.35546875 39.80859375 179.35546875 38.80859375 182.35546875 C39.65421875 183.03609375 40.49984375 183.71671875 41.37109375 184.41796875 C43.80859375 187.35546875 43.80859375 187.35546875 43.93359375 190.98046875 C42.80859375 194.35546875 42.80859375 194.35546875 40.66015625 195.96875 C13.12822125 209.35756771 -35.01255196 203.6871516 -64.94140625 201.54296875 C-65.95130615 201.47303711 -66.96120605 201.40310547 -68.00170898 201.33105469 C-74.10659147 200.80812132 -80.65996329 200.15312854 -86.19140625 197.35546875 C-87.98156035 194.68827527 -88.19990659 193.563727 -88.06640625 190.29296875 C-87.06483669 186.93055666 -86.22846696 186.01204732 -83.19140625 184.35546875 C-82.53140625 184.35546875 -81.87140625 184.35546875 -81.19140625 184.35546875 C-81.68640625 183.69546875 -82.18140625 183.03546875 -82.69140625 182.35546875 C-84.96891209 177.80045707 -84.97551303 173.88941835 -83.5 169.12109375 C-79.92468866 160.44460598 -74.45619993 153.02553804 -66.19140625 148.35546875 C-63.49905234 147.39982095 -61.01859155 146.86032327 -58.19140625 146.35546875 C-58.21203125 145.50984375 -58.23265625 144.66421875 -58.25390625 143.79296875 C-56.82977536 139.18548646 -54.35134837 137.89539899 -50.54296875 135.1328125 C-43.70361929 129.96353675 -39.47208899 123.08037506 -37.6015625 114.71875 C-37.04711208 110.17225653 -36.96744636 105.68201884 -36.94140625 101.10546875 C-36.92078125 100.21472656 -36.90015625 99.32398438 -36.87890625 98.40625 C-36.82859633 89.74036699 -38.19628626 81.51259251 -44.3046875 75.01953125 C-47.34650703 72.33668421 -50.64121542 70.07279207 -54.01953125 67.8359375 C-56.19140625 66.35546875 -56.19140625 66.35546875 -58.19140625 64.35546875 C-58.44140625 61.54296875 -58.44140625 61.54296875 -57.19140625 58.35546875 C-51.81152631 54.63013602 -45.32932632 52.51510729 -39.19140625 50.35546875 C-39.87203125 49.86046875 -40.55265625 49.36546875 -41.25390625 48.85546875 C-48.69667987 42.52119333 -53.47539194 36.50552712 -54.46875 26.5859375 C-54.7670157 17.86464839 -52.17167948 10.83294714 -46.19140625 4.35546875 C-33.11688755 -7.41377354 -14.79449304 -11.10246269 0 0 Z " fill="#070704" transform="translate(272.19140625,230.64453125)"/>
<path d="M0 0 C6.40674089 5.41564285 12.01809662 11.24102107 13.1328125 19.86328125 C13.46587535 27.92569928 11.95513605 35.42540011 6.83203125 41.82421875 C4.89920882 43.82029718 3.02563373 45.6806918 0.80859375 47.35546875 C0.14859375 47.35546875 -0.51140625 47.35546875 -1.19140625 47.35546875 C-1.19140625 48.34546875 -1.19140625 49.33546875 -1.19140625 50.35546875 C-0.27617187 50.68160156 0.6390625 51.00773437 1.58203125 51.34375 C2.77054687 51.78074219 3.9590625 52.21773438 5.18359375 52.66796875 C6.36695313 53.09722656 7.5503125 53.52648437 8.76953125 53.96875 C11.80859375 55.35546875 11.80859375 55.35546875 13.80859375 58.35546875 C7.38973905 56.61922117 1.67074539 54.5036613 -4.19140625 51.35546875 C-3.8924141 47.767563 -3.42154024 46.57380099 -0.75390625 44.04296875 C1.80859375 42.35546875 1.80859375 42.35546875 3.80859375 42.35546875 C4.09476562 41.76121094 4.3809375 41.16695313 4.67578125 40.5546875 C5.80859375 38.35546875 5.80859375 38.35546875 7.93359375 35.16796875 C11.31462658 28.61878293 10.10105882 20.50461497 9.80859375 13.35546875 C8.32359375 12.86046875 8.32359375 12.86046875 6.80859375 12.35546875 C6.31359375 13.84046875 6.31359375 13.84046875 5.80859375 15.35546875 C-1.94140625 15.48046875 -1.94140625 15.48046875 -4.19140625 14.35546875 C-3.69640625 16.33546875 -3.69640625 16.33546875 -3.19140625 18.35546875 C-5.17140625 19.01546875 -7.15140625 19.67546875 -9.19140625 20.35546875 C-7.21140625 20.85046875 -7.21140625 20.85046875 -5.19140625 21.35546875 C-4.99982828 26.24070686 -5.31736579 28.67036761 -7.19140625 33.35546875 C-11.15140625 33.35546875 -15.11140625 33.35546875 -19.19140625 33.35546875 C-19.19140625 29.72546875 -19.19140625 26.09546875 -19.19140625 22.35546875 C-18.20140625 21.86046875 -18.20140625 21.86046875 -17.19140625 21.35546875 C-20.96219311 21.18773944 -24.73304284 21.0214675 -28.50390625 20.85546875 C-30.11168945 20.78392578 -30.11168945 20.78392578 -31.75195312 20.7109375 C-32.77998047 20.66582031 -33.80800781 20.62070313 -34.8671875 20.57421875 C-35.81505127 20.53232422 -36.76291504 20.49042969 -37.73950195 20.44726562 C-39.55578849 20.37926565 -41.37384723 20.35546875 -43.19140625 20.35546875 C-42.70414063 20.73703125 -42.216875 21.11859375 -41.71484375 21.51171875 C-39.64742109 24.01383028 -39.79052128 25.64573203 -39.81640625 28.85546875 C-39.80480469 30.2940625 -39.80480469 30.2940625 -39.79296875 31.76171875 C-40.24222422 34.6862838 -40.90212459 35.56280375 -43.19140625 37.35546875 C-41.54140625 37.68546875 -39.89140625 38.01546875 -38.19140625 38.35546875 C-37.69640625 42.31546875 -37.69640625 42.31546875 -37.19140625 46.35546875 C-36.20140625 46.35546875 -35.21140625 46.35546875 -34.19140625 46.35546875 C-34.19140625 49.98546875 -34.19140625 53.61546875 -34.19140625 57.35546875 C-37.65640625 58.34546875 -37.65640625 58.34546875 -41.19140625 59.35546875 C-41.19140625 58.69546875 -41.19140625 58.03546875 -41.19140625 57.35546875 C-40.20140625 56.69546875 -39.21140625 56.03546875 -38.19140625 55.35546875 C-39.11953125 55.85046875 -39.11953125 55.85046875 -40.06640625 56.35546875 C-44.45352137 57.75934559 -48.62292052 57.51514398 -53.19140625 57.35546875 C-53.19140625 58.34546875 -53.19140625 59.33546875 -53.19140625 60.35546875 C-52.20140625 60.85046875 -52.20140625 60.85046875 -51.19140625 61.35546875 C-51.19140625 62.01546875 -51.19140625 62.67546875 -51.19140625 63.35546875 C-48.88140625 63.68546875 -46.57140625 64.01546875 -44.19140625 64.35546875 C-44.19140625 65.67546875 -44.19140625 66.99546875 -44.19140625 68.35546875 C-41.21614859 72.85115046 -41.21614859 72.85115046 -36.515625 75.03125 C-35.74863281 75.13824219 -34.98164063 75.24523437 -34.19140625 75.35546875 C-32.58490213 84.11952246 -31.87136073 92.45420283 -32.19140625 101.35546875 C-32.21074219 102.02610352 -32.23007813 102.69673828 -32.25 103.38769531 C-32.31654304 105.52392264 -32.40640204 107.65794592 -32.50390625 109.79296875 C-32.59091797 111.74009766 -32.59091797 111.74009766 -32.6796875 113.7265625 C-33.220387 117.56098875 -34.35099393 119.97910738 -36.19140625 123.35546875 C-36.48144531 124.34546875 -36.77148438 125.33546875 -37.0703125 126.35546875 C-38.43178506 129.99871239 -40.56324564 132.51213925 -43.12890625 135.35546875 C-45.76805239 138.30578059 -48.00209265 140.90544329 -49.55859375 144.60546875 C-51.19140625 147.35546875 -51.19140625 147.35546875 -54.484375 148.60546875 C-55.76957031 148.85296875 -57.05476563 149.10046875 -58.37890625 149.35546875 C-68.48408747 151.62988864 -73.55546634 155.61647909 -79.0625 164.3046875 C-81.74019455 169.16901151 -81.56192499 173.94417174 -81.19140625 179.35546875 C-80.34080612 182.33527076 -80.34080612 182.33527076 -79.19140625 184.35546875 C-80.67640625 185.15984375 -80.67640625 185.15984375 -82.19140625 185.98046875 C-83.67640625 187.15609375 -83.67640625 187.15609375 -85.19140625 188.35546875 C-85.6931004 191.52473439 -85.6931004 191.52473439 -85.19140625 194.35546875 C-84.20140625 194.68546875 -83.21140625 195.01546875 -82.19140625 195.35546875 C-82.19140625 194.03546875 -82.19140625 192.71546875 -82.19140625 191.35546875 C-80.54140625 191.68546875 -78.89140625 192.01546875 -77.19140625 192.35546875 C-77.19140625 193.34546875 -77.19140625 194.33546875 -77.19140625 195.35546875 C-76.53140625 195.35546875 -75.87140625 195.35546875 -75.19140625 195.35546875 C-75.19140625 196.01546875 -75.19140625 196.67546875 -75.19140625 197.35546875 C-67.44810793 201.22711791 -55.32907307 199.50187309 -46.87109375 199.48828125 C-45.5188902 199.48895794 -44.16668678 199.48993097 -42.81448364 199.49118042 C-39.99577666 199.49264328 -37.17710166 199.4905508 -34.35839844 199.48583984 C-30.80181575 199.48017569 -27.24530837 199.483509 -23.68872833 199.48927116 C9.52854424 200.99339972 9.52854424 200.99339972 40.80859375 192.35546875 C41.13912361 188.72529196 41.13912361 188.72529196 39.49609375 185.60546875 C37.71712696 184.15243796 37.71712696 184.15243796 34.80859375 183.35546875 C35.68359375 179.48046875 35.68359375 179.48046875 36.80859375 178.35546875 C37.67847757 170.49799361 36.23340056 164.40384347 32.80859375 157.35546875 C33.46859375 157.35546875 34.12859375 157.35546875 34.80859375 157.35546875 C38.28589843 163.18836693 39.95232219 167.03526803 39.93359375 173.91796875 C39.93617188 174.86800781 39.93875 175.81804687 39.94140625 176.796875 C39.80859375 179.35546875 39.80859375 179.35546875 38.80859375 182.35546875 C39.65421875 183.03609375 40.49984375 183.71671875 41.37109375 184.41796875 C43.80859375 187.35546875 43.80859375 187.35546875 43.93359375 190.98046875 C42.80859375 194.35546875 42.80859375 194.35546875 40.66015625 195.96875 C13.12822125 209.35756771 -35.01255196 203.6871516 -64.94140625 201.54296875 C-65.95130615 201.47303711 -66.96120605 201.40310547 -68.00170898 201.33105469 C-74.10659147 200.80812132 -80.65996329 200.15312854 -86.19140625 197.35546875 C-87.98156035 194.68827527 -88.19990659 193.563727 -88.06640625 190.29296875 C-87.06483669 186.93055666 -86.22846696 186.01204732 -83.19140625 184.35546875 C-82.53140625 184.35546875 -81.87140625 184.35546875 -81.19140625 184.35546875 C-81.68640625 183.69546875 -82.18140625 183.03546875 -82.69140625 182.35546875 C-84.96891209 177.80045707 -84.97551303 173.88941835 -83.5 169.12109375 C-79.92468866 160.44460598 -74.45619993 153.02553804 -66.19140625 148.35546875 C-63.49905234 147.39982095 -61.01859155 146.86032327 -58.19140625 146.35546875 C-58.21203125 145.50984375 -58.23265625 144.66421875 -58.25390625 143.79296875 C-56.82977536 139.18548646 -54.35134837 137.89539899 -50.54296875 135.1328125 C-43.70361929 129.96353675 -39.47208899 123.08037506 -37.6015625 114.71875 C-37.04711208 110.17225653 -36.96744636 105.68201884 -36.94140625 101.10546875 C-36.92078125 100.21472656 -36.90015625 99.32398438 -36.87890625 98.40625 C-36.82859633 89.74036699 -38.19628626 81.51259251 -44.3046875 75.01953125 C-47.34650703 72.33668421 -50.64121542 70.07279207 -54.01953125 67.8359375 C-56.19140625 66.35546875 -56.19140625 66.35546875 -58.19140625 64.35546875 C-58.44140625 61.54296875 -58.44140625 61.54296875 -57.19140625 58.35546875 C-51.81152631 54.63013602 -45.32932632 52.51510729 -39.19140625 50.35546875 C-39.87203125 49.86046875 -40.55265625 49.36546875 -41.25390625 48.85546875 C-48.69667987 42.52119333 -53.47539194 36.50552712 -54.46875 26.5859375 C-54.7670157 17.86464839 -52.17167948 10.83294714 -46.19140625 4.35546875 C-33.11688755 -7.41377354 -14.79449304 -11.10246269 0 0 Z " fill="#13120E" transform="translate(272.19140625,230.64453125)"/>
<path d="M0 0 C3.875 1.75 3.875 1.75 5 4 C6.20788354 20.1975202 6.20788354 20.1975202 1 27 C-1.07193118 29.3445537 -3.16223925 31.340314 -5.6171875 33.2734375 C-8.75166108 35.66616579 -8.75166108 35.66616579 -10.85546875 38.91796875 C-11.21209896 41.08400653 -11.21209896 41.08400653 -9.78515625 42.921875 C-9.21667969 43.52515625 -8.64820313 44.1284375 -8.0625 44.75 C-7.49660156 45.36359375 -6.93070312 45.9771875 -6.34765625 46.609375 C-5.90292969 47.06828125 -5.45820313 47.5271875 -5 48 C-5.763125 48.28875 -6.52625 48.5775 -7.3125 48.875 C-10.15029308 49.96269013 -10.15029308 49.96269013 -13 52 C-13.54527344 51.67128906 -14.09054687 51.34257812 -14.65234375 51.00390625 C-17.48868806 49.7910269 -19.4875028 49.83513658 -22.5625 49.9375 C-28.44178047 50.04597381 -34.15958121 49.64382569 -40 49 C-39.79375 49.61875 -39.5875 50.2375 -39.375 50.875 C-39.25125 51.57625 -39.1275 52.2775 -39 53 C-39.66 53.66 -40.32 54.32 -41 55 C-42.485 54.505 -42.485 54.505 -44 54 C-44 53.01 -44 52.02 -44 51 C-44.66 51 -45.32 51 -46 51 C-46 51.99 -46 52.98 -46 54 C-47.45880109 53.85892253 -48.91703551 53.71197585 -50.375 53.5625 C-51.18710938 53.48128906 -51.99921875 53.40007812 -52.8359375 53.31640625 C-55 53 -55 53 -57 52 C-57 51.34 -57 50.68 -57 50 C-57.99 49.67 -58.98 49.34 -60 49 C-59.67 48.01 -59.34 47.02 -59 46 C-57.948125 45.855625 -56.89625 45.71125 -55.8125 45.5625 C-50.87221998 44.83360623 -46.60158585 43.97210822 -42 42 C-42.33 42.99 -42.66 43.98 -43 45 C-45.0625 45.6875 -45.0625 45.6875 -47 46 C-47 46.66 -47 47.32 -47 48 C-46.1028125 47.505 -46.1028125 47.505 -45.1875 47 C-43 46 -43 46 -40 46 C-40 42.37 -40 38.74 -40 35 C-41.485 35.495 -41.485 35.495 -43 36 C-44 35 -44 35 -44.09765625 33.15234375 C-44.04882812 30.07617188 -44.04882812 30.07617188 -44 27 C-45.65 26.67 -47.3 26.34 -49 26 C-48.67257813 25.46890625 -48.34515625 24.9378125 -48.0078125 24.390625 C-46.7357011 21.37305843 -46.8040637 19.01306977 -46.875 15.75 C-46.90207031 14.13351562 -46.90207031 14.13351562 -46.9296875 12.484375 C-46.95289063 11.66453125 -46.97609375 10.8446875 -47 10 C-47.99 9.67 -48.98 9.34 -50 9 C-48.68 8.34 -47.36 7.68 -46 7 C-46 7.66 -46 8.32 -46 9 C-38.08 9 -30.16 9 -22 9 C-22.33 9.66 -22.66 10.32 -23 11 C-23.66 11 -24.32 11 -25 11 C-25 14.63 -25 18.26 -25 22 C-23.02 22 -21.04 22 -19 22 C-18.505 20.515 -18.505 20.515 -18 19 C-18 19.99 -18 20.98 -18 22 C-16.35 21.67 -14.7 21.34 -13 21 C-12.34 17.37 -11.68 13.74 -11 10 C-12.32 10.33 -13.64 10.66 -15 11 C-15.495 9.515 -15.495 9.515 -16 8 C-14.02 7.67 -12.04 7.34 -10 7 C-10 5.68 -10 4.36 -10 3 C-6.7 3.33 -3.4 3.66 0 4 C0 2.68 0 1.36 0 0 Z " fill="#040403" transform="translate(278,242)"/>
<path d="M0 0 C6.40674089 5.41564285 12.01809662 11.24102107 13.1328125 19.86328125 C13.46587535 27.92569928 11.95513605 35.42540011 6.83203125 41.82421875 C4.89920882 43.82029718 3.02563373 45.6806918 0.80859375 47.35546875 C0.14859375 47.35546875 -0.51140625 47.35546875 -1.19140625 47.35546875 C-1.19140625 48.34546875 -1.19140625 49.33546875 -1.19140625 50.35546875 C-0.27617187 50.68160156 0.6390625 51.00773437 1.58203125 51.34375 C2.77054687 51.78074219 3.9590625 52.21773438 5.18359375 52.66796875 C6.36695313 53.09722656 7.5503125 53.52648437 8.76953125 53.96875 C11.80859375 55.35546875 11.80859375 55.35546875 13.80859375 58.35546875 C7.38973905 56.61922117 1.67074539 54.5036613 -4.19140625 51.35546875 C-3.8924141 47.767563 -3.42154024 46.57380099 -0.75390625 44.04296875 C1.80859375 42.35546875 1.80859375 42.35546875 3.80859375 42.35546875 C4.09476562 41.76378906 4.3809375 41.17210937 4.67578125 40.5625 C5.80859375 38.35546875 5.80859375 38.35546875 7.93359375 35.04296875 C10.9955684 28.84942911 10.74650635 22.06515121 9.80859375 15.35546875 C7.135209 8.46711243 1.86012963 4.27635971 -4.19140625 0.35546875 C-5.45984375 -0.54171875 -5.45984375 -0.54171875 -6.75390625 -1.45703125 C-13.35970029 -4.6752386 -22.75547196 -4.73061546 -29.83984375 -2.99609375 C-38.44830606 0.10295268 -44.83976061 6.05777015 -50.19140625 13.35546875 C-52.56227396 20.37629636 -52.28476818 28.95007891 -49.25390625 35.66796875 C-46.25630098 40.96142778 -41.9429042 44.64950739 -37.19140625 48.35546875 C-37.39453125 50.21875 -37.39453125 50.21875 -38.19140625 52.35546875 C-40.30078125 53.5859375 -40.30078125 53.5859375 -42.94140625 54.54296875 C-43.8025 54.86652344 -44.66359375 55.19007813 -45.55078125 55.5234375 C-48.0867731 56.32250002 -50.57563616 56.88971113 -53.19140625 57.35546875 C-53.19140625 58.34546875 -53.19140625 59.33546875 -53.19140625 60.35546875 C-52.20140625 60.85046875 -52.20140625 60.85046875 -51.19140625 61.35546875 C-51.19140625 62.01546875 -51.19140625 62.67546875 -51.19140625 63.35546875 C-48.88140625 63.68546875 -46.57140625 64.01546875 -44.19140625 64.35546875 C-44.19140625 65.67546875 -44.19140625 66.99546875 -44.19140625 68.35546875 C-41.21614859 72.85115046 -41.21614859 72.85115046 -36.515625 75.03125 C-35.74863281 75.13824219 -34.98164063 75.24523437 -34.19140625 75.35546875 C-32.58490213 84.11952246 -31.87136073 92.45420283 -32.19140625 101.35546875 C-32.21074219 102.02610352 -32.23007813 102.69673828 -32.25 103.38769531 C-32.31654304 105.52392264 -32.40640204 107.65794592 -32.50390625 109.79296875 C-32.59091797 111.74009766 -32.59091797 111.74009766 -32.6796875 113.7265625 C-33.220387 117.56098875 -34.35099393 119.97910738 -36.19140625 123.35546875 C-36.48144531 124.34546875 -36.77148438 125.33546875 -37.0703125 126.35546875 C-38.43178506 129.99871239 -40.56324564 132.51213925 -43.12890625 135.35546875 C-45.76805239 138.30578059 -48.00209265 140.90544329 -49.55859375 144.60546875 C-51.19140625 147.35546875 -51.19140625 147.35546875 -54.484375 148.60546875 C-55.76957031 148.85296875 -57.05476563 149.10046875 -58.37890625 149.35546875 C-68.48408747 151.62988864 -73.55546634 155.61647909 -79.0625 164.3046875 C-81.74019455 169.16901151 -81.56192499 173.94417174 -81.19140625 179.35546875 C-80.34080612 182.33527076 -80.34080612 182.33527076 -79.19140625 184.35546875 C-80.67640625 185.15984375 -80.67640625 185.15984375 -82.19140625 185.98046875 C-83.67640625 187.15609375 -83.67640625 187.15609375 -85.19140625 188.35546875 C-85.6931004 191.52473439 -85.6931004 191.52473439 -85.19140625 194.35546875 C-84.20140625 194.68546875 -83.21140625 195.01546875 -82.19140625 195.35546875 C-82.19140625 194.03546875 -82.19140625 192.71546875 -82.19140625 191.35546875 C-80.54140625 191.68546875 -78.89140625 192.01546875 -77.19140625 192.35546875 C-77.19140625 193.34546875 -77.19140625 194.33546875 -77.19140625 195.35546875 C-76.53140625 195.35546875 -75.87140625 195.35546875 -75.19140625 195.35546875 C-75.19140625 196.01546875 -75.19140625 196.67546875 -75.19140625 197.35546875 C-67.44810793 201.22711791 -55.32907307 199.50187309 -46.87109375 199.48828125 C-45.5188902 199.48895794 -44.16668678 199.48993097 -42.81448364 199.49118042 C-39.99577666 199.49264328 -37.17710166 199.4905508 -34.35839844 199.48583984 C-30.80181575 199.48017569 -27.24530837 199.483509 -23.68872833 199.48927116 C9.52854424 200.99339972 9.52854424 200.99339972 40.80859375 192.35546875 C41.13912361 188.72529196 41.13912361 188.72529196 39.49609375 185.60546875 C37.71712696 184.15243796 37.71712696 184.15243796 34.80859375 183.35546875 C35.68359375 179.48046875 35.68359375 179.48046875 36.80859375 178.35546875 C37.67847757 170.49799361 36.23340056 164.40384347 32.80859375 157.35546875 C33.46859375 157.35546875 34.12859375 157.35546875 34.80859375 157.35546875 C38.28589843 163.18836693 39.95232219 167.03526803 39.93359375 173.91796875 C39.93617188 174.86800781 39.93875 175.81804687 39.94140625 176.796875 C39.80859375 179.35546875 39.80859375 179.35546875 38.80859375 182.35546875 C39.65421875 183.03609375 40.49984375 183.71671875 41.37109375 184.41796875 C43.80859375 187.35546875 43.80859375 187.35546875 43.93359375 190.98046875 C42.80859375 194.35546875 42.80859375 194.35546875 40.66015625 195.96875 C13.12822125 209.35756771 -35.01255196 203.6871516 -64.94140625 201.54296875 C-65.95130615 201.47303711 -66.96120605 201.40310547 -68.00170898 201.33105469 C-74.10659147 200.80812132 -80.65996329 200.15312854 -86.19140625 197.35546875 C-87.98156035 194.68827527 -88.19990659 193.563727 -88.06640625 190.29296875 C-87.06483669 186.93055666 -86.22846696 186.01204732 -83.19140625 184.35546875 C-82.53140625 184.35546875 -81.87140625 184.35546875 -81.19140625 184.35546875 C-81.68640625 183.69546875 -82.18140625 183.03546875 -82.69140625 182.35546875 C-84.96891209 177.80045707 -84.97551303 173.88941835 -83.5 169.12109375 C-79.92468866 160.44460598 -74.45619993 153.02553804 -66.19140625 148.35546875 C-63.49905234 147.39982095 -61.01859155 146.86032327 -58.19140625 146.35546875 C-58.21203125 145.50984375 -58.23265625 144.66421875 -58.25390625 143.79296875 C-56.82977536 139.18548646 -54.35134837 137.89539899 -50.54296875 135.1328125 C-43.70361929 129.96353675 -39.47208899 123.08037506 -37.6015625 114.71875 C-37.04711208 110.17225653 -36.96744636 105.68201884 -36.94140625 101.10546875 C-36.92078125 100.21472656 -36.90015625 99.32398438 -36.87890625 98.40625 C-36.82859633 89.74036699 -38.19628626 81.51259251 -44.3046875 75.01953125 C-47.34650703 72.33668421 -50.64121542 70.07279207 -54.01953125 67.8359375 C-56.19140625 66.35546875 -56.19140625 66.35546875 -58.19140625 64.35546875 C-58.44140625 61.54296875 -58.44140625 61.54296875 -57.19140625 58.35546875 C-51.81152631 54.63013602 -45.32932632 52.51510729 -39.19140625 50.35546875 C-39.87203125 49.86046875 -40.55265625 49.36546875 -41.25390625 48.85546875 C-48.69667987 42.52119333 -53.47539194 36.50552712 -54.46875 26.5859375 C-54.7670157 17.86464839 -52.17167948 10.83294714 -46.19140625 4.35546875 C-33.11688755 -7.41377354 -14.79449304 -11.10246269 0 0 Z " fill="#8D8C87" transform="translate(272.19140625,230.64453125)"/>
<path d="M0 0 C2.12232846 -0.03326534 4.24570186 0.01750248 6.3671875 0.0859375 C6.3671875 0.7459375 6.3671875 1.4059375 6.3671875 2.0859375 C7.6253125 2.2303125 8.8834375 2.3746875 10.1796875 2.5234375 C12.79385873 2.82342436 14.84158642 3.24407047 17.3671875 4.0859375 C19.07251967 7.40684752 19.3671875 9.27086534 19.3671875 13.0859375 C17.0571875 12.4259375 14.7471875 11.7659375 12.3671875 11.0859375 C11.8721875 9.1059375 11.8721875 9.1059375 11.3671875 7.0859375 C9.7171875 7.0859375 8.0671875 7.0859375 6.3671875 7.0859375 C6.3671875 7.7459375 6.3671875 8.4059375 6.3671875 9.0859375 C5.3771875 9.5809375 5.3771875 9.5809375 4.3671875 10.0859375 C4.0371875 10.7459375 3.7071875 11.4059375 3.3671875 12.0859375 C2.3771875 11.7559375 1.3871875 11.4259375 0.3671875 11.0859375 C-0.6228125 11.0859375 -1.6128125 11.0859375 -2.6328125 11.0859375 C-2.6328125 10.4259375 -2.6328125 9.7659375 -2.6328125 9.0859375 C-3.2928125 9.0859375 -3.9528125 9.0859375 -4.6328125 9.0859375 C-3.9728125 10.7359375 -3.3128125 12.3859375 -2.6328125 14.0859375 C2.3171875 13.7559375 7.2671875 13.4259375 12.3671875 13.0859375 C12.3671875 14.0759375 12.3671875 15.0659375 12.3671875 16.0859375 C13.0271875 16.4159375 13.6871875 16.7459375 14.3671875 17.0859375 C13.7278125 17.1890625 13.0884375 17.2921875 12.4296875 17.3984375 C11.7490625 17.6253125 11.0684375 17.8521875 10.3671875 18.0859375 C10.0371875 19.0759375 9.7071875 20.0659375 9.3671875 21.0859375 C9.3671875 20.4259375 9.3671875 19.7659375 9.3671875 19.0859375 C8.80773437 19.2303125 8.24828125 19.3746875 7.671875 19.5234375 C1.2532596 21.0094192 -4.75847178 21.22972691 -11.3359375 21.05859375 C-14.55001127 21.08525076 -17.48348904 21.47038791 -20.6328125 22.0859375 C-22.0652349 19.22109269 -21.93022421 17.27358093 -21.6328125 14.0859375 C-18.98372519 8.94133316 -15.45089056 3.45547076 -10.125 0.8671875 C-6.72258752 0.14190835 -3.46355661 0.11305378 0 0 Z " fill="#080703" transform="translate(248.6328125,226.9140625)"/>
<path d="M0 0 C0.86151566 2.40574185 1.12825384 3.62715276 0.28515625 6.078125 C-3.79147156 13.31967471 -9.08687022 19.31459395 -16 24 C-16.66 24 -17.32 24 -18 24 C-17.979375 24.9075 -17.95875 25.815 -17.9375 26.75 C-19 30 -19 30 -20.7890625 31.078125 C-22.3624863 31.71614565 -23.94102289 32.34164779 -25.5234375 32.95703125 C-33.24121884 36.20726409 -38.02108198 41.77186173 -42 49 C-43.74448199 54.23344596 -43.67853621 59.87957435 -42 65.125 C-41.67 65.74375 -41.34 66.3625 -41 67 C-41.99 67.53625 -42.98 68.0725 -44 68.625 C-45.485 69.800625 -45.485 69.800625 -47 71 C-47.50169415 74.16926564 -47.50169415 74.16926564 -47 77 C-46.01 77.33 -45.02 77.66 -44 78 C-44 76.68 -44 75.36 -44 74 C-42.35 74.33 -40.7 74.66 -39 75 C-39 75.99 -39 76.98 -39 78 C-38.34 78 -37.68 78 -37 78 C-37 78.66 -37 79.32 -37 80 C-29.25670168 83.87164916 -17.13766682 82.14640434 -8.6796875 82.1328125 C-7.32748395 82.13348919 -5.97528053 82.13446222 -4.62307739 82.13571167 C-1.80437041 82.13717453 1.01430459 82.13508205 3.83300781 82.13037109 C7.3895905 82.12470694 10.94609788 82.12804025 14.50267792 82.13380241 C47.71995049 83.63793097 47.71995049 83.63793097 79 75 C79.33052986 71.36982321 79.33052986 71.36982321 77.6875 68.25 C75.90853321 66.79696921 75.90853321 66.79696921 73 66 C73.875 62.125 73.875 62.125 75 61 C75.86988382 53.14252486 74.42480681 47.04837472 71 40 C71.66 40 72.32 40 73 40 C76.47730468 45.83289818 78.14372844 49.67979928 78.125 56.5625 C78.12757813 57.51253906 78.13015625 58.46257812 78.1328125 59.44140625 C78 62 78 62 77 65 C77.845625 65.680625 78.69125 66.36125 79.5625 67.0625 C82 70 82 70 82.125 73.625 C81 77 81 77 78.8515625 78.61328125 C51.3196275 92.00209896 3.17885429 86.33168285 -26.75 84.1875 C-28.26484985 84.08260254 -28.26484985 84.08260254 -29.81030273 83.97558594 C-35.91518522 83.45265257 -42.46855704 82.79765979 -48 80 C-49.7901541 77.33280652 -50.00850034 76.20825825 -49.875 72.9375 C-48.87343044 69.57508791 -48.03706071 68.65657857 -45 67 C-44.34 67 -43.68 67 -43 67 C-43.495 66.34 -43.99 65.68 -44.5 65 C-46.77750584 60.44498832 -46.78410678 56.5339496 -45.30859375 51.765625 C-41.73328241 43.08913723 -36.26479368 35.67006929 -28 31 C-25.30764609 30.0443522 -22.8271853 29.50485452 -20 29 C-20.020625 28.154375 -20.04125 27.30875 -20.0625 26.4375 C-18.63836911 21.83001771 -16.15994212 20.53993024 -12.3515625 17.77734375 C-6.03979097 13.00681876 -2.81192244 7.29445763 0 0 Z " fill="#CBCBCB" transform="translate(234,348)"/>
<path d="M0 0 C0.28617187 0.57363281 0.57234375 1.14726562 0.8671875 1.73828125 C1.24101562 2.48464844 1.61484375 3.23101562 2 4 C2.33257812 4.67417969 2.66515625 5.34835937 3.0078125 6.04296875 C6.84155921 13.40215387 11.87972078 19.6194528 18.375 24.8125 C21 27 21 27 21.90234375 29.01953125 C23.31737873 31.57263707 24.47761525 31.89552359 27.1875 32.875 C34.50763502 35.95345165 38.56312815 39.38108701 41.9375 46.6875 C44.13022936 52.50583137 44.98082113 57.82900037 44 64 C42.5 67.1875 42.5 67.1875 41 69 C41.598125 69.103125 42.19625 69.20625 42.8125 69.3125 C45.38994819 70.12255514 46.43063575 70.80289005 48 73 C48.1875 75.6875 48.1875 75.6875 48 78 C46.02 78.99 46.02 78.99 44 80 C44 78.68 44 77.36 44 76 C44.99 76 45.98 76 47 76 C44 74.66666667 44 74.66666667 41 76 C39.10529184 76.0685495 37.2083166 76.08480372 35.3125 76.0625 C34.31863281 76.05347656 33.32476562 76.04445313 32.30078125 76.03515625 C31.54152344 76.02355469 30.78226562 76.01195312 30 76 C33 74 33 74 36.125 73 C39.12511062 72.3313327 39.12511062 72.3313327 40 70 C39.34 70 38.68 70 38 70 C38 69.34 38 68.68 38 68 C38.66 68 39.32 68 40 68 C40 67.34 40 66.68 40 66 C39.01 65.67 38.02 65.34 37 65 C37.99 64.67 38.98 64.34 40 64 C39.34 61.36 38.68 58.72 38 56 C37.34 56 36.68 56 36 56 C36.165 55.071875 36.33 54.14375 36.5 53.1875 C37.07748388 50.04378647 37.07748388 50.04378647 37 47 C36.01439389 45.65599167 35.01241685 44.32392972 34 43 C33.73832031 42.175 33.47664063 41.35 33.20703125 40.5 C32.21649376 37.83322546 32.21649376 37.83322546 29.72265625 36.7421875 C28.84480469 36.45601563 27.96695312 36.16984375 27.0625 35.875 C23.61453396 34.72737065 21.31729683 33.85703989 19 31 C17.8125 28.3125 17.8125 28.3125 17 26 C15.68 26 14.36 26 13 26 C13.66 26.66 14.32 27.32 15 28 C13.35 28 11.7 28 10 28 C9.67 27.01 9.34 26.02 9 25 C7.7625 24.566875 7.7625 24.566875 6.5 24.125 C5.675 23.75375 4.85 23.3825 4 23 C3.3125 20.625 3.3125 20.625 3 18 C2.62875 17.29875 2.2575 16.5975 1.875 15.875 C1 14 1 14 2 11 C1.34641919 8.99568551 0.67863055 6.9959722 0 5 C-0.125 2.125 -0.125 2.125 0 0 Z " fill="#1B1A15" transform="translate(266,345)"/>
<path d="M0 0 C6.40674089 5.41564285 12.01809662 11.24102107 13.1328125 19.86328125 C13.46587535 27.92569928 11.95513605 35.42540011 6.83203125 41.82421875 C4.89920882 43.82029718 3.02563373 45.6806918 0.80859375 47.35546875 C0.14859375 47.35546875 -0.51140625 47.35546875 -1.19140625 47.35546875 C-1.19140625 48.34546875 -1.19140625 49.33546875 -1.19140625 50.35546875 C0.18144531 50.84466797 0.18144531 50.84466797 1.58203125 51.34375 C2.77054687 51.78074219 3.9590625 52.21773438 5.18359375 52.66796875 C6.36695313 53.09722656 7.5503125 53.52648437 8.76953125 53.96875 C11.80859375 55.35546875 11.80859375 55.35546875 13.80859375 58.35546875 C7.38973905 56.61922117 1.67074539 54.5036613 -4.19140625 51.35546875 C-3.8924141 47.767563 -3.42154024 46.57380099 -0.75390625 44.04296875 C1.80859375 42.35546875 1.80859375 42.35546875 3.80859375 42.35546875 C4.09476562 41.76378906 4.3809375 41.17210937 4.67578125 40.5625 C5.80859375 38.35546875 5.80859375 38.35546875 7.93359375 35.04296875 C10.9955684 28.84942911 10.74650635 22.06515121 9.80859375 15.35546875 C7.135209 8.46711243 1.86012963 4.27635971 -4.19140625 0.35546875 C-5.45984375 -0.54171875 -5.45984375 -0.54171875 -6.75390625 -1.45703125 C-13.35970029 -4.6752386 -22.75547196 -4.73061546 -29.83984375 -2.99609375 C-38.44830606 0.10295268 -44.83976061 6.05777015 -50.19140625 13.35546875 C-52.56227396 20.37629636 -52.28476818 28.95007891 -49.25390625 35.66796875 C-46.25630098 40.96142778 -41.9429042 44.64950739 -37.19140625 48.35546875 C-37.40234375 50.22265625 -37.40234375 50.22265625 -38.19140625 52.35546875 C-40.23046875 53.55078125 -40.23046875 53.55078125 -42.81640625 54.48046875 C-44.1621875 54.97160156 -44.1621875 54.97160156 -45.53515625 55.47265625 C-48.73590826 56.53643559 -51.92770808 57.50406923 -55.19140625 58.35546875 C-52.53866865 55.08982427 -49.38776354 54.09076796 -45.50390625 52.66796875 C-44.32441406 52.23097656 -43.14492187 51.79398437 -41.9296875 51.34375 C-40.57423828 50.85455078 -40.57423828 50.85455078 -39.19140625 50.35546875 C-39.94164062 49.77152344 -40.691875 49.18757813 -41.46484375 48.5859375 C-48.91813211 42.48876321 -53.49522734 36.30745249 -54.46875 26.5859375 C-54.7670157 17.86464839 -52.17167948 10.83294714 -46.19140625 4.35546875 C-33.11688755 -7.41377354 -14.79449304 -11.10246269 0 0 Z " fill="#E2E1DC" transform="translate(272.19140625,230.64453125)"/>
<path d="M0 0 C1 2 1 2 0.44140625 4.1640625 C0.15136719 4.97617187 -0.13867188 5.78828125 -0.4375 6.625 C-0.72496094 7.44226563 -1.01242188 8.25953125 -1.30859375 9.1015625 C-1.53675781 9.72804688 -1.76492187 10.35453125 -2 11 C-1.34 11 -0.68 11 0 11 C0.33 11.99 0.66 12.98 1 14 C1.66 14.33 2.32 14.66 3 15 C3.40729228 17.32156597 3.74438677 19.6568787 4 22 C5.98 22.66 7.96 23.32 10 24 C10 23.34 10 22.68 10 22 C11.65 22.66 13.3 23.32 15 24 C15 24.66 15 25.32 15 26 C11.7 26 8.4 26 5 26 C5.33 26.99 5.66 27.98 6 29 C5.75 31.125 5.75 31.125 5 33 C3.515 33.495 3.515 33.495 2 34 C1.67 34.66 1.34 35.32 1 36 C0.34 36 -0.32 36 -1 36 C-1.33 36.66 -1.66 37.32 -2 38 C-2 37.01 -2 36.02 -2 35 C-3.65 34.67 -5.3 34.34 -7 34 C-7 35.32 -7 36.64 -7 38 C-6.01 38.33 -5.02 38.66 -4 39 C-7 40 -7 40 -9.1875 38.9375 C-11 37 -11 37 -11.625 34.0625 C-11 31 -11 31 -8 28.625 C-7.01 28.08875 -6.02 27.5525 -5 27 C-5.33 26.38125 -5.66 25.7625 -6 25.125 C-7.81521588 19.45245036 -8.06498804 14.48921084 -5.69140625 8.94140625 C-1.8412642 1.8412642 -1.8412642 1.8412642 0 0 Z " fill="#22211B" transform="translate(197,388)"/>
<path d="M0 0 C0 0.99 0 1.98 0 3 C0.3062434 4.33981486 0.63451555 5.67511887 1 7 C-0.32 6.67 -1.64 6.34 -3 6 C-3 6.99 -3 7.98 -3 9 C-2.01 9.33 -1.02 9.66 0 10 C0.03738281 10.79664063 0.07476562 11.59328125 0.11328125 12.4140625 C0.48506336 20.68187012 0.48506336 20.68187012 4 28 C6.55721737 29.42557356 6.55721737 29.42557356 9 30 C9.33 32.64 9.66 35.28 10 38 C10.99 38 11.98 38 13 38 C13 41.63 13 45.26 13 49 C10.69 49.66 8.38 50.32 6 51 C6 50.34 6 49.68 6 49 C6.99 48.34 7.98 47.68 9 47 C8.278125 47.350625 7.55625 47.70125 6.8125 48.0625 C3.6877295 49.10409017 2.11838004 48.89096572 -1 48 C2.33333333 46.33333333 5.66666667 44.66666667 9 43 C8.45393904 39.28999757 7.20420742 38.08510254 4.25 35.875 C-1.34059154 31.12903021 -4.49684607 26.06877357 -5.40625 18.71484375 C-5.57943179 12.42978777 -5.16124713 7.47138926 -2 2 C-1.34 1.34 -0.68 0.68 0 0 Z " fill="#3A3936" transform="translate(225,239)"/>
<path d="M0 0 C0 0.33 0 0.66 0 1 C-3.74926076 1.34199953 -7.49949574 1.67194171 -11.25 2 C-12.81621094 2.14308594 -12.81621094 2.14308594 -14.4140625 2.2890625 C-21.62837115 2.91252127 -28.76017868 3.11692847 -36 3 C-35.67 3.99 -35.34 4.98 -35 6 C-17.51 6.33 -0.02 6.66 18 7 C18 7.33 18 7.66 18 8 C10.07943737 8.04680788 2.15893469 8.0821108 -5.76173306 8.10362434 C-9.44154766 8.1139615 -13.1212661 8.1279308 -16.80102539 8.15087891 C-48.08687639 8.34106813 -48.08687639 8.34106813 -62 6 C-61.01 5.67 -60.02 5.34 -59 5 C-59 4.34 -59 3.68 -59 3 C-58.34 3 -57.68 3 -57 3 C-57 3.66 -57 4.32 -57 5 C-53.7 4.67 -50.4 4.34 -47 4 C-47 4.66 -47 5.32 -47 6 C-43.535 5.505 -43.535 5.505 -40 5 C-40.33 4.01 -40.66 3.02 -41 2 C-43.01508358 1.26676204 -43.01508358 1.26676204 -45 1 C-44.11957031 1.02320313 -43.23914063 1.04640625 -42.33203125 1.0703125 C-40.58986328 1.09738281 -40.58986328 1.09738281 -38.8125 1.125 C-37.66394531 1.14820313 -36.51539063 1.17140625 -35.33203125 1.1953125 C-5.77508091 -0.53721683 -5.77508091 -0.53721683 0 0 Z " fill="#242421" transform="translate(256,423)"/>
<path d="M0 0 C0.66 0.33 1.32 0.66 2 1 C1.24203125 1.8353125 1.24203125 1.8353125 0.46875 2.6875 C-4.14156251 7.93350677 -4.14156251 7.93350677 -5.4375 14.5625 C-5.293125 15.696875 -5.14875 16.83125 -5 18 C-4.195625 17.67 -3.39125 17.34 -2.5625 17 C3.94070646 15.17453854 9.7111174 15.4199456 16 18 C16 18.66 16 19.32 16 20 C9.33333333 20 2.66666667 20 -4 20 C-3.50886719 20.37769531 -3.01773438 20.75539062 -2.51171875 21.14453125 C-0.42102117 23.71063292 -0.69737798 25.42570933 -0.8125 28.6875 C-0.83957031 29.68136719 -0.86664063 30.67523438 -0.89453125 31.69921875 C-0.92933594 32.45847656 -0.96414062 33.21773438 -1 34 C-2.32 34.66 -3.64 35.32 -5 36 C-8.21676631 30.96506142 -8.45121237 26.42922241 -8.69140625 20.51171875 C-8.79324219 19.68285156 -8.89507812 18.85398438 -9 18 C-9.66 17.67 -10.32 17.34 -11 17 C-11 16.01 -11 15.02 -11 14 C-10.01 13.67 -9.02 13.34 -8 13 C-8 12.01 -8 11.02 -8 10 C-5.97509956 5.95019912 -3.27346607 3.09652196 0 0 Z " fill="#13130F" transform="translate(233,231)"/>
<path d="M0 0 C0.66 1.98 1.32 3.96 2 6 C0.35 6.66 -1.3 7.32 -3 8 C-1.35 8 0.3 8 2 8 C2 9.65 2 11.3 2 13 C-1.96 13 -5.92 13 -10 13 C-10 11.35 -10 9.7 -10 8 C-12.97 8 -15.94 8 -19 8 C-19 5.69 -19 3.38 -19 1 C-16.77253461 0.63528645 -14.54292708 0.28364028 -12.3125 -0.0625 C-10.45044922 -0.35833984 -10.45044922 -0.35833984 -8.55078125 -0.66015625 C-5.33929143 -0.96752656 -3.08216081 -0.84273231 0 0 Z " fill="#18160E" transform="translate(263,400)"/>
<path d="M0 0 C4.75 0.875 4.75 0.875 7 2 C7 2.66 7 3.32 7 4 C7.66 4 8.32 4 9 4 C9.5625 5.9375 9.5625 5.9375 10 8 C8.00383446 9.99616554 4.18298037 9.40983427 1.4375 9.5625 C0.72658203 9.60568359 0.01566406 9.64886719 -0.71679688 9.69335938 C-2.47761912 9.79971777 -4.2387832 9.90038846 -6 10 C-6 10.99 -6 11.98 -6 13 C-5.34 13 -4.68 13 -4 13 C-4.33 14.32 -4.66 15.64 -5 17 C-6.32 17 -7.64 17 -9 17 C-9.28875 15.9275 -9.5775 14.855 -9.875 13.75 C-10.82865883 10.18205 -10.82865883 10.18205 -12.125 7.75 C-13 6 -13 6 -13 3 C-12.14535156 2.95101563 -11.29070312 2.90203125 -10.41015625 2.8515625 C-9.30542969 2.77679688 -8.20070313 2.70203125 -7.0625 2.625 C-5.40927734 2.52058594 -5.40927734 2.52058594 -3.72265625 2.4140625 C-2.37494141 2.20910156 -2.37494141 2.20910156 -1 2 C-0.67 1.34 -0.34 0.68 0 0 Z " fill="#13120A" transform="translate(277,395)"/>
<path d="M0 0 C3.0625 0.125 3.0625 0.125 5.0625 1.125 C5.0625 2.115 5.0625 3.105 5.0625 4.125 C6.09375 4.021875 7.125 3.91875 8.1875 3.8125 C13.1231291 4.2105346 14.78819093 5.46089223 18.0625 9.125 C19.08523869 13.0795896 19.35473576 15.24829273 18.0625 19.125 C14.13542782 18.53063232 11.18945274 17.35204839 7.75 15.375 C6.86699219 14.88515625 5.98398437 14.3953125 5.07421875 13.890625 C3.0625 12.125 3.0625 12.125 2.76953125 9.421875 C2.86621094 8.66390625 2.96289062 7.9059375 3.0625 7.125 C4.0525 6.795 5.0425 6.465 6.0625 6.125 C3.7525 5.795 1.4425 5.465 -0.9375 5.125 C-0.9375 4.465 -0.9375 3.805 -0.9375 3.125 C-1.9275 2.465 -2.9175 1.805 -3.9375 1.125 C-2.9375 0.125 -2.9375 0.125 0 0 Z " fill="#252214" transform="translate(280.9375,377.875)"/>
<path d="M0 0 C0.28617187 0.57363281 0.57234375 1.14726562 0.8671875 1.73828125 C1.24101562 2.48464844 1.61484375 3.23101562 2 4 C2.33257812 4.67417969 2.66515625 5.34835937 3.0078125 6.04296875 C6.84155921 13.40215387 11.87972078 19.6194528 18.375 24.8125 C21 27 21 27 21.90234375 29.01953125 C23.31737873 31.57263707 24.47761525 31.89552359 27.1875 32.875 C31.94564353 34.79981534 35.32908037 37.45891997 39 41 C38.505 41.99 38.505 41.99 38 43 C37.52691406 42.61328125 37.05382812 42.2265625 36.56640625 41.828125 C32.21045247 38.39770526 28.03810511 35.90712189 22.8828125 33.859375 C20.03556784 32.55980275 19.10114648 31.23600845 17.875 28.375 C17.441875 27.199375 17.441875 27.199375 17 26 C15.68 26 14.36 26 13 26 C13.66 26.66 14.32 27.32 15 28 C13.35 28 11.7 28 10 28 C9.67 27.01 9.34 26.02 9 25 C7.7625 24.566875 7.7625 24.566875 6.5 24.125 C5.675 23.75375 4.85 23.3825 4 23 C3.3125 20.625 3.3125 20.625 3 18 C2.62875 17.29875 2.2575 16.5975 1.875 15.875 C1 14 1 14 2 11 C1.34641919 8.99568551 0.67863055 6.9959722 0 5 C-0.125 2.125 -0.125 2.125 0 0 Z " fill="#2A281D" transform="translate(266,345)"/>
<path d="M0 0 C0.33 0 0.66 0 1 0 C1.1102329 7.15289018 1.03325304 14.29249254 0.6875 21.4375 C0.62949219 22.73558594 0.57148438 24.03367187 0.51171875 25.37109375 C-0.02898075 29.20552 -1.15958768 31.62363863 -3 35 C-3.29003906 35.99 -3.58007812 36.98 -3.87890625 38 C-5.24037881 41.64324364 -7.37183939 44.1566705 -9.9375 47 C-12.59171792 49.96716064 -14.85173639 52.68959589 -16.5859375 56.3203125 C-17.05257812 57.20460938 -17.51921875 58.08890625 -18 59 C-21.6875 59.875 -21.6875 59.875 -25 60 C-24.44872278 56.14105944 -23.98755427 53.91143447 -21.07421875 51.22265625 C-19.49826716 50.05459801 -17.91326025 48.89867738 -16.3203125 47.75390625 C-5.55767269 39.61851016 -3.32239098 28.07347865 -1.44140625 15.41015625 C-0.77821321 10.28654981 -0.35284147 5.15334257 0 0 Z " fill="#47453C" transform="translate(239,319)"/>
<path d="M0 0 C0.86151566 2.40574185 1.12825384 3.62715276 0.28515625 6.078125 C-3.79147156 13.31967471 -9.08687022 19.31459395 -16 24 C-16.66 24 -17.32 24 -18 24 C-17.979375 24.9075 -17.95875 25.815 -17.9375 26.75 C-19 30 -19 30 -20.7890625 31.078125 C-22.3624863 31.71614565 -23.94102289 32.34164779 -25.5234375 32.95703125 C-33.24121884 36.20726409 -38.02108198 41.77186173 -42 49 C-43.74448199 54.23344596 -43.67853621 59.87957435 -42 65.125 C-41.67 65.74375 -41.34 66.3625 -41 67 C-41.99 67.53625 -42.98 68.0725 -44 68.625 C-47.27037473 70.69270173 -47.27037473 70.69270173 -47.625 74 C-46.88946638 77.53056137 -45.75999237 78.7575062 -43 81 C-47.57782516 80.51812367 -47.57782516 80.51812367 -49.375 78.3125 C-50.22761185 75.15783617 -49.93023206 73.12292191 -49 70 C-45.9 67 -45.9 67 -43 67 C-43.495 66.34 -43.99 65.68 -44.5 65 C-46.77750584 60.44498832 -46.78410678 56.5339496 -45.30859375 51.765625 C-41.73328241 43.08913723 -36.26479368 35.67006929 -28 31 C-25.30764609 30.0443522 -22.8271853 29.50485452 -20 29 C-20.020625 28.154375 -20.04125 27.30875 -20.0625 26.4375 C-18.63836911 21.83001771 -16.15994212 20.53993024 -12.3515625 17.77734375 C-6.03979097 13.00681876 -2.81192244 7.29445763 0 0 Z " fill="#E6E5E0" transform="translate(234,348)"/>
<path d="M0 0 C7.35796255 0.67474766 11.10016431 4.79800778 16 10 C21.37770418 17.10101393 22.78560497 23.13063375 22 32 C20.27768679 40.10693924 16.64568308 45.9797762 10 51 C9.34 51 8.68 51 8 51 C8 51.99 8 52.98 8 54 C8.91523438 54.32613281 9.83046875 54.65226562 10.7734375 54.98828125 C11.96195312 55.42527344 13.15046875 55.86226563 14.375 56.3125 C15.55835938 56.74175781 16.74171875 57.17101562 17.9609375 57.61328125 C21 59 21 59 23 62 C16.5811453 60.26375242 10.86215164 58.14819255 5 55 C5.29899215 51.41209425 5.76986601 50.21833224 8.4375 47.6875 C11 46 11 46 13 46 C13.28617187 45.40832031 13.57234375 44.81664062 13.8671875 44.20703125 C15 42 15 42 17.125 38.6875 C20.18697465 32.49396036 19.9379126 25.70968246 19 19 C15.5917163 10.21807192 7.75586418 5.60504436 0 1 C0 0.67 0 0.34 0 0 Z " fill="#DEDCDA" transform="translate(263,227)"/>
<path d="M0 0 C0.66 0 1.32 0 2 0 C2 0.99 2 1.98 2 3 C3.0828125 2.6596875 3.0828125 2.6596875 4.1875 2.3125 C7 2 7 2 9.8125 3.125 C12 5 12 5 12.3125 7.6875 C12.209375 8.450625 12.10625 9.21375 12 10 C10.68 10 9.36 10 8 10 C7.67 13.63 7.34 17.26 7 21 C6.67 21 6.34 21 6 21 C5.67 18.36 5.34 15.72 5 13 C4.01 12.67 3.02 12.34 2 12 C1.67 12.66 1.34 13.32 1 14 C-1.31 11.03 -3.62 8.06 -6 5 C-5.34 4.67 -4.68 4.34 -4 4 C-3.67 3.34 -3.34 2.68 -3 2 C-2.01 2.33 -1.02 2.66 0 3 C0 2.01 0 1.02 0 0 Z " fill="#10100D" transform="translate(232,293)"/>
<path d="M0 0 C0.66 0.66 1.32 1.32 2 2 C2.99 1.34 3.98 0.68 5 0 C5.73080266 1.97746603 6.39421747 3.98072489 7 6 C6.67 6.66 6.34 7.32 6 8 C5.92818179 10.71760108 5.90700494 13.40859388 5.9375 16.125 C5.94201172 16.87910156 5.94652344 17.63320313 5.95117188 18.41015625 C5.96296501 20.27347127 5.98090058 22.13674555 6 24 C5.01 24 4.02 24 3 24 C3 25.98 3 27.96 3 30 C2.01 30 1.02 30 0 30 C0 20.1 0 10.2 0 0 Z " fill="#1B1C1A" transform="translate(239,315)"/>
<path d="M0 0 C1 2 1 2 0.44140625 4.1640625 C0.15136719 4.97617187 -0.13867188 5.78828125 -0.4375 6.625 C-0.72496094 7.44226563 -1.01242188 8.25953125 -1.30859375 9.1015625 C-1.65083984 10.04128906 -1.65083984 10.04128906 -2 11 C-1.34 11 -0.68 11 0 11 C1.79275866 14.11910856 2.34290718 16.67682428 2.625 20.25 C2.69976562 21.14203125 2.77453125 22.0340625 2.8515625 22.953125 C2.90054688 23.62859375 2.94953125 24.3040625 3 25 C-1.875 24.125 -1.875 24.125 -3 23 C-3.66 23.66 -4.32 24.32 -5 25 C-7.87799652 20.68300522 -7.82695588 17.06597341 -7 12 C-5.2402817 7.87648099 -3.21440135 3.21440135 0 0 Z " fill="#424134" transform="translate(197,388)"/>
<path d="M0 0 C2.02045442 0.60183749 4.02111039 1.27306096 6 2 C6.33 2.66 6.66 3.32 7 4 C7.33 3.67 7.66 3.34 8 3 C8 2.67 8 2.34 8 2 C10.375 1.875 10.375 1.875 13 2 C15 4 15 4 15.5625 6.375 C17.55686119 10.01687695 20.05380388 10.59397262 23.8046875 12.1015625 C26.91406584 13.37408389 29.34895315 14.53514459 30.75 17.6875 C31.12295528 21.13733632 31.05782464 24.53052164 31 28 C30.34 28.33 29.68 28.66 29 29 C29.0928125 27.1128125 29.0928125 27.1128125 29.1875 25.1875 C29.21542001 21.94631467 29.21542001 21.94631467 27.75 19.125 C25.88608361 17.92676803 24.0220468 16.90643477 22 16 C22.33 15.67 22.66 15.34 23 15 C20.69 14.67 18.38 14.34 16 14 C16 13.01 16 12.02 16 11 C13.36 10.67 10.72 10.34 8 10 C8.33 8.68 8.66 7.36 9 6 C8.071875 6.0825 7.14375 6.165 6.1875 6.25 C3 6 3 6 1.125 4.125 C0 2 0 2 0 0 Z " fill="#1A1610" transform="translate(270,368)"/>
<path d="M0 0 C1.32 0 2.64 0 4 0 C4 0.99 4 1.98 4 3 C-2.85983809 4.05728087 -9.56783224 4.11639843 -16.5 4.0625 C-17.60859375 4.05798828 -18.7171875 4.05347656 -19.859375 4.04882812 C-22.57297399 4.03713158 -25.28645761 4.02074086 -28 4 C-28 2.68 -28 1.36 -28 0 C-9.1222382 -1.84494705 -9.1222382 -1.84494705 0 0 Z " fill="#040502" transform="translate(248,426)"/>
<path d="M0 0 C-0.33 1.32 -0.66 2.64 -1 4 C-0.34 4.33 0.32 4.66 1 5 C0.25234375 5.12117188 -0.4953125 5.24234375 -1.265625 5.3671875 C-2.25046875 5.53476562 -3.2353125 5.70234375 -4.25 5.875 C-5.22453125 6.03742188 -6.1990625 6.19984375 -7.203125 6.3671875 C-9.79944005 6.95462191 -11.74372652 7.60596375 -14 9 C-14.69937532 10.31647119 -15.36729133 11.65022151 -16 13 C-16.99 13.66 -17.98 14.32 -19 15 C-18.34 13.02 -17.68 11.04 -17 9 C-19.51971886 11.95793084 -20.63879165 14.11701023 -21 18 C-20.73128549 20.34165499 -20.40961596 22.67884289 -20 25 C-20.66 24.67 -21.32 24.34 -22 24 C-22 23.01 -22 22.02 -22 21 C-22.66 21 -23.32 21 -24 21 C-22.78100427 14.41742307 -21.80067907 9.32251435 -16.4375 4.875 C-11.34905329 2.09948361 -5.84816526 0 0 0 Z " fill="#2F2C21" transform="translate(219,378)"/>
<path d="M0 0 C2.31 0 4.62 0 7 0 C7 0.66 7 1.32 7 2 C7.66 2 8.32 2 9 2 C9 1.34 9 0.68 9 0 C10.65 0.33 12.3 0.66 14 1 C13.125 8.875 13.125 8.875 12 10 C9.98035801 10.07244053 7.95832876 10.08377188 5.9375 10.0625 C4.83277344 10.05347656 3.72804688 10.04445313 2.58984375 10.03515625 C1.30787109 10.01775391 1.30787109 10.01775391 0 10 C0 6.7 0 3.4 0 0 Z " fill="#181818" transform="translate(253,254)"/>
<path d="M0 0 C1.32 0.33 2.64 0.66 4 1 C4.68707555 3.49064888 5 5.37886292 5 8 C-2.09326321 9.72330907 -8.70968976 10.2494783 -16 10 C-16 9.67 -16 9.34 -16 9 C-13.36 9 -10.72 9 -8 9 C-8 8.01 -8 7.02 -8 6 C-10.64 6.33 -13.28 6.66 -16 7 C-16.33 6.34 -16.66 5.68 -17 5 C-14.03 4.34 -11.06 3.68 -8 3 C-8 2.67 -8 2.34 -8 2 C-5.36 2 -2.72 2 0 2 C0 1.34 0 0.68 0 0 Z " fill="#0D0D0A" transform="translate(260,420)"/>
<path d="M0 0 C3.3 0 6.6 0 10 0 C10 0.66 10 1.32 10 2 C13.3 2 16.6 2 20 2 C18.02 2.99 18.02 2.99 16 4 C18.475 4.495 18.475 4.495 21 5 C19.68 5.33 18.36 5.66 17 6 C17 6.66 17 7.32 17 8 C14.69 8.33 12.38 8.66 10 9 C10.33 9.66 10.66 10.32 11 11 C9.02 11 7.04 11 5 11 C5 10.01 5 9.02 5 8 C3.35 8 1.7 8 0 8 C0 7.01 0 6.02 0 5 C2.31 5 4.62 5 7 5 C7 4.67 7 4.34 7 4 C4.69 3.67 2.38 3.34 0 3 C0 2.01 0 1.02 0 0 Z " fill="#1B1A16" transform="translate(238,373)"/>
<path d="M0 0 C0.99 0.99 1.98 1.98 3 3 C0.76834887 7.39428213 -1.74912513 9.46324993 -5.8125 12.1875 C-13.03572136 17.42564721 -17.49327046 23.12587706 -19 32 C-19.14082902 33.83747541 -19.24439398 35.67807451 -19.31640625 37.51953125 C-19.35830078 38.54111328 -19.40019531 39.56269531 -19.44335938 40.61523438 C-19.50233398 42.19788086 -19.50233398 42.19788086 -19.5625 43.8125 C-19.60568359 44.88693359 -19.64886719 45.96136719 -19.69335938 47.06835938 C-19.79910983 49.71212082 -19.90120233 52.3559711 -20 55 C-22.88067445 52.11932555 -22.29106844 49.78984648 -22.32226562 45.84765625 C-22.31904297 44.90792969 -22.31582031 43.96820313 -22.3125 43 C-22.32861328 42.09121094 -22.34472656 41.18242187 -22.36132812 40.24609375 C-22.36942503 28.86184085 -19.60472671 21.71044995 -11.71875 13.4765625 C-8.57860748 10.61614532 -5.35390911 8.41818655 -1.6171875 6.4140625 C0.30321508 5.06309321 0.30321508 5.06309321 0.2421875 2.3359375 C0.16226562 1.56507813 0.08234375 0.79421875 0 0 Z " fill="#C6C5C4" transform="translate(286,289)"/>
<path d="M0 0 C0.75216797 0.89912109 0.75216797 0.89912109 1.51953125 1.81640625 C5.1082198 4.97558247 9.30787745 6.15616463 13.77539062 7.62304688 C15.76171875 8.33984375 15.76171875 8.33984375 19 10 C19.95703125 12.69140625 19.95703125 12.69140625 20 15 C15.25 19 15.25 19 13 19 C13.66 17.68 14.32 16.36 15 15 C13.02 14.34 11.04 13.68 9 13 C9 12.01 9 11.02 9 10 C7.9171875 9.9071875 7.9171875 9.9071875 6.8125 9.8125 C3.06049508 8.72858747 1.40123201 7.03685225 -1 4 C-0.8125 1.6875 -0.8125 1.6875 0 0 Z " fill="#232018" transform="translate(267,279)"/>
<path d="M0 0 C0.79921875 0.00902344 1.5984375 0.01804687 2.421875 0.02734375 C3.02515625 0.03894531 3.6284375 0.05054688 4.25 0.0625 C4.25 0.3925 4.25 0.7225 4.25 1.0625 C8.21 1.0625 12.17 1.0625 16.25 1.0625 C16.25 1.7225 16.25 2.3825 16.25 3.0625 C15.26 3.0625 14.27 3.0625 13.25 3.0625 C13.25 3.7225 13.25 4.3825 13.25 5.0625 C10.26262272 6.55618864 7.21039093 6.24687999 3.9375 6.25 C2.62136719 6.26417969 1.30523437 6.27835937 -0.05078125 6.29296875 C-3.47125367 6.07986646 -5.70266341 5.55374982 -8.75 4.0625 C-8.75 3.0725 -8.75 2.0825 -8.75 1.0625 C-5.75519083 0.1901588 -3.11424089 -0.04579766 0 0 Z " fill="#282724" transform="translate(241.75,387.9375)"/>
<path d="M0 0 C0.66 0 1.32 0 2 0 C2 0.66 2 1.32 2 2 C5.3 1.67 8.6 1.34 12 1 C12 1.66 12 2.32 12 3 C33.45 3.33 54.9 3.66 77 4 C77 4.33 77 4.66 77 5 C69.07943737 5.04680788 61.15893469 5.0821108 53.23826694 5.10362434 C49.55845234 5.1139615 45.8787339 5.1279308 42.19897461 5.15087891 C10.91312361 5.34106813 10.91312361 5.34106813 -3 3 C-2.01 2.67 -1.02 2.34 0 2 C0 1.34 0 0.68 0 0 Z " fill="#343433" transform="translate(197,426)"/>
<path d="M0 0 C0 0.99 0 1.98 0 3 C0.3062434 4.33981486 0.63451555 5.67511887 1 7 C-0.32 6.67 -1.64 6.34 -3 6 C-3 6.99 -3 7.98 -3 9 C-2.01 9.33 -1.02 9.66 0 10 C0.04898438 10.80824219 0.09796875 11.61648437 0.1484375 12.44921875 C0.22320312 13.51785156 0.29796875 14.58648437 0.375 15.6875 C0.44460937 16.74324219 0.51421875 17.79898437 0.5859375 18.88671875 C0.98923111 21.91903011 1.82588102 24.19834212 3 27 C3 27.99 3 28.98 3 30 C2.34 30 1.68 30 1 30 C-0.32 27.03 -1.64 24.06 -3 21 C-3.66 21.33 -4.32 21.66 -5 22 C-5.56174007 8.16455012 -5.56174007 8.16455012 -2 2 C-1.34 1.34 -0.68 0.68 0 0 Z " fill="#6F716D" transform="translate(225,239)"/>
<path d="M0 0 C1.48046875 1.0078125 1.48046875 1.0078125 3 3 C3.27762256 5.71652184 3.37733762 8.16460892 3.3125 10.875 C3.3026709 11.62789307 3.2928418 12.38078613 3.28271484 13.15649414 C2.87604789 31.12395211 2.87604789 31.12395211 -1 35 C-0.99476318 34.28457031 -0.98952637 33.56914062 -0.98413086 32.83203125 C-0.96319704 29.55469662 -0.95028798 26.27737613 -0.9375 23 C-0.92912109 21.87464844 -0.92074219 20.74929688 -0.91210938 19.58984375 C-0.89800938 14.76764532 -0.89631546 10.08566886 -1.62890625 5.3125 C-1.75136719 4.219375 -1.87382812 3.12625 -2 2 C-1.34 1.34 -0.68 0.68 0 0 Z " fill="#B0B2B0" transform="translate(236,311)"/>
<path d="M0 0 C0.66 0 1.32 0 2 0 C5.47730468 5.83289818 7.14372844 9.67979928 7.125 16.5625 C7.12757813 17.51253906 7.13015625 18.46257812 7.1328125 19.44140625 C7 22 7 22 6 25 C6.845625 25.680625 7.69125 26.36125 8.5625 27.0625 C11 30 11 30 11.0625 33.6875 C10 37 10 37 7.9375 38.4375 C7.298125 38.623125 6.65875 38.80875 6 39 C6.33 38.443125 6.66 37.88625 7 37.3125 C8.16803602 34.61141671 8.37367024 32.91462786 8 30 C6.12139167 27.4951889 5.03898126 27.01299375 2 26 C2.875 22.125 2.875 22.125 4 21 C4.86988382 13.14252486 3.42480681 7.04837472 0 0 Z " fill="#CCCCC9" transform="translate(305,388)"/>
<path d="M0 0 C0.33 0 0.66 0 1 0 C1.02578125 0.83660156 1.0515625 1.67320312 1.078125 2.53515625 C1.48116244 10.80658365 2.8393865 17.93124009 5.2578125 25.8203125 C5.98046848 28.91632287 5.89899189 30.08163082 5 33 C5.98028616 34.34789347 6.97971135 35.68212715 8 37 C7.67 37.99 7.34 38.98 7 40 C2.125 36.125 2.125 36.125 1 35 C0.92820036 33.48071962 0.91607993 31.95832518 0.9375 30.4375 C0.94652344 29.61121094 0.95554687 28.78492188 0.96484375 27.93359375 C0.97644531 27.29550781 0.98804688 26.65742188 1 26 C1.66 26 2.32 26 3 26 C3 25.01 3 24.02 3 23 C2.34 23 1.68 23 1 23 C1.020625 22.030625 1.04125 21.06125 1.0625 20.0625 C1.35618499 17.12534105 1.35618499 17.12534105 0 16 C-0.07319621 13.30345146 -0.09242537 10.63308542 -0.0625 7.9375 C-0.05798828 7.17888672 -0.05347656 6.42027344 -0.04882812 5.63867188 C-0.0370068 3.75908129 -0.01907078 1.87953101 0 0 Z " fill="#27261E" transform="translate(263,328)"/>
<path d="M0 0 C0.69921875 1.7421875 0.69921875 1.7421875 1 4 C-0.29296875 6.0703125 -0.29296875 6.0703125 -2.1875 8.125 C-2.79980469 8.80820312 -3.41210938 9.49140625 -4.04296875 10.1953125 C-5.95121135 11.95500927 -7.62873333 12.97998729 -10 14 C-10 14.99 -10 15.98 -10 17 C-9.08476562 17.32613281 -8.16953125 17.65226562 -7.2265625 17.98828125 C-6.03804688 18.42527344 -4.84953125 18.86226563 -3.625 19.3125 C-2.44164062 19.74175781 -1.25828125 20.17101562 -0.0390625 20.61328125 C3 22 3 22 5 25 C-1.4188547 23.26375242 -7.13784836 21.14819255 -13 18 C-12.70100785 14.41209425 -12.23013399 13.21833224 -9.5625 10.6875 C-7 9 -7 9 -5 9 C-4.731875 8.443125 -4.46375 7.88625 -4.1875 7.3125 C-2.89877353 4.80287477 -1.47073522 2.40665764 0 0 Z " fill="#D7D6D4" transform="translate(281,264)"/>
<path d="M0 0 C-0.99 0.66 -1.98 1.32 -3 2 C-1.35 2 0.3 2 2 2 C2 3.65 2 5.3 2 7 C-1.96 7 -5.92 7 -10 7 C-10 5.35 -10 3.7 -10 2 C-11.98 2 -13.96 2 -16 2 C-16 1.67 -16 1.34 -16 1 C-10.62915894 0.31798844 -5.41499441 -0.11521265 0 0 Z " fill="#0F0E0B" transform="translate(263,406)"/>
<path d="M0 0 C0.33 0 0.66 0 1 0 C0.67 5.61 0.34 11.22 0 17 C-1.65 16.67 -3.3 16.34 -5 16 C-5 12.04 -5 8.08 -5 4 C-3.68 3.67 -2.36 3.34 -1 3 C-0.67 2.01 -0.34 1.02 0 0 Z " fill="#292B2A" transform="translate(256,321)"/>
<path d="M0 0 C1.155 0.020625 2.31 0.04125 3.5 0.0625 C9.85554985 1.76487943 16.3210388 5.48155821 20 11 C15.66905042 11 13.72965139 10.03435531 10 8 C10 7.01 10 6.02 10 5 C6.37 4.34 2.74 3.68 -1 3 C-1 2.34 -1 1.68 -1 1 C-7.435 1.495 -7.435 1.495 -14 2 C-9.50404038 -0.99730641 -5.26518864 -0.2082278 0 0 Z " fill="#45433C" transform="translate(256,226)"/>
<path d="M0 0 C1.051875 0.433125 1.051875 0.433125 2.125 0.875 C5.00818775 2.05835395 5.00818775 2.05835395 8.125 2.875 C11.27112986 4.10609429 12.28942774 5.14904623 14 8 C13.67 8.66 13.34 9.32 13 10 C12.67 9.67 12.34 9.34 12 9 C11.67 9.99 11.34 10.98 11 12 C7.63056128 11.39831451 5.50924126 10.34195851 3 8 C1.8125 5.5 1.8125 5.5 1 3 C0.67 2.01 0.34 1.02 0 0 Z " fill="#242114" transform="translate(267,234)"/>
<path d="M0 0 C0 0.99 0 1.98 0 3 C-1.32 3.33 -2.64 3.66 -4 4 C-4 4.66 -4 5.32 -4 6 C-5.98 6.33 -7.96 6.66 -10 7 C-10 7.66 -10 8.32 -10 9 C-9.01 9 -8.02 9 -7 9 C-7 9.66 -7 10.32 -7 11 C-9.31 10.67 -11.62 10.34 -14 10 C-14 9.34 -14 8.68 -14 8 C-14.99 7.67 -15.98 7.34 -17 7 C-16.67 6.01 -16.34 5.02 -16 4 C-14.4221875 3.7834375 -14.4221875 3.7834375 -12.8125 3.5625 C-6.14686967 2.59402301 -6.14686967 2.59402301 0 0 Z " fill="#110E0A" transform="translate(235,284)"/>
<path d="M0 0 C0.66 0.33 1.32 0.66 2 1 C1.67 2.32 1.34 3.64 1 5 C1.66 4.67 2.32 4.34 3 4 C2.79375 4.515625 2.5875 5.03125 2.375 5.5625 C1.70420901 9.92264145 3.63204294 13.89612881 5 18 C0.79872387 16.19945309 -2.15578533 13.95224643 -4 9.6875 C-4 5.6365087 -2.18359847 3.37465218 0 0 Z " fill="#1A180E" transform="translate(201,386)"/>
<path d="M0 0 C2.475 0.495 2.475 0.495 5 1 C5 1.99 5 2.98 5 4 C5.66 4 6.32 4 7 4 C7 4.66 7 5.32 7 6 C10.1653986 7.5826993 13.64641509 7.65696549 17.125 8.0625 C17.87910156 8.15337891 18.63320312 8.24425781 19.41015625 8.33789062 C21.27304188 8.56190852 23.13647252 8.78138573 25 9 C25 9.33 25 9.66 25 10 C16.7943963 10.29599372 9.07562173 9.43794854 1 8 C1.33 7.01 1.66 6.02 2 5 C1.34 4.67 0.68 4.34 0 4 C0 2.68 0 1.36 0 0 Z " fill="#D0D1D1" transform="translate(190,422)"/>
<path d="M0 0 C1.79068573 2.6860286 2.66055791 4.6626589 3.625 7.6875 C3.88539063 8.49574219 4.14578125 9.30398438 4.4140625 10.13671875 C4.60742188 10.75160156 4.80078125 11.36648438 5 12 C5.66 12 6.32 12 7 12 C7.33 11.34 7.66 10.68 8 10 C10 11.25 10 11.25 12 13 C12 14.32 12 15.64 12 17 C10.68 17.33 9.36 17.66 8 18 C7.03644756 16.92130607 6.07938583 15.83681257 5.125 14.75 C4.59132812 14.14671875 4.05765625 13.5434375 3.5078125 12.921875 C0.10440542 8.58385354 -0.21217479 5.51654454 0 0 Z " fill="#34342F" transform="translate(221,257)"/>
<path d="M0 0 C0.66 0 1.32 0 2 0 C4.10827055 3.16240582 4.33817465 4.50657469 4.625 8.1875 C4.69976562 9.08855469 4.77453125 9.98960937 4.8515625 10.91796875 C4.90054688 11.60503906 4.94953125 12.29210937 5 13 C2.625 12.8125 2.625 12.8125 0 12 C-1.4375 9.875 -1.4375 9.875 -2 7 C-1.125 3.1875 -1.125 3.1875 0 0 Z " fill="#6C7272" transform="translate(195,400)"/>
<path d="M0 0 C3.11787164 1.11352558 3.97153072 1.95149678 5.6875 4.875 C8.42550646 8.57500873 10.50910205 9.29536107 14.671875 10.921875 C18.34133164 12.62115358 21.11104124 15.21322306 24 18 C23.67 18.66 23.34 19.32 23 20 C22.52691406 19.61328125 22.05382812 19.2265625 21.56640625 18.828125 C17.21045247 15.39770526 13.03810511 12.90712189 7.8828125 10.859375 C4.14549005 9.15354317 3.41596359 6.6284067 2 3 C1.34 2.01 0.68 1.02 0 0 Z " fill="#DAD9D7" transform="translate(281,368)"/>
<path d="M0 0 C0 0.66 0 1.32 0 2 C-2.97 1.505 -2.97 1.505 -6 1 C-6 2.32 -6 3.64 -6 5 C-9.96 5 -13.92 5 -18 5 C-18 4.01 -18 3.02 -18 2 C-11.92972642 -0.1583195 -6.40629424 -0.20852314 0 0 Z " fill="#141410" transform="translate(287,423)"/>
<path d="M0 0 C0.33 0 0.66 0 1 0 C1.11080837 7.19023187 1.04688927 14.37761438 0.75 21.5625 C0.73590088 22.24054688 0.72180176 22.91859375 0.70727539 23.6171875 C0.53330794 27.0809184 0.19817725 28.76135526 -2.046875 31.46484375 C-3.01367188 32.22474609 -3.01367188 32.22474609 -4 33 C-4.144438 29.89458309 -4.21513835 27.52786468 -3.03173828 24.62426758 C-1.95223275 21.87850208 -1.60720459 19.63085604 -1.3671875 16.69921875 C-1.28339844 15.72275391 -1.19960937 14.74628906 -1.11328125 13.74023438 C-1.03464844 12.73283203 -0.95601562 11.72542969 -0.875 10.6875 C-0.78863281 9.66076172 -0.70226562 8.63402344 -0.61328125 7.57617188 C-0.40189423 5.05127134 -0.19770649 2.52600242 0 0 Z " fill="#5E615F" transform="translate(239,319)"/>
<path d="M0 0 C2.6628421 0.37190532 5.32980354 0.68319703 8 1 C7.67 1.66 7.34 2.32 7 3 C2.30503377 4.38087242 -2.85961069 4.87810844 -7.4375 3 C-7.953125 2.67 -8.46875 2.34 -9 2 C-9 1.34 -9 0.68 -9 0 C-5.60596506 -1.13134498 -3.45489645 -0.78520374 0 0 Z " fill="#8E8D89" transform="translate(243,390)"/>
<path d="M0 0 C0.66 0 1.32 0 2 0 C2 0.66 2 1.32 2 2 C5.3 1.67 8.6 1.34 12 1 C12 1.66 12 2.32 12 3 C18.93 3.495 18.93 3.495 26 4 C26 4.33 26 4.66 26 5 C16.18003888 5.34057669 6.70953473 4.28846906 -3 3 C-2.01 2.67 -1.02 2.34 0 2 C0 1.34 0 0.68 0 0 Z " fill="#474747" transform="translate(197,426)"/>
<path d="M0 0 C0.28617187 0.57363281 0.57234375 1.14726562 0.8671875 1.73828125 C1.24101562 2.48464844 1.61484375 3.23101562 2 4 C2.33257812 4.67417969 2.66515625 5.34835937 3.0078125 6.04296875 C6.19869861 12.16813124 10.24832614 17.01251106 15 22 C11.00523669 22 9.8578664 20.71130915 7 18 C5.6875 15.25 5.6875 15.25 5 13 C4.34 13 3.68 13 3 13 C-0.42857143 4.57142857 -0.42857143 4.57142857 0 0 Z " fill="#D8D7D5" transform="translate(266,345)"/>
<path d="M0 0 C0.66 0 1.32 0 2 0 C2.33 3.96 2.66 7.92 3 12 C2.34 12 1.68 12 1 12 C0.67 10.02 0.34 8.04 0 6 C-0.45375 6.495 -0.9075 6.99 -1.375 7.5 C-3 9 -3 9 -5 9 C-4.74438677 6.6568787 -4.40729228 4.32156597 -4 2 C-3.34 1.67 -2.68 1.34 -2 1 C-2 1.66 -2 2.32 -2 3 C-1.34 3 -0.68 3 0 3 C0 2.01 0 1.02 0 0 Z " fill="#1E1F20" transform="translate(256,316)"/>
<path d="M0 0 C0.66 0.33 1.32 0.66 2 1 C1.50628906 1.59167969 1.01257813 2.18335938 0.50390625 2.79296875 C-0.13675781 3.58316406 -0.77742187 4.37335938 -1.4375 5.1875 C-2.07558594 5.96480469 -2.71367187 6.74210938 -3.37109375 7.54296875 C-5.07176557 10.10825071 -5.61830031 11.97328271 -6 15 C-6.99 13.68 -7.98 12.36 -9 11 C-6.36113346 6.7973607 -3.63559661 3.43361902 0 0 Z M-11 14 C-9.68 14.33 -8.36 14.66 -7 15 C-7.33 15.99 -7.66 16.98 -8 18 C-8.99 17.67 -9.98 17.34 -11 17 C-11 16.01 -11 15.02 -11 14 Z " fill="#232017" transform="translate(233,231)"/>
<path d="M0 0 C-0.66 3.3 -1.32 6.6 -2 10 C-1.01 10.33 -0.02 10.66 1 11 C-2 12 -2 12 -4.1875 10.9375 C-6 9 -6 9 -6.5 6 C-6 3 -6 3 -4.125 1.125 C-2 0 -2 0 0 0 Z " fill="#49473D" transform="translate(192,416)"/>
<path d="M0 0 C1.32 0.33 2.64 0.66 4 1 C4 2.65 4 4.3 4 6 C2.68 6 1.36 6 0 6 C-0.33 9.63 -0.66 13.26 -1 17 C-1.33 17 -1.66 17 -2 17 C-2.33 14.36 -2.66 11.72 -3 9 C-3.99 8.67 -4.98 8.34 -6 8 C-6 7.34 -6 6.68 -6 6 C-5.38125 5.855625 -4.7625 5.71125 -4.125 5.5625 C-1.96741678 5.06847775 -1.96741678 5.06847775 0 4 C0 2.68 0 1.36 0 0 Z " fill="#1B1D23" transform="translate(240,297)"/>
<path d="M0 0 C2.90877977 2.90877977 2.30050485 5.1371374 2.3125 9.1875 C2.30185525 14.78198174 1.85354508 19.12519383 -1 24 C-1.66 22.68 -2.32 21.36 -3 20 C-2.34 19.67 -1.68 19.34 -1 19 C-1.33 16.69 -1.66 14.38 -2 12 C-1.34 11.67 -0.68 11.34 0 11 C0 7.37 0 3.74 0 0 Z " fill="#33302D" transform="translate(281,244)"/>
<path d="M0 0 C2.60018816 3.90028225 2.15085514 7.47434569 2 12 C0.35 11.67 -1.3 11.34 -3 11 C-3 8.69 -3 6.38 -3 4 C-2.34 3.67 -1.68 3.34 -1 3 C-0.67 2.01 -0.34 1.02 0 0 Z " fill="#14100C" transform="translate(280,244)"/>
<path d="M0 0 C1.99897128 0.33944795 3.99875639 0.67421616 6 1 C5.67 1.66 5.34 2.32 5 3 C0.05 3 -4.9 3 -10 3 C-10 2.34 -10 1.68 -10 1 C-6.14737341 -0.87127577 -4.11128782 -1.10302844 0 0 Z " fill="#212120" transform="translate(263,292)"/>
<path d="M0 0 C0.5775 0.28875 1.155 0.5775 1.75 0.875 C2.08 1.865 2.41 2.855 2.75 3.875 C1.76 4.37 1.76 4.37 0.75 4.875 C0.42 5.535 0.09 6.195 -0.25 6.875 C-1.24 6.545 -2.23 6.215 -3.25 5.875 C-4.24 5.875 -5.23 5.875 -6.25 5.875 C-6.58 4.885 -6.91 3.895 -7.25 2.875 C-2.87962963 -0.15997942 -2.87962963 -0.15997942 0 0 Z " fill="#12110D" transform="translate(252.25,232.125)"/>
<path d="M0 0 C1.32 0 2.64 0 4 0 C4 0.66 4 1.32 4 2 C4.66 1.67 5.32 1.34 6 1 C7.99960012 0.960008 10.00047242 0.95653201 12 1 C12 1.99 12 2.98 12 4 C8.04 4 4.08 4 0 4 C0 2.68 0 1.36 0 0 Z " fill="#323133" transform="translate(253,409)"/>
<path d="M0 0 C3.375 0.3125 3.375 0.3125 7 1 C9.56687367 4.8503105 8.83288724 6.58569763 8 11 C7.34 11 6.68 11 6 11 C6.020625 10.236875 6.04125 9.47375 6.0625 8.6875 C6.12942841 5.89814214 6.12942841 5.89814214 5 3 C3.35 2.67 1.7 2.34 0 2 C0 1.34 0 0.68 0 0 Z " fill="#2F2C1F" transform="translate(291,385)"/>
<path d="M0 0 C3.55780196 0.60990891 6.6828589 1.5783681 10 3 C9.8125 4.875 9.8125 4.875 9 7 C6.4375 8.25 6.4375 8.25 4 9 C4.66 7.68 5.32 6.36 6 5 C4.02 4.34 2.04 3.68 0 3 C0 2.01 0 1.02 0 0 Z " fill="#201D16" transform="translate(276,289)"/>
<path d="M0 0 C0.66 0.33 1.32 0.66 2 1 C1.44570312 1.49886719 0.89140625 1.99773437 0.3203125 2.51171875 C-6.03395473 8.80945335 -7.45467679 14.179397 -8 23 C-8.33 23 -8.66 23 -9 23 C-9.91448126 14.55193507 -8.965727 9.62245027 -3.7265625 2.86328125 C-2 1 -2 1 0 0 Z " fill="#D7D6D2" transform="translate(228,234)"/>
<path d="M0 0 C0.33 0 0.66 0 1 0 C0.67 5.61 0.34 11.22 0 17 C-0.33 17 -0.66 17 -1 17 C-1.33 14.03 -1.66 11.06 -2 8 C-2.99 7.67 -3.98 7.34 -5 7 C-5 6.01 -5 5.02 -5 4 C-4.0409375 3.8453125 -4.0409375 3.8453125 -3.0625 3.6875 C-2.381875 3.460625 -1.70125 3.23375 -1 3 C-0.67 2.01 -0.34 1.02 0 0 Z " fill="#46474A" transform="translate(256,321)"/>
<path d="M0 0 C0.598125 0.226875 1.19625 0.45375 1.8125 0.6875 C1.090625 1.38875 0.36875 2.09 -0.375 2.8125 C-3.18573813 5.61520745 -5.68266226 8.61012792 -8.1875 11.6875 C-8.5175 10.3675 -8.8475 9.0475 -9.1875 7.6875 C-8.5275 7.6875 -7.8675 7.6875 -7.1875 7.6875 C-6.919375 6.924375 -6.65125 6.16125 -6.375 5.375 C-3.7625 -0.5375 -3.7625 -0.5375 0 0 Z " fill="#272623" transform="translate(278.1875,297.3125)"/>
<path d="M0 0 C1.32 0.33 2.64 0.66 4 1 C3.34 1 2.68 1 2 1 C1.67 2.65 1.34 4.3 1 6 C-3.29 6 -7.58 6 -12 6 C-12 5.67 -12 5.34 -12 5 C-11.30132812 4.97421875 -10.60265625 4.9484375 -9.8828125 4.921875 C-8.97273438 4.86515625 -8.06265625 4.8084375 -7.125 4.75 C-6.22007812 4.70359375 -5.31515625 4.6571875 -4.3828125 4.609375 C-1.82889456 4.24388852 -1.82889456 4.24388852 -0.6796875 1.953125 C-0.34324219 0.98632812 -0.34324219 0.98632812 0 0 Z " fill="#0C0C0A" transform="translate(267,424)"/>
<path d="M0 0 C0.66 0 1.32 0 2 0 C2.67260351 1.76858691 3.33788395 3.53996016 4 5.3125 C4.37125 6.29863281 4.7425 7.28476562 5.125 8.30078125 C6 11 6 11 6 14 C5.34 14 4.68 14 4 14 C-0.59225513 4.58997722 -0.59225513 4.58997722 0 0 Z " fill="#BABCBB" transform="translate(222,255)"/>
<path d="M0 0 C4.875 0.875 4.875 0.875 6 2 C6.04063832 3.66617115 6.042721 5.33388095 6 7 C4.02 7.99 4.02 7.99 2 9 C2 7.68 2 6.36 2 5 C2.99 5 3.98 5 5 5 C3.35 4.67 1.7 4.34 0 4 C0 2.68 0 1.36 0 0 Z " fill="#201E1A" transform="translate(308,416)"/>
<path d="M0 0 C0.33 0 0.66 0 1 0 C1.18175781 1.21236328 1.18175781 1.21236328 1.3671875 2.44921875 C1.53476563 3.51785156 1.70234375 4.58648437 1.875 5.6875 C2.03742188 6.74324219 2.19984375 7.79898437 2.3671875 8.88671875 C2.95926615 11.79959951 3.89455905 14.25545696 5 17 C4.625 19.3125 4.625 19.3125 4 21 C1.07207807 15.39875805 -0.13758636 11.55725418 -0.0625 5.25 C-0.05347656 4.26515625 -0.04445312 3.2803125 -0.03515625 2.265625 C-0.02355469 1.51796875 -0.01195312 0.7703125 0 0 Z " fill="#E8E9E4" transform="translate(218,249)"/>
<path d="M0 0 C2.475 0.99 2.475 0.99 5 2 C5 2.66 5 3.32 5 4 C-1.435 4.495 -1.435 4.495 -8 5 C-7.34 3.68 -6.68 2.36 -6 1 C-3.03 1.495 -3.03 1.495 0 2 C0 1.34 0 0.68 0 0 Z " fill="#1D1D1E" transform="translate(207,410)"/>
<path d="M0 0 C2.54764436 1.27382218 3.5399926 2.56665433 5 5 C4.6875 7.25 4.6875 7.25 4 9 C0.125 7.125 0.125 7.125 -1 6 C-1.125 3.5 -1.125 3.5 -1 1 C-0.67 0.67 -0.34 0.34 0 0 Z " fill="#6A6964" transform="translate(217,289)"/>
<path d="M0 0 C3.96 0 7.92 0 12 0 C12 0.66 12 1.32 12 2 C9.11788698 2.96070434 7.30149956 3.10581883 4.3125 3.0625 C3.10013672 3.04896484 3.10013672 3.04896484 1.86328125 3.03515625 C0.94095703 3.01775391 0.94095703 3.01775391 0 3 C0 2.01 0 1.02 0 0 Z " fill="#292927" transform="translate(253,426)"/>
<path d="M0 0 C-2.34591852 2.7710688 -4.14776201 3.52059284 -7.6875 4.1875 C-8.49574219 4.34605469 -9.30398437 4.50460937 -10.13671875 4.66796875 C-11.05904297 4.83232422 -11.05904297 4.83232422 -12 5 C-12 4.34 -12 3.68 -12 3 C-8.26014446 -0.46282921 -4.87756518 -1.62585506 0 0 Z " fill="#110E06" transform="translate(217,384)"/>
<path d="M0 0 C2.475 0.495 2.475 0.495 5 1 C5 1.99 5 2.98 5 4 C5.66 4 6.32 4 7 4 C7 4.66 7 5.32 7 6 C5.02 6.33 3.04 6.66 1 7 C1.33 6.34 1.66 5.68 2 5 C1.34 4.67 0.68 4.34 0 4 C0 2.68 0 1.36 0 0 Z " fill="#A0A19C" transform="translate(190,422)"/>
<path d="M0 0 C0.33 0 0.66 0 1 0 C1.33569297 1.62451419 1.6684796 3.24962917 2 4.875 C2.185625 5.77992188 2.37125 6.68484375 2.5625 7.6171875 C3 10 3 10 3 12 C3.33 12.66 3.66 13.32 4 14 C2.02 14 0.04 14 -2 14 C-2 12.68 -2 11.36 -2 10 C-1.01 10 -0.02 10 1 10 C0.67 9.34 0.34 8.68 0 8 C-0.13415472 5.3276379 -0.04318541 2.67749512 0 0 Z " fill="#595C5D" transform="translate(199,403)"/>
<path d="M0 0 C1.98 0 3.96 0 6 0 C6 1.65 6 3.3 6 5 C4.34385343 5.38218767 2.67542976 5.71395102 1 6 C0 5 0 5 -0.0625 2.4375 C-0.041875 1.633125 -0.02125 0.82875 0 0 Z " fill="#3F4041" transform="translate(253,254)"/>
<path d="M0 0 C6.57142857 5 6.57142857 5 8 10 C2.25 7.375 2.25 7.375 0 4 C0 2.68 0 1.36 0 0 Z " fill="#3C3C38" transform="translate(300,384)"/>
<path d="M0 0 C0.71484375 1.734375 0.71484375 1.734375 1 4 C-0.43359375 6.140625 -0.43359375 6.140625 -2.4375 8.25 C-3.09621094 8.95640625 -3.75492187 9.6628125 -4.43359375 10.390625 C-4.95050781 10.92171875 -5.46742188 11.4528125 -6 12 C-6.99 11.67 -7.98 11.34 -9 11 C-8.38125 10.7525 -7.7625 10.505 -7.125 10.25 C-4.56173771 8.74219866 -4.15566096 7.69654224 -3 5 C-2.01120795 3.32665961 -1.01351664 1.65848177 0 0 Z " fill="#CECBC8" transform="translate(281,264)"/>
<path d="M0 0 C0.66 0.33 1.32 0.66 2 1 C1.34 1.66 0.68 2.32 0 3 C-0.50042146 5.91538029 -0.50042146 5.91538029 0 9 C1.87501931 11.37719693 1.87501931 11.37719693 4 13 C-0.57782516 12.51812367 -0.57782516 12.51812367 -2.375 10.3125 C-3.20815264 7.22983524 -2.80044982 5.06839098 -2 2 C-1.34 1.34 -0.68 0.68 0 0 Z " fill="#E7E7E5" transform="translate(187,416)"/>
<path d="M0 0 C2.02045442 0.60183749 4.02111039 1.27306096 6 2 C6.33 2.66 6.66 3.32 7 4 C9.01669827 5.13350534 9.01669827 5.13350534 11 6 C5.67988107 6.34886026 5.67988107 6.34886026 3 6 C1 4.125 1 4.125 0 2 C0 1.34 0 0.68 0 0 Z " fill="#211E11" transform="translate(270,368)"/>
<path d="M0 0 C0.99 0.33 1.98 0.66 3 1 C3 1.66 3 2.32 3 3 C3.66 3 4.32 3 5 3 C5.33 2.34 5.66 1.68 6 1 C6.99 1.99 7.98 2.98 9 4 C8.01 4.33 7.02 4.66 6 5 C6.66 5.66 7.32 6.32 8 7 C6.35 7 4.7 7 3 7 C1.79371992 4.66785852 0.8345262 2.50357861 0 0 Z " fill="#332F25" transform="translate(273,366)"/>
<path d="M0 0 C0.99 0.33 1.98 0.66 3 1 C3.36923077 6.53846154 3.36923077 6.53846154 1.5 8.875 C0.7575 9.431875 0.7575 9.431875 0 10 C-0.66 8.02 -1.32 6.04 -2 4 C-1.34 4 -0.68 4 0 4 C0 2.68 0 1.36 0 0 Z " fill="#5A5A61" transform="translate(235,305)"/>
<path d="M0 0 C2.79133871 0.78208351 5.44481903 1.61706907 8 3 C9 5.6875 9 5.6875 9 8 C8.67 7.34 8.34 6.68 8 6 C6.824375 5.7834375 6.824375 5.7834375 5.625 5.5625 C2.73613295 4.94345706 1.76352207 4.32042378 0 2 C0 1.34 0 0.68 0 0 Z " fill="#322F29" transform="translate(278,286)"/>
<path d="M0 0 C0 0.99 0 1.98 0 3 C0.3062434 4.33981486 0.63451555 5.67511887 1 7 C-0.32 6.67 -1.64 6.34 -3 6 C-3 8.64 -3 11.28 -3 14 C-3.66 13.67 -4.32 13.34 -5 13 C-4.61271765 7.28758534 -4.12989477 4.26311718 0 0 Z " fill="#56544B" transform="translate(225,239)"/>
<path d="M0 0 C-0.33 1.32 -0.66 2.64 -1 4 C-0.34 4.33 0.32 4.66 1 5 C-2.63 5.33 -6.26 5.66 -10 6 C-9.01 5.34 -8.02 4.68 -7 4 C-6.34 3.29875 -5.68 2.5975 -5 1.875 C-3 0 -3 0 0 0 Z " fill="#252218" transform="translate(219,378)"/>
<path d="M0 0 C0.99 0 1.98 0 3 0 C3 2.97 3 5.94 3 9 C2.34 9 1.68 9 1 9 C1 8.34 1 7.68 1 7 C0.34 7 -0.32 7 -1 7 C-0.67 4.69 -0.34 2.38 0 0 Z " fill="#313133" transform="translate(234,254)"/>
<path d="M0 0 C1 2 1 2 0.44140625 4.1640625 C0.15136719 4.97617187 -0.13867188 5.78828125 -0.4375 6.625 C-0.72496094 7.44226563 -1.01242188 8.25953125 -1.30859375 9.1015625 C-1.53675781 9.72804688 -1.76492187 10.35453125 -2 11 C-1.34 11.33 -0.68 11.66 0 12 C-0.66 12 -1.32 12 -2 12 C-2.33 12.66 -2.66 13.32 -3 14 C-4.44608879 7.01057082 -4.44608879 7.01057082 -3.17578125 4.1328125 C-2.0625 2.5 -2.0625 2.5 0 0 Z " fill="#4B493E" transform="translate(197,388)"/>
<path d="M0 0 C0.66 0 1.32 0 2 0 C5.34594658 5.18082051 6.56826496 8.84777564 7 15 C5.32574184 12.48861275 4.13977993 10.24284394 2.9375 7.5 C2.59589844 6.7265625 2.25429688 5.953125 1.90234375 5.15625 C1.19512275 3.46626736 0.57932744 1.73798233 0 0 Z " fill="#E7E6E5" transform="translate(305,388)"/>
<path d="M0 0 C0.99 0.33 1.98 0.66 3 1 C4.61729417 4.67566856 4.06546005 9.07239675 4 13 C3.01 13.495 3.01 13.495 2 14 C2.061875 12.741875 2.12375 11.48375 2.1875 10.1875 C2.23632922 6.83041021 2.23632922 6.83041021 0.5 4 C0.005 3.67 -0.49 3.34 -1 3 C-0.67 2.01 -0.34 1.02 0 0 Z " fill="#121009" transform="translate(297,383)"/>
<path d="M0 0 C1.65 0.33 3.3 0.66 5 1 C4.67 2.98 4.34 4.96 4 7 C1.525 6.01 1.525 6.01 -1 5 C-0.67 3.35 -0.34 1.7 0 0 Z " fill="#454649" transform="translate(262,254)"/>
<path d="M0 0 C1.00289062 0.10183594 2.00578125 0.20367187 3.0390625 0.30859375 C3.80992187 0.39238281 4.58078125 0.47617187 5.375 0.5625 C5.045 1.2225 4.715 1.8825 4.375 2.5625 C-4.19642857 2.84821429 -4.19642857 2.84821429 -7.625 0.5625 C-4.89657939 -0.80171031 -3.01546682 -0.31557211 0 0 Z " fill="#ADABAA" transform="translate(245.625,390.4375)"/>
<path d="M0 0 C0.66 0.33 1.32 0.66 2 1 C1.66226563 1.55171875 1.32453125 2.1034375 0.9765625 2.671875 C-0.21101261 5.50305405 -0.02275703 7.22704656 0.375 10.25 C0.48585937 11.14203125 0.59671875 12.0340625 0.7109375 12.953125 C0.80632812 13.62859375 0.90171875 14.3040625 1 15 C0.34 14.67 -0.32 14.34 -1 14 C-1 13.01 -1 12.02 -1 11 C-1.66 11 -2.32 11 -3 11 C-2.69078116 9.54096742 -2.37751201 8.08279278 -2.0625 6.625 C-1.88847656 5.81289063 -1.71445313 5.00078125 -1.53515625 4.1640625 C-1 2 -1 2 0 0 Z " fill="#29271F" transform="translate(198,388)"/>
<path d="M0 0 C0.33 0 0.66 0 1 0 C1.1958009 1.91583647 1.38132214 3.83272539 1.5625 5.75 C1.66691406 6.81734375 1.77132812 7.8846875 1.87890625 8.984375 C1.98560074 11.64141204 1.81930395 13.49960572 1 16 C0.34 16 -0.32 16 -1 16 C-0.67 10.72 -0.34 5.44 0 0 Z " fill="#0E0E0A" transform="translate(248,326)"/>
<path d="M0 0 C-1.8125 2 -1.8125 2 -4 4 C-4.99 4 -5.98 4 -7 4 C-7.66 3.01 -8.32 2.02 -9 1 C-5.57367167 -0.61798838 -3.61944899 -1.34053666 0 0 Z " fill="#32302A" transform="translate(244,229)"/>
<path d="M0 0 C0.99 0 1.98 0 3 0 C3 0.99 3 1.98 3 3 C3.99 3 4.98 3 6 3 C5.67 3.99 5.34 4.98 5 6 C3.68 6 2.36 6 1 6 C0.67 4.02 0.34 2.04 0 0 Z " fill="#484749" transform="translate(267,406)"/>
<path d="M0 0 C-0.99 0.495 -0.99 0.495 -2 1 C-2.65555119 3.52733235 -2.65555119 3.52733235 -3 6 C-3.33 5.34 -3.66 4.68 -4 4 C-4.99 3.67 -5.98 3.34 -7 3 C-6.67 2.01 -6.34 1.02 -6 0 C-3.50907189 -1.24546405 -2.58919267 -0.7767578 0 0 Z " fill="#312F27" transform="translate(225,288)"/>
<path d="M0 0 C0 0.99 0 1.98 0 3 C-3.78187881 4.83691257 -5.94568308 5.15837626 -10 4 C-8.66666667 3.33333333 -7.33333333 2.66666667 -6 2 C-5.29875 1.62875 -4.5975 1.2575 -3.875 0.875 C-2 0 -2 0 0 0 Z " fill="#403D34" transform="translate(234,283)"/>
<path d="M0 0 C0 3.41761705 -0.75938546 5.82954062 -2 9 C-2.99 9.495 -2.99 9.495 -4 10 C-3.38461538 3.47692308 -3.38461538 3.47692308 -1.4375 1.0625 C-0.7259375 0.5365625 -0.7259375 0.5365625 0 0 Z " fill="#3E3E34" transform="translate(236,351)"/>
<path d="M0 0 C2 2 4 4 6 6 C6 6.66 6 7.32 6 8 C3.64035727 7.59316505 2.14065912 7.10185661 0.1875 5.6875 C-1 4 -1 4 -0.6875 1.8125 C-0.460625 1.214375 -0.23375 0.61625 0 0 Z " fill="#2F2D29" transform="translate(267,279)"/>
<path d="M0 0 C1.32 0.66 2.64 1.32 4 2 C4 3.65 4 5.3 4 7 C2.35 6.67 0.7 6.34 -1 6 C-0.67 4.02 -0.34 2.04 0 0 Z " fill="#2D2C21" transform="translate(193,410)"/>
<path d="M0 0 C1.32 0 2.64 0 4 0 C4.66 1.65 5.32 3.3 6 5 C4.35 4.67 2.7 4.34 1 4 C0.67 2.68 0.34 1.36 0 0 Z " fill="#B0B7B8" transform="translate(194,408)"/>
<path d="M0 0 C2.64 0 5.28 0 8 0 C8.33 1.32 8.66 2.64 9 4 C7.02 4 5.04 4 3 4 C3 3.01 3 2.02 3 1 C2.01 0.67 1.02 0.34 0 0 Z " fill="#3B3C38" transform="translate(240,380)"/>
<path d="M0 0 C0.99 0.33 1.98 0.66 3 1 C2.6875 3.375 2.6875 3.375 2 6 C1.01 6.66 0.02 7.32 -1 8 C-1.125 2.25 -1.125 2.25 0 0 Z " fill="#939290" transform="translate(236,344)"/>
<path d="M0 0 C3.3 0 6.6 0 10 0 C10 0.66 10 1.32 10 2 C5.545 2.495 5.545 2.495 1 3 C0.67 2.01 0.34 1.02 0 0 Z " fill="#282824" transform="translate(238,291)"/>
<path d="M0 0 C1.32 0.33 2.64 0.66 4 1 C4 2.32 4 3.64 4 5 C2.68 5 1.36 5 0 5 C0 3.35 0 1.7 0 0 Z " fill="#1C1C1A" transform="translate(261,259)"/>
<path d="M0 0 C0.66 0.33 1.32 0.66 2 1 C1.67 2.32 1.34 3.64 1 5 C-0.65 5 -2.3 5 -4 5 C-3.6875 3.0625 -3.6875 3.0625 -3 1 C-2.01 0.67 -1.02 0.34 0 0 Z " fill="#12110D" transform="translate(208,406)"/>
<path d="M0 0 C2.18975773 3.28463659 2.99806563 6.20696275 4 10 C3.01 10.495 3.01 10.495 2 11 C-0.32590854 7.36576791 -0.16265833 4.22911669 0 0 Z " fill="#4D4E48" transform="translate(221,257)"/>
<path d="M0 0 C0.66 0 1.32 0 2 0 C2 0.66 2 1.32 2 2 C3.65 1.67 5.3 1.34 7 1 C7.33 1.66 7.66 2.32 8 3 C5 5 5 5 2 5 C1.34 3.35 0.68 1.7 0 0 Z " fill="#585754" transform="translate(244,236)"/>
<path d="M0 0 C1.65 0.33 3.3 0.66 5 1 C4.67 1.99 4.34 2.98 4 4 C2.68 4 1.36 4 0 4 C0 4.66 0 5.32 0 6 C-0.66 6 -1.32 6 -2 6 C-1.49396008 3.83125748 -1.00016187 2.00032373 0 0 Z " fill="#17150A" transform="translate(192,416)"/>
<path d="M0 0 C0.99 0.33 1.98 0.66 3 1 C2.67 1.99 2.34 2.98 2 4 C-0.31 4 -2.62 4 -5 4 C-4.67 3.34 -4.34 2.68 -4 2 C-2.68 2 -1.36 2 0 2 C0 1.34 0 0.68 0 0 Z " fill="#272726" transform="translate(277,408)"/>
<path d="M0 0 C0 0.66 0 1.32 0 2 C-0.66 2 -1.32 2 -2 2 C-2.268125 2.61875 -2.53625 3.2375 -2.8125 3.875 C-4 6 -4 6 -7 8 C-4.73913043 0 -4.73913043 0 0 0 Z " fill="#2F2C1F" transform="translate(207,385)"/>
<path d="M0 0 C1.65 1.65 3.3 3.3 5 5 C4.67 5.66 4.34 6.32 4 7 C3.67 6.67 3.34 6.34 3 6 C2.34 6.99 1.68 7.98 1 9 C0.67 6.03 0.34 3.06 0 0 Z " fill="#38362E" transform="translate(276,237)"/>
<path d="M0 0 C1.85776765 3.13498292 2.20140476 5.37471432 2 9 C1.34 9 0.68 9 0 9 C-0.66 6.36 -1.32 3.72 -2 1 C-1.34 0.67 -0.68 0.34 0 0 Z " fill="#2B291D" transform="translate(275,237)"/>
<path d="M0 0 C0.66 0.33 1.32 0.66 2 1 C0.02 3.31 -1.96 5.62 -4 8 C-4.99 7.67 -5.98 7.34 -7 7 C-4.69 4.69 -2.38 2.38 0 0 Z " fill="#3E3E36" transform="translate(233,231)"/>
<path d="M0 0 C2.97 0 5.94 0 9 0 C8.67 1.32 8.34 2.64 8 4 C6.68 3.67 5.36 3.34 4 3 C4 2.34 4 1.68 4 1 C2.68 0.67 1.36 0.34 0 0 Z " fill="#282925" transform="translate(211,424)"/>
<path d="M0 0 C2.38564077 0.57584432 4.66682784 1.22227595 7 2 C7 3.32 7 4.64 7 6 C3.63279613 4.60667426 2.0140476 3.0210714 0 0 Z " fill="#3C3A34" transform="translate(228,303)"/>
<path d="M0 0 C1.32 0.33 2.64 0.66 4 1 C4 2.65 4 4.3 4 6 C3.01 6 2.02 6 1 6 C0.67 4.02 0.34 2.04 0 0 Z " fill="#232425" transform="translate(240,297)"/>
<path d="M0 0 C1.65 0 3.3 0 5 0 C5.33 0.99 5.66 1.98 6 3 C4.02 3 2.04 3 0 3 C0 2.01 0 1.02 0 0 Z " fill="#393936" transform="translate(269,425)"/>
<path d="M0 0 C0.33 0 0.66 0 1 0 C0.75 3.375 0.75 3.375 0 7 C-1.98 7.99 -1.98 7.99 -4 9 C-2.68 6.03 -1.36 3.06 0 0 Z " fill="#E4E4E4" transform="translate(315,418)"/>
<path d="M0 0 C1.65 0 3.3 0 5 0 C5 1.32 5 2.64 5 4 C3.35 3.67 1.7 3.34 0 3 C0 2.01 0 1.02 0 0 Z " fill="#323130" transform="translate(197,417)"/>
<path d="M0 0 C0.66 0 1.32 0 2 0 C4 3 4 3 4 6 C2.68 5.67 1.36 5.34 0 5 C0 3.35 0 1.7 0 0 Z " fill="#D5D6D6" transform="translate(195,400)"/>
<path d="M0 0 C0.66 0.33 1.32 0.66 2 1 C1.375 2.9375 1.375 2.9375 0 5 C-3.125 5.75 -3.125 5.75 -6 6 C-4 4 -2 2 0 0 Z " fill="#59574D" transform="translate(204,382)"/>
<path d="M0 0 C2.64 0 5.28 0 8 0 C8 0.66 8 1.32 8 2 C7.01 2 6.02 2 5 2 C4.67 2.66 4.34 3.32 4 4 C2.68 3.34 1.36 2.68 0 2 C0 1.34 0 0.68 0 0 Z " fill="#0D0E09" transform="translate(248,291)"/>
<path d="M0 0 C0.66 0 1.32 0 2 0 C2 2.64 2 5.28 2 8 C0.68 7.67 -0.64 7.34 -2 7 C-2 6.34 -2 5.68 -2 5 C-1.01 5 -0.02 5 1 5 C0.67 3.35 0.34 1.7 0 0 Z " fill="#2A2929" transform="translate(232,269)"/>
<path d="M0 0 C2.5 1.375 2.5 1.375 5 3 C5 3.66 5 4.32 5 5 C2.5625 4.625 2.5625 4.625 0 4 C-0.33 3.34 -0.66 2.68 -1 2 C-0.67 1.34 -0.34 0.68 0 0 Z " fill="#52525F" transform="translate(228,267)"/>
<path d="M0 0 C1.98 0 3.96 0 6 0 C6 0.99 6 1.98 6 3 C4.02 3 2.04 3 0 3 C0 2.01 0 1.02 0 0 Z " fill="#12120E" transform="translate(253,261)"/>
<path d="" fill="#FFFFFF" transform="translate(0,0)"/>
</svg>
