<?xml version="1.0" standalone="no"?>
<!DOCTYPE svg PUBLIC "-//W3C//DTD SVG 20010904//EN"
 "http://www.w3.org/TR/2001/REC-SVG-20010904/DTD/svg10.dtd">
<svg version="1.0" xmlns="http://www.w3.org/2000/svg"
 width="500.000000pt" height="500.000000pt" viewBox="0 0 500.000000 500.000000"
 preserveAspectRatio="xMidYMid meet">

<g transform="translate(0.000000,500.000000) scale(0.100000,-0.100000)"
fill="#000000" stroke="none">
<path d="M2414 4281 c-70 -43 -85 -118 -38 -186 14 -21 23 -43 21 -49 -3 -7
-35 -28 -71 -46 -77 -40 -134 -94 -174 -168 l-29 -54 -21 29 c-20 28 -24 29
-79 25 -32 -2 -60 -6 -62 -8 -2 -2 13 -61 33 -131 20 -71 36 -134 36 -142 0
-32 74 -232 125 -336 30 -62 55 -117 55 -123 0 -7 -21 -22 -47 -34 -41 -20
-49 -29 -58 -62 -7 -28 -19 -45 -42 -59 -50 -29 -60 -54 -33 -82 13 -13 36
-25 53 -27 24 -2 35 -11 51 -43 13 -25 36 -47 59 -60 21 -11 43 -29 49 -39 16
-28 3 -517 -16 -631 -36 -212 -124 -426 -230 -557 -31 -40 -56 -82 -60 -103
-6 -29 -18 -42 -75 -79 -150 -97 -236 -286 -169 -371 l22 -28 -22 -16 c-12 -9
-30 -23 -41 -31 -32 -24 -36 -63 -9 -94 19 -22 41 -30 118 -46 320 -63 1284
-64 1520 0 54 15 73 33 73 70 0 27 -8 40 -44 71 l-44 37 20 22 c31 35 27 130
-9 199 -32 63 -103 142 -155 173 -56 33 -79 58 -87 91 -3 17 -34 67 -68 111
-104 136 -186 325 -221 510 -33 171 -48 644 -22 679 6 10 28 25 47 35 21 10
43 33 56 57 15 31 27 41 50 43 69 8 86 75 26 101 -26 12 -35 24 -45 60 -11 39
-20 49 -55 66 -67 33 -67 33 -17 130 65 127 103 231 141 385 18 74 40 155 48
179 24 67 21 77 -21 84 -21 4 -42 2 -46 -2 -5 -5 -16 -7 -24 -4 -9 4 -24 -5
-36 -21 l-22 -27 -28 54 c-36 70 -86 117 -172 164 -76 42 -88 63 -56 97 27 29
36 76 21 120 -23 70 -116 105 -176 67z m-34 -154 c0 -5 -4 -5 -10 -2 -5 3 -10
14 -10 23 0 15 2 15 10 2 5 -8 10 -19 10 -23z m78 -212 c11 -23 10 -25 -14
-25 -20 0 -25 4 -20 16 3 9 6 20 6 25 0 18 17 8 28 -16z m-379 -202 c10 -38
26 -97 35 -133 27 -106 62 -230 89 -313 15 -47 20 -74 12 -67 -12 10 -79 178
-109 275 -14 47 -56 263 -56 292 0 28 10 10 29 -54z m106 7 c3 -5 1 -10 -4
-10 -6 0 -11 5 -11 10 0 6 2 10 4 10 3 0 8 -4 11 -10z m-80 -850 c8 -13 -5
-13 -25 0 -13 8 -13 10 2 10 9 0 20 -4 23 -10z m105 -85 c0 -28 -12 -32 -30
-10 -14 16 -6 35 16 35 8 0 14 -10 14 -25z m83 -147 c-6 -72 -11 -83 -12 -26
-1 25 -4 53 -7 62 -4 10 -1 16 8 16 12 0 14 -11 11 -52z m94 -150 c-3 -8 -6
-5 -6 6 -1 11 2 17 5 13 3 -3 4 -12 1 -19z m-122 -501 c-8 -20 -18 -37 -21
-37 -7 0 4 72 19 125 l12 40 3 -45 c2 -26 -4 -62 -13 -83z m322 81 c-3 -8 -6
-5 -6 6 -1 11 2 17 5 13 3 -3 4 -12 1 -19z m-99 -611 c24 -25 24 -25 4 -36
-12 -6 -41 -11 -66 -11 -44 0 -46 1 -46 30 0 22 7 33 27 44 31 16 46 11 81
-27z m-461 -83 c-3 -3 -12 -4 -19 -1 -8 3 -5 6 6 6 11 1 17 -2 13 -5z m453
-64 c0 -12 -24 -12 -60 0 -21 7 -19 8 18 9 23 1 42 -3 42 -9z m18 -99 c29 -10
55 -20 58 -23 2 -3 -31 -14 -74 -25 -72 -18 -82 -19 -128 -5 l-49 14 50 15
c28 8 57 21 65 29 17 17 13 17 78 -5z m-328 -257 c0 -9 -5 -14 -12 -12 -18 6
-21 28 -4 28 9 0 16 -7 16 -16z m703 -11 c-7 -2 -19 -2 -25 0 -7 3 -2 5 12 5
14 0 19 -2 13 -5z m-415 -160 c-15 -2 -42 -2 -60 0 -18 2 -6 4 27 4 33 0 48
-2 33 -4z m-643 -36 c7 -6 -3 -8 -29 -4 -22 4 -44 11 -50 17 -8 9 0 10 29 5
22 -4 45 -12 50 -18z m335 -7 c0 -5 -2 -10 -4 -10 -3 0 -8 5 -11 10 -3 6 -1
10 4 10 6 0 11 -4 11 -10z"/>
</g>
</svg>
