<?xml version="1.0" encoding="UTF-8"?>
<svg version="1.1" xmlns="http://www.w3.org/2000/svg" width="500" height="500">
<path d="M0 0 C7.18524633 5.68503006 11.61496911 12.93668695 12.84375 22.01953125 C13.18308658 29.58345308 10.72570846 35.88285132 5.96484375 41.71875 C3.41446238 44.20761939 0.7548268 46.50337885 -2.03515625 48.71875 C-1.70515625 49.70875 -1.37515625 50.69875 -1.03515625 51.71875 C1.84648552 53.05193241 1.84648552 53.05193241 5.27734375 54.15625 C13.23896609 56.85767393 13.23896609 56.85767393 15.96484375 60.71875 C16.04296875 63.21875 16.04296875 63.21875 14.96484375 65.71875 C12.63671875 67.78125 12.63671875 67.78125 9.71484375 69.71875 C2.13054067 74.9679119 -3.73661652 80.16617062 -5.8984375 89.41015625 C-7.45087117 102.78808462 -8.58886791 117.30402715 -0.49609375 128.9296875 C2.97728218 133.06919032 6.93010677 136.54337726 11.16796875 139.8828125 C12.96484375 141.71875 12.96484375 141.71875 14.33984375 144.75 C16.34732572 148.41751514 17.8973877 149.03382507 21.71484375 150.59375 C30.2392865 154.56770519 35.17575536 160.17193481 38.47265625 169 C39.23660972 173.21993348 38.14472146 176.89182177 37.21484375 181.0234375 C36.72041009 183.67411106 36.72041009 183.67411106 37.96484375 185.6015625 C39.29236195 186.9795841 40.62823647 188.34954254 41.96484375 189.71875 C42.02734375 192.90625 42.02734375 192.90625 40.96484375 195.71875 C37.50674095 199.29395661 33.4228528 199.48212148 28.703125 199.890625 C27.4080175 200.0099942 27.4080175 200.0099942 26.08674622 200.1317749 C13.88062746 201.12309332 1.62548326 201.0191286 -10.61206055 200.97949219 C-14.10943642 200.96822007 -17.60650368 200.97480634 -21.10386848 200.98636627 C-35.82060114 201.02759767 -50.48130657 200.74133248 -65.171875 199.828125 C-66.46350052 199.75064026 -67.75512604 199.67315552 -69.08589172 199.59332275 C-83.06660769 198.63394262 -83.06660769 198.63394262 -87.97265625 195.46875 C-89.62707494 192.7438251 -89.48025324 190.83442893 -89.03515625 187.71875 C-87.16015625 185.46875 -87.16015625 185.46875 -85.03515625 183.71875 C-84.04515625 182.72875 -84.04515625 182.72875 -83.03515625 181.71875 C-83.69515625 181.05875 -84.35515625 180.39875 -85.03515625 179.71875 C-86.35623835 171.70882063 -84.4932842 165.36045083 -80.03515625 158.71875 C-75.6585683 152.85225977 -70.38960226 150.16115195 -63.70703125 147.37109375 C-60.34568491 145.29236641 -59.71713487 143.2388591 -58.03515625 139.71875 C-55.546875 137.515625 -55.546875 137.515625 -52.72265625 135.46875 C-44.50642042 128.99140006 -40.61188927 121.95903756 -39.03515625 111.71875 C-37.54275656 94.52574802 -37.54275656 94.52574802 -43.03515625 78.71875 C-46.87879249 74.44474522 -51.27304802 71.20271589 -56.03515625 68.03125 C-59.03515625 65.71875 -59.03515625 65.71875 -60.22265625 63.15625 C-60.03515625 60.71875 -60.03515625 60.71875 -58.5078125 58.76953125 C-55.33673484 56.13949053 -52.11801895 54.88886548 -48.28515625 53.46875 C-47.58777344 53.200625 -46.89039063 52.9325 -46.171875 52.65625 C-44.46325892 52.00089041 -42.74967906 51.35849732 -41.03515625 50.71875 C-44.33134326 47.4027435 -44.33134326 47.4027435 -47.6953125 44.15625 C-53.21984711 38.49321731 -55.54424897 31.01888451 -56.265625 23.23046875 C-55.85861445 14.74354496 -50.17548474 6.92458842 -44.15625 1.25390625 C-31.10526017 -8.19183777 -13.59072191 -8.55615506 0 0 Z " fill="#C4B298" transform="translate(272.03515625,257.28125)"/>
<path d="M0 0 C2 0 2 0 3.4375 1.3125 C4.2109375 2.1478125 4.2109375 2.1478125 5 3 C5.53625 3.495 6.0725 3.99 6.625 4.5 C9.16777827 7.27393993 9.52025619 10.75277308 9.47265625 14.41796875 C8.12692118 21.76946361 3.8240343 29.92197759 -1.8125 34.8125 C-5 37 -5 37 -7 38 C-6.85624174 39.98000344 -6.85624174 39.98000344 -6 42 C-3.95111193 42.96649809 -3.95111193 42.96649809 -1.4375 43.4375 C3.45902215 44.73384543 8.319206 46.37061374 12 50 C12 51.32 12 52.64 12 54 C9.79849294 55.80529537 7.69081946 57.34014049 5.3125 58.875 C-0.91001189 62.93789654 -5.94886843 66.98140676 -9 74 C-11.60343221 87.02504548 -12.0579462 104.028727 -6 116 C-2.78869535 120.719734 0.58998306 125.29152909 5.28125 128.6171875 C5.8484375 129.07351563 6.415625 129.52984375 7 130 C7 130.99 7 131.98 7 133 C7.66 133 8.32 133 9 133 C9.495 135.475 9.495 135.475 10 138 C7.37461716 137.85946128 4.74982573 137.71281053 2.125 137.5625 C1.37863281 137.52318359 0.63226563 137.48386719 -0.13671875 137.44335938 C-5.7734375 137.11328125 -5.7734375 137.11328125 -8 136 C-7.67 135.01 -7.34 134.02 -7 133 C-10.12482108 132.66497499 -13.24988466 132.33226801 -16.375 132 C-17.26445312 131.90460938 -18.15390625 131.80921875 -19.0703125 131.7109375 C-20.34648437 131.57558594 -20.34648437 131.57558594 -21.6484375 131.4375 C-22.43395996 131.35371094 -23.21948242 131.26992188 -24.02880859 131.18359375 C-26.00194308 130.96908763 -26.00194308 130.96908763 -28 131 C-29.54278761 130.84405035 -31.08437905 130.67607097 -32.625 130.5 C-33.44226563 130.4071875 -34.25953125 130.314375 -35.1015625 130.21875 C-35.72804687 130.1465625 -36.35453125 130.074375 -37 130 C-36.67 130.99 -36.34 131.98 -36 133 C-34.95199219 133.07347656 -34.95199219 133.07347656 -33.8828125 133.1484375 C-32.97273438 133.22320312 -32.06265625 133.29796875 -31.125 133.375 C-30.22007812 133.44460938 -29.31515625 133.51421875 -28.3828125 133.5859375 C-26 134 -26 134 -24 136 C-27.01213029 137.50606515 -30.11282622 137.12160331 -33.4140625 137.09765625 C-34.14370209 137.0962413 -34.87334167 137.09482635 -35.62509155 137.09336853 C-37.95843585 137.08776531 -40.29168464 137.07521235 -42.625 137.0625 C-44.20572778 137.05748541 -45.78645707 137.05292243 -47.3671875 137.04882812 C-51.24482854 137.03779484 -55.12239807 137.02052811 -59 137 C-59 135.68 -59 134.36 -59 133 C-54.05 133 -49.1 133 -44 133 C-44 132.01 -44 131.02 -44 130 C-45.32 130.33 -46.64 130.66 -48 131 C-48.66 129.68 -49.32 128.36 -50 127 C-49.61328125 126.48953125 -49.2265625 125.9790625 -48.828125 125.453125 C-42.84359075 117.09847817 -40.2871035 107.91078184 -38 98 C-37.34 99.32 -36.68 100.64 -36 102 C-35.67 100.02 -35.34 98.04 -35 96 C-35.66 96 -36.32 96 -37 96 C-37.16751968 92.87504511 -37.33387058 89.75002908 -37.5 86.625 C-37.54769531 85.73554688 -37.59539062 84.84609375 -37.64453125 83.9296875 C-37.68964844 83.07890625 -37.73476562 82.228125 -37.78125 81.3515625 C-37.82314453 80.56604004 -37.86503906 79.78051758 -37.90820312 78.97119141 C-37.96979795 77.64854076 -38 76.32408408 -38 75 C-38.96873032 73.64377755 -39.97676564 72.31558703 -41 71 C-41.5465625 70.07445312 -42.093125 69.14890625 -42.65625 68.1953125 C-45.4297404 64.41412059 -48.39953668 62.21545398 -52.25 59.625 C-52.8996875 59.17511719 -53.549375 58.72523438 -54.21875 58.26171875 C-55.80583034 57.16476616 -57.40200773 56.08099477 -59 55 C-58.28825423 50.70105556 -57.51615724 48.73478896 -54 46 C-52.33333333 45.66666667 -50.66666667 45.33333333 -49 45 C-46.7914234 43.12491838 -46.7914234 43.12491838 -45 41 C-44.34 40.34 -43.68 39.68 -43 39 C-43.61488281 38.29875 -44.22976562 37.5975 -44.86328125 36.875 C-55.11385033 24.84243406 -55.11385033 24.84243406 -54.94140625 17.5078125 C-54.71890324 15.31016735 -54.41660121 13.16833403 -54 11 C-53.34 11 -52.68 11 -52 11 C-51.79503906 11.75925781 -51.59007812 12.51851563 -51.37890625 13.30078125 C-51.10949219 14.29464844 -50.84007812 15.28851563 -50.5625 16.3125 C-50.29566406 17.29863281 -50.02882812 18.28476562 -49.75390625 19.30078125 C-49.21920575 21.21517526 -48.62855462 23.11433615 -48 25 C-47.34 25 -46.68 25 -46 25 C-46.30035156 24.25234375 -46.60070312 23.5046875 -46.91015625 22.734375 C-47.48056641 21.25710938 -47.48056641 21.25710938 -48.0625 19.75 C-48.44535156 18.77546875 -48.82820312 17.8009375 -49.22265625 16.796875 C-50.01113787 13.95992605 -50.02437812 12.70590448 -49 10 C-49.99 9.67 -50.98 9.34 -52 9 C-52.99 9.495 -52.99 9.495 -54 10 C-53 7 -53 7 -50.890625 5.8671875 C-49.58351562 5.37605469 -49.58351562 5.37605469 -48.25 4.875 C-47.38890625 4.54242188 -46.5278125 4.20984375 -45.640625 3.8671875 C-39.90188846 1.98257284 -35.78364262 1.96809747 -29.9375 3.5625 C-27.58911795 4.09277982 -25.39937543 4.06664932 -23 4 C-23 4.66 -23 5.32 -23 6 C-22.60167969 5.49855469 -22.20335937 4.99710937 -21.79296875 4.48046875 C-20 3 -20 3 -17.73828125 2.92578125 C-16.93777344 3.05339844 -16.13726562 3.18101562 -15.3125 3.3125 C-14.10013672 3.49232422 -14.10013672 3.49232422 -12.86328125 3.67578125 C-12.24839844 3.78277344 -11.63351562 3.88976562 -11 4 C-11 4.33 -11 4.66 -11 5 C-9.02 5.33 -7.04 5.66 -5 6 C-5 5.34 -5 4.68 -5 4 C-3.35 3.34 -1.7 2.68 0 2 C0 1.34 0 0.68 0 0 Z " fill="#9C8D79" transform="translate(274,268)"/>
<path d="M0 0 C2 0 2 0 3.4375 1.3125 C4.2109375 2.1478125 4.2109375 2.1478125 5 3 C5.53625 3.495 6.0725 3.99 6.625 4.5 C9.16777827 7.27393993 9.52025619 10.75277308 9.47265625 14.41796875 C8.12692118 21.76946361 3.8240343 29.92197759 -1.8125 34.8125 C-5 37 -5 37 -7 38 C-6.96044102 39.92309422 -6.96044102 39.92309422 -6 42 C-3.01647106 43.78379415 -3.01647106 43.78379415 0 45 C0 45.33 0 45.66 0 46 C-5.58674804 46.02478762 -11.1734638 46.04290152 -16.76025391 46.05493164 C-18.65934812 46.05994885 -20.5584385 46.06676411 -22.45751953 46.07543945 C-25.19304352 46.08761963 -27.92851626 46.09325454 -30.6640625 46.09765625 C-31.93003769 46.10539818 -31.93003769 46.10539818 -33.22158813 46.11329651 C-37.59835842 46.11370954 -41.69004167 45.88088964 -46 45 C-45.319375 44.4225 -44.63875 43.845 -43.9375 43.25 C-41.75699023 41.24864229 -41.75699023 41.24864229 -42.125 39.0625 C-42.74790396 37.59422637 -43.39661186 36.13678596 -44.0625 34.6875 C-45 32 -45 32 -44.8125 28.8125 C-45.04205999 24.14478018 -46.66291803 21.40112008 -49.00390625 17.4296875 C-50.20252186 14.50600551 -49.88616703 12.98219084 -49 10 C-49.99 9.67 -50.98 9.34 -52 9 C-52.99 9.495 -52.99 9.495 -54 10 C-53 7 -53 7 -50.890625 5.8671875 C-50.01921875 5.53976562 -49.1478125 5.21234375 -48.25 4.875 C-47.38890625 4.54242188 -46.5278125 4.20984375 -45.640625 3.8671875 C-39.90188846 1.98257284 -35.78364262 1.96809747 -29.9375 3.5625 C-27.58911795 4.09277982 -25.39937543 4.06664932 -23 4 C-23 4.66 -23 5.32 -23 6 C-22.60167969 5.49855469 -22.20335937 4.99710937 -21.79296875 4.48046875 C-20 3 -20 3 -17.73828125 2.92578125 C-16.93777344 3.05339844 -16.13726562 3.18101562 -15.3125 3.3125 C-14.10013672 3.49232422 -14.10013672 3.49232422 -12.86328125 3.67578125 C-12.24839844 3.78277344 -11.63351562 3.88976562 -11 4 C-11 4.33 -11 4.66 -11 5 C-9.02 5.33 -7.04 5.66 -5 6 C-5 5.34 -5 4.68 -5 4 C-3.35 3.34 -1.7 2.68 0 2 C0 1.34 0 0.68 0 0 Z " fill="#A19380" transform="translate(274,268)"/>
<path d="M0 0 C1.98 0.66 3.96 1.32 6 2 C6 2.66 6 3.32 6 4 C8.22942748 3.85820962 10.45853628 3.71140302 12.6875 3.5625 C13.92886719 3.48128906 15.17023438 3.40007812 16.44921875 3.31640625 C19.39682862 3.05374795 22.15218751 2.79781018 25 2 C25.33 1.34 25.66 0.68 26 0 C25.67 2.64 25.34 5.28 25 8 C25.99 8.33 26.98 8.66 28 9 C28 9.99 28 10.98 28 12 C28.99 12.33 29.98 12.66 31 13 C31 14.65 31 16.3 31 18 C25.03840172 21.37300956 19.17179622 22.36580853 12.40234375 22.62109375 C11.54456833 22.65834564 10.68679291 22.69559753 9.80302429 22.73397827 C-1.4354921 23.16763825 -12.68283381 23.14946427 -23.92797852 23.13037109 C-27.69226072 23.1249932 -31.45642443 23.13035976 -35.22070312 23.13671875 C-69.37636938 23.14964958 -69.37636938 23.14964958 -81 20 C-80.34 19.67 -79.68 19.34 -79 19 C-79 18.34 -79 17.68 -79 17 C-81.31 16.67 -83.62 16.34 -86 16 C-86.33 16.66 -86.66 17.32 -87 18 C-87.33 17.67 -87.66 17.34 -88 17 C-89.99958364 16.95919217 -92.00045254 16.95745644 -94 17 C-94.33 15.68 -94.66 14.36 -95 13 C-93.76032471 13.0714624 -92.52064941 13.1429248 -91.2434082 13.21655273 C-77.5477097 13.96191223 -63.90080237 14.12160426 -50.1875 14.0625 C-48.11523548 14.05746511 -46.04296975 14.05290578 -43.97070312 14.04882812 C-38.98043782 14.0380027 -33.99023306 14.02085279 -29 14 C-29.68602798 13.96463638 -30.37205597 13.92927277 -31.07887268 13.89283752 C-38.2332031 13.52342064 -45.38729267 13.14957925 -52.54125977 12.77319336 C-55.2094822 12.63303776 -57.87778151 12.49470863 -60.54614258 12.35717773 C-64.38639186 12.15904977 -68.22640969 11.95686636 -72.06640625 11.75390625 C-73.84961021 11.66321617 -73.84961021 11.66321617 -75.6688385 11.57069397 C-81.16790546 11.27633275 -86.56733187 10.91406797 -92 10 C-91.67 9.01 -91.34 8.02 -91 7 C-90.34 7 -89.68 7 -89 7 C-88.67 5.68 -88.34 4.36 -88 3 C-84.535 2.505 -84.535 2.505 -81 2 C-81 2.66 -81 3.32 -81 4 C-79.35 4 -77.7 4 -76 4 C-76 3.34 -76 2.68 -76 2 C-75.21496094 2.13277344 -74.42992187 2.26554687 -73.62109375 2.40234375 C-68.08812013 3.33242643 -62.55926159 4.24191887 -57 5 C-57 4.01 -57 3.02 -57 2 C-55.68 2 -54.36 2 -53 2 C-52.505 2.99 -52.505 2.99 -52 4 C-51.21351074 3.99476318 -50.42702148 3.98952637 -49.61669922 3.98413086 C-46.03614101 3.9632799 -42.45559562 3.95031399 -38.875 3.9375 C-37.6375 3.92912109 -36.4 3.92074219 -35.125 3.91210938 C-33.92617187 3.90888672 -32.72734375 3.90566406 -31.4921875 3.90234375 C-30.39245605 3.89710693 -29.29272461 3.89187012 -28.15966797 3.88647461 C-25.02381895 3.9991442 -22.07940617 4.41373624 -19 5 C-19 4.34 -19 3.68 -19 3 C-18.34 3 -17.68 3 -17 3 C-17 3.66 -17 4.32 -17 5 C-15.8553125 4.505 -15.8553125 4.505 -14.6875 4 C-12 3 -12 3 -9 3 C-9 3.66 -9 4.32 -9 5 C-7.68 5 -6.36 5 -5 5 C-5 4.34 -5 3.68 -5 3 C-3.68 3 -2.36 3 -1 3 C-0.67 2.01 -0.34 1.02 0 0 Z " fill="#A49784" transform="translate(281,434)"/>
<path d="M0 0 C7.18524633 5.68503006 11.61496911 12.93668695 12.84375 22.01953125 C13.18308658 29.58345308 10.72570846 35.88285132 5.96484375 41.71875 C3.41446238 44.20761939 0.7548268 46.50337885 -2.03515625 48.71875 C-1.70515625 49.70875 -1.37515625 50.69875 -1.03515625 51.71875 C1.84648552 53.05193241 1.84648552 53.05193241 5.27734375 54.15625 C13.23896609 56.85767393 13.23896609 56.85767393 15.96484375 60.71875 C16.04296875 63.21875 16.04296875 63.21875 14.96484375 65.71875 C12.63671875 67.78125 12.63671875 67.78125 9.71484375 69.71875 C2.13054067 74.9679119 -3.73661652 80.16617062 -5.8984375 89.41015625 C-7.44705717 102.75521789 -8.67971491 117.50159499 -0.390625 129 C1.32128968 130.99909862 3.0918086 132.87080014 4.96484375 134.71875 C5.48046875 135.24726563 5.99609375 135.77578125 6.52734375 136.3203125 C7.65701669 137.46924123 8.80811078 138.59706955 9.96484375 139.71875 C4.33403564 139.10180929 2.33371795 136.35988182 -1.171875 132.1875 C-7.70713228 123.52862662 -9.37670536 114.42685409 -9.22265625 103.78125 C-9.22201172 102.93884766 -9.22136719 102.09644531 -9.22070312 101.22851562 C-9.14789901 90.7204545 -8.89003787 82.62272916 -1.171875 74.83984375 C10.08592906 64.71875 10.08592906 64.71875 13.96484375 64.71875 C13.06433179 61.38685576 12.40022617 60.00174857 9.46484375 58.09375 C5.73735213 56.62937829 2.00237347 55.50154206 -1.86328125 54.46484375 C-4.03515625 53.71875 -4.03515625 53.71875 -6.03515625 51.71875 C-5.88671875 49.7421875 -5.88671875 49.7421875 -5.03515625 47.71875 C-3.43359375 46.5078125 -3.43359375 46.5078125 -1.41015625 45.34375 C4.91443819 40.86858571 8.95637695 32.74544884 10.46875 25.20703125 C10.57670083 21.42875216 9.87842492 17.97183799 7.96484375 14.71875 C5.9474917 13.37464738 5.9474917 13.37464738 3.96484375 12.71875 C3.96484375 12.05875 3.96484375 11.39875 3.96484375 10.71875 C3.30484375 10.71875 2.64484375 10.71875 1.96484375 10.71875 C1.96484375 11.37875 1.96484375 12.03875 1.96484375 12.71875 C0.31484375 13.37875 -1.33515625 14.03875 -3.03515625 14.71875 C-3.03515625 15.37875 -3.03515625 16.03875 -3.03515625 16.71875 C-5.34515625 16.71875 -7.65515625 16.71875 -10.03515625 16.71875 C-10.03515625 16.38875 -10.03515625 16.05875 -10.03515625 15.71875 C-12.67515625 15.05875 -15.31515625 14.39875 -18.03515625 13.71875 C-18.53015625 15.20375 -18.53015625 15.20375 -19.03515625 16.71875 C-19.69515625 16.71875 -20.35515625 16.71875 -21.03515625 16.71875 C-21.03515625 16.05875 -21.03515625 15.39875 -21.03515625 14.71875 C-22.06640625 14.925 -23.09765625 15.13125 -24.16015625 15.34375 C-28.24780741 15.73932914 -30.24394105 15.0900406 -34.03515625 13.71875 C-37.20298825 13.38426741 -37.20298825 13.38426741 -40.03515625 13.71875 C-40.69515625 14.37875 -41.35515625 15.03875 -42.03515625 15.71875 C-43.55572243 16.31709554 -45.10127713 16.85381656 -46.66015625 17.34375 C-47.88605469 17.73433594 -47.88605469 17.73433594 -49.13671875 18.1328125 C-49.76320312 18.32617188 -50.3896875 18.51953125 -51.03515625 18.71875 C-50.39578125 18.821875 -49.75640625 18.925 -49.09765625 19.03125 C-48.41703125 19.258125 -47.73640625 19.485 -47.03515625 19.71875 C-46.03515625 22.71875 -46.03515625 22.71875 -47.03515625 25.71875 C-46.07069765 28.06699702 -45.07001502 30.40066636 -44.03515625 32.71875 C-44.03515625 33.70875 -44.03515625 34.69875 -44.03515625 35.71875 C-44.69515625 35.71875 -45.35515625 35.71875 -46.03515625 35.71875 C-48.26171789 30.97520564 -49.49663657 26.99624285 -50.03515625 21.71875 C-50.69515625 21.71875 -51.35515625 21.71875 -52.03515625 21.71875 C-52.69122057 32.05176301 -49.22012837 38.64392528 -43.03515625 46.71875 C-48.72317078 44.24943916 -51.8099921 39.71555439 -54.12109375 34.0625 C-56.27933255 27.01357327 -57.00509518 20.9946375 -53.8671875 14.18359375 C-48.0173038 3.78554309 -41.45844476 -1.63904207 -30.03515625 -5.28125 C-19.77568045 -7.45152373 -8.91942381 -5.61529945 0 0 Z " fill="#E2CEB1" transform="translate(272.03515625,257.28125)"/>
<path d="M0 0 C1.98 0.66 3.96 1.32 6 2 C6 2.66 6 3.32 6 4 C8.22942748 3.85820962 10.45853628 3.71140302 12.6875 3.5625 C13.92886719 3.48128906 15.17023438 3.40007812 16.44921875 3.31640625 C19.39682862 3.05374795 22.15218751 2.79781018 25 2 C25.33 1.34 25.66 0.68 26 0 C26 3.63 26 7.26 26 11 C22.74782649 12.62608675 19.17058062 12.13814717 15.59741211 12.12939453 C14.72709854 12.13114685 13.85678497 12.13289917 12.96009827 12.13470459 C10.06582677 12.13912488 7.17161593 12.13618068 4.27734375 12.1328125 C2.25826506 12.1334864 0.23918645 12.13445715 -1.77989197 12.13571167 C-6.02782966 12.13718962 -10.27574638 12.13503435 -14.52368164 12.13037109 C-19.9229583 12.12472827 -25.32218465 12.12791717 -30.72145939 12.13394356 C-34.90238306 12.13759348 -39.08329523 12.13638953 -43.26421928 12.13381577 C-45.2513778 12.13315582 -47.23853742 12.1339417 -49.22569466 12.13629532 C-77.93547292 12.16279149 -77.93547292 12.16279149 -92 10 C-91.67 9.01 -91.34 8.02 -91 7 C-90.34 7 -89.68 7 -89 7 C-88.67 5.68 -88.34 4.36 -88 3 C-84.535 2.505 -84.535 2.505 -81 2 C-81 2.66 -81 3.32 -81 4 C-79.35 4 -77.7 4 -76 4 C-76 3.34 -76 2.68 -76 2 C-75.21496094 2.13277344 -74.42992187 2.26554687 -73.62109375 2.40234375 C-68.08812013 3.33242643 -62.55926159 4.24191887 -57 5 C-57 4.01 -57 3.02 -57 2 C-55.68 2 -54.36 2 -53 2 C-52.505 2.99 -52.505 2.99 -52 4 C-51.21351074 3.99476318 -50.42702148 3.98952637 -49.61669922 3.98413086 C-46.03614101 3.9632799 -42.45559562 3.95031399 -38.875 3.9375 C-37.6375 3.92912109 -36.4 3.92074219 -35.125 3.91210938 C-33.92617187 3.90888672 -32.72734375 3.90566406 -31.4921875 3.90234375 C-30.39245605 3.89710693 -29.29272461 3.89187012 -28.15966797 3.88647461 C-25.02381895 3.9991442 -22.07940617 4.41373624 -19 5 C-19 4.34 -19 3.68 -19 3 C-18.34 3 -17.68 3 -17 3 C-17 3.66 -17 4.32 -17 5 C-15.8553125 4.505 -15.8553125 4.505 -14.6875 4 C-12 3 -12 3 -9 3 C-9 3.66 -9 4.32 -9 5 C-7.68 5 -6.36 5 -5 5 C-5 4.34 -5 3.68 -5 3 C-3.68 3 -2.36 3 -1 3 C-0.67 2.01 -0.34 1.02 0 0 Z " fill="#776B59" transform="translate(281,434)"/>
<path d="M0 0 C-2.45230311 2.96857745 -4.31844815 3.26368963 -8 4 C-10.66879905 6.00159929 -11.43877278 7.74488211 -12 11 C-11.278125 11.25394531 -10.55625 11.50789063 -9.8125 11.76953125 C-2.06492826 15.15909389 3.37348817 21.13033092 8 28 C8.99 28.33 9.98 28.66 11 29 C11.0270043 30.45823212 11.04639787 31.91660675 11.0625 33.375 C11.07410156 34.18710937 11.08570313 34.99921875 11.09765625 35.8359375 C11 38 11 38 10 40 C9.92934383 42.04055005 9.91578024 44.08334257 9.9375 46.125 C9.94652344 47.22070312 9.95554688 48.31640625 9.96484375 49.4453125 C9.97644531 50.28835938 9.98804688 51.13140625 10 52 C10.66 52 11.32 52 12 52 C12 53.98 12 55.96 12 58 C11.01 58.495 11.01 58.495 10 59 C9.67 58.01 9.34 57.02 9 56 C8.7525 57.27875 8.505 58.5575 8.25 59.875 C6.47667019 67.77437824 3.55361982 74.70913814 -1.14453125 81.30859375 C-1.56798828 82.14583984 -1.56798828 82.14583984 -2 83 C-1.67 83.99 -1.34 84.98 -1 86 C0.32 86 1.64 86 3 86 C3 86.99 3 87.98 3 89 C-1.95 89 -6.9 89 -12 89 C-12 90.32 -12 91.64 -12 93 C-0.12 93.33 11.76 93.66 24 94 C24 94.33 24 94.66 24 95 C22.02 95 20.04 95 18 95 C17.505 96.485 17.505 96.485 17 98 C15.0625 98.75 15.0625 98.75 13 99 C12.01 98.505 12.01 98.505 11 98 C11 98.66 11 99.32 11 100 C16.28 100.66 21.56 101.32 27 102 C27.33 102.99 27.66 103.98 28 105 C19.8731469 108.4121776 13.5098969 107.8540371 5 106 C5 102.79604584 5.74335022 100.90600261 7 98 C5.72125 98.020625 4.4425 98.04125 3.125 98.0625 C-0.75 98.125 -0.75 98.125 -3 97 C-4.70702735 96.93003986 -6.41668003 96.91559846 -8.125 96.9375 C-9.03507812 96.94652344 -9.94515625 96.95554687 -10.8828125 96.96484375 C-11.93082031 96.98224609 -11.93082031 96.98224609 -13 97 C-13 96.01 -13 95.02 -13 94 C-14.134375 94.639375 -15.26875 95.27875 -16.4375 95.9375 C-17.07558594 96.29714844 -17.71367187 96.65679687 -18.37109375 97.02734375 C-19.97878146 97.8972513 -19.97878146 97.8972513 -21 99 C-22.546875 99.0309375 -22.546875 99.0309375 -24.125 99.0625 C-29.63703591 100.39605708 -32.01976937 103.28707715 -35 108 C-37.70050863 114.29800599 -38.9811174 120.31372879 -37 127 C-40 125 -40 125 -40.46875 122.75 C-40.57158263 113.70072825 -37.98971464 107.01423989 -31.9375 100.25 C-28.07975532 96.61367113 -23.52342677 94.67792818 -18.671875 92.65234375 C-15.31052866 90.57361641 -14.68197862 88.5201091 -13 85 C-10.51171875 82.796875 -10.51171875 82.796875 -7.6875 80.75 C0.52873583 74.27265006 4.42326698 67.24028756 6 57 C7.49239969 39.80699802 7.49239969 39.80699802 2 24 C-1.84363624 19.72599522 -6.23789177 16.48396589 -11 13.3125 C-14 11 -14 11 -15.1875 8.4375 C-15 6 -15 6 -13.5625 3.875 C-9.39934304 0.82878759 -5.07486372 -1.69162124 0 0 Z " fill="#F2EEE7" transform="translate(227,312)"/>
<path d="M0 0 C0.66 0 1.32 0 2 0 C2.20496094 0.75925781 2.40992188 1.51851563 2.62109375 2.30078125 C2.89050781 3.29464844 3.15992188 4.28851563 3.4375 5.3125 C3.83775391 6.79169922 3.83775391 6.79169922 4.24609375 8.30078125 C4.78079425 10.21517526 5.37144538 12.11433615 6 14 C6.66 14 7.32 14 8 14 C8.33 13.34 8.66 12.68 9 12 C9.66255511 14.8158592 9.99364114 17.15579219 9.875 20.0625 C9.72242848 23.04026892 9.72242848 23.04026892 11.5625 25.0625 C13 27 13 27 12.75 29.6875 C12 32 12 32 11 33 C13.81130746 33.93710249 15.36195766 34.10078873 18.25268555 34.03417969 C19.53498299 34.0098587 19.53498299 34.0098587 20.84318542 33.98504639 C21.76505142 33.96419983 22.68691742 33.94335327 23.63671875 33.921875 C25.59568637 33.89460231 27.55467204 33.86860129 29.51367188 33.84375 C32.5970921 33.80062181 35.67957143 33.75018633 38.76245117 33.67773438 C41.7415185 33.61075141 44.71957297 33.57625009 47.69921875 33.546875 C48.61096359 33.51793152 49.52270844 33.48898804 50.46208191 33.45916748 C56.94150459 33.43233556 60.88961396 35.03125471 66 39 C65.67 40.32 65.34 41.64 65 43 C65 42.01 65 41.02 65 40 C64.03860107 40.14219971 63.07720215 40.28439941 62.08666992 40.4309082 C52.81935859 41.73461583 43.76225205 42.28994564 34.40795898 42.20581055 C32.30244867 42.18741217 30.1973799 42.18530315 28.09179688 42.18554688 C19.69297475 42.16316567 11.36607786 41.78181758 3 41 C3 41.66 3 42.32 3 43 C1.68 43 0.36 43 -1 43 C-0.67 43.99 -0.34 44.98 0 46 C-1.65 45.34 -3.3 44.68 -5 44 C-4.6567585 40.91082652 -4.17806461 39.22894021 -2.25 36.75 C0.27704173 34.7845231 1.91467617 34.61706477 5 34 C7.2085766 32.12491838 7.2085766 32.12491838 9 30 C9.66 29.34 10.32 28.68 11 28 C10.38511719 27.29875 9.77023438 26.5975 9.13671875 25.875 C-1.11385033 13.84243406 -1.11385033 13.84243406 -0.94140625 6.5078125 C-0.71890324 4.31016735 -0.41660121 2.16833403 0 0 Z " fill="#D3C1A6" transform="translate(220,279)"/>
<path d="M0 0 C7.18524633 5.68503006 11.61496911 12.93668695 12.84375 22.01953125 C13.18308658 29.58345308 10.72570846 35.88285132 5.96484375 41.71875 C3.41446238 44.20761939 0.7548268 46.50337885 -2.03515625 48.71875 C-1.70515625 49.70875 -1.37515625 50.69875 -1.03515625 51.71875 C1.84648552 53.05193241 1.84648552 53.05193241 5.27734375 54.15625 C13.23896609 56.85767393 13.23896609 56.85767393 15.96484375 60.71875 C16.04296875 63.21875 16.04296875 63.21875 14.96484375 65.71875 C12.63671875 67.78125 12.63671875 67.78125 9.71484375 69.71875 C2.13054067 74.9679119 -3.73661652 80.16617062 -5.8984375 89.41015625 C-7.44705717 102.75521789 -8.67971491 117.50159499 -0.390625 129 C1.32128968 130.99909862 3.0918086 132.87080014 4.96484375 134.71875 C5.48046875 135.24726563 5.99609375 135.77578125 6.52734375 136.3203125 C7.65701669 137.46924123 8.80811078 138.59706955 9.96484375 139.71875 C4.33403564 139.10180929 2.33371795 136.35988182 -1.171875 132.1875 C-7.70713228 123.52862662 -9.37670536 114.42685409 -9.22265625 103.78125 C-9.22201172 102.93884766 -9.22136719 102.09644531 -9.22070312 101.22851562 C-9.14789901 90.7204545 -8.89003787 82.62272916 -1.171875 74.83984375 C10.08592906 64.71875 10.08592906 64.71875 13.96484375 64.71875 C13.06433179 61.38685576 12.40022617 60.00174857 9.46484375 58.09375 C5.73735213 56.62937829 2.00237347 55.50154206 -1.86328125 54.46484375 C-4.03515625 53.71875 -4.03515625 53.71875 -6.03515625 51.71875 C-5.88671875 49.7421875 -5.88671875 49.7421875 -5.03515625 47.71875 C-3.43359375 46.5078125 -3.43359375 46.5078125 -1.41015625 45.34375 C4.94104527 40.84975903 8.82101526 32.82453513 10.50390625 25.3125 C10.80432467 18.4301871 7.57260564 11.66178246 3.45703125 6.31640625 C-2.71259984 -0.28929825 -11.51488292 -2.66294822 -20.30078125 -3.49609375 C-24.91720242 -3.57788074 -29.47592706 -2.93256846 -34.03515625 -2.28125 C-34.03515625 -1.62125 -34.03515625 -0.96125 -34.03515625 -0.28125 C-35.00453125 -0.013125 -35.97390625 0.255 -36.97265625 0.53125 C-37.98328125 0.923125 -38.99390625 1.315 -40.03515625 1.71875 C-40.36515625 2.70875 -40.69515625 3.69875 -41.03515625 4.71875 C-42.72425393 6.30624782 -44.51917568 7.69266918 -46.34375 9.12109375 C-48.17406708 10.84996139 -49.04745423 12.42072972 -50.03515625 14.71875 C-50.69515625 14.71875 -51.35515625 14.71875 -52.03515625 14.71875 C-54.28818168 23.44922353 -53.22751617 30.7786744 -49.03515625 38.71875 C-47.17750924 41.51428221 -45.19039871 44.14682734 -43.03515625 46.71875 C-48.72317078 44.24943916 -51.8099921 39.71555439 -54.12109375 34.0625 C-56.27933255 27.01357327 -57.00509518 20.9946375 -53.8671875 14.18359375 C-48.0173038 3.78554309 -41.45844476 -1.63904207 -30.03515625 -5.28125 C-19.77568045 -7.45152373 -8.91942381 -5.61529945 0 0 Z " fill="#FAF6ED" transform="translate(272.03515625,257.28125)"/>
<path d="M0 0 C0 3 0 3 -1 5 C0.92005859 5.07347656 0.92005859 5.07347656 2.87890625 5.1484375 C12.60501588 5.53274916 22.32726594 5.95340966 32.046875 6.4765625 C53.69478684 7.63861443 75.32638293 8.49819202 97 9 C97 9.33 97 9.66 97 10 C86.93200068 10.04679114 76.86402815 10.08210272 66.79594135 10.10362434 C62.1185599 10.11396496 57.441254 10.12794116 52.76391602 10.15087891 C12.98000203 10.34106813 12.98000203 10.34106813 -4 8 C-3.67 8.99 -3.34 9.98 -3 11 C-1.62714844 10.98259766 -1.62714844 10.98259766 -0.2265625 10.96484375 C1.55621094 10.95130859 1.55621094 10.95130859 3.375 10.9375 C4.55835938 10.92589844 5.74171875 10.91429687 6.9609375 10.90234375 C10 11 10 11 12 12 C12 12.66 12 13.32 12 14 C26.30855793 19.38228113 44.48953243 17.15579054 59.53686523 17.13037109 C63.29480043 17.12502518 67.05261536 17.13033814 70.81054688 17.13671875 C81.68113777 17.14052344 92.54165989 17.09006932 103.40234375 16.58984375 C104.1936116 16.55581451 104.98487946 16.52178528 105.80012512 16.48672485 C111.50276435 16.17946004 116.72677026 15.20643034 122 13 C122 11.35 122 9.7 122 8 C120.02 8 118.04 8 116 8 C116.99 7.67 117.98 7.34 119 7 C118.505 5.02 118.505 5.02 118 3 C121.16115776 4.36983503 121.9927092 4.9890638 124 8 C123.86562768 11.22493574 123.73014124 13.233821 121.46166992 15.61425781 C118.01240413 17.55594507 114.6112616 17.83665946 110.73828125 18.171875 C109.87487625 18.25145447 109.01147125 18.33103394 108.12190247 18.4130249 C95.91578371 19.40434332 83.66063951 19.3003786 71.4230957 19.26074219 C67.92571983 19.24947007 64.42865257 19.25605634 60.93128777 19.26761627 C46.21455511 19.30884767 31.55384968 19.02258248 16.86328125 18.109375 C14.92584297 17.99314789 14.92584297 17.99314789 12.94926453 17.87457275 C-1.03145144 16.91519262 -1.03145144 16.91519262 -5.9375 13.75 C-7.59191869 11.0250751 -7.44509699 9.11567893 -7 6 C-4.88093452 3.36943595 -2.81981355 1.8798757 0 0 Z " fill="#D5C4AA" transform="translate(190,439)"/>
<path d="M0 0 C0.33 0.66 0.66 1.32 1 2 C6.54869432 3.15974284 12.04930601 3.1365588 17.69897461 3.11352539 C18.64609314 3.11367142 19.59321167 3.11381744 20.56903076 3.1139679 C23.68015889 3.1132747 26.79122615 3.10551015 29.90234375 3.09765625 C32.06710274 3.09578996 34.23186214 3.09436705 36.3966217 3.09336853 C42.07981544 3.08955994 47.7629834 3.07974385 53.44616699 3.06866455 C59.25121716 3.05841473 65.05627151 3.05386327 70.86132812 3.04882812 C82.2408967 3.03812006 93.62044621 3.02106361 105 3 C104.67 3.66 104.34 4.32 104 5 C96.10268389 6.59901728 87.93022612 6.12601812 79.90625 6.09765625 C78.34826707 6.09578842 76.79028354 6.09436624 75.2322998 6.09336853 C71.15529729 6.08957208 67.07833107 6.0797667 63.00134277 6.06866455 C58.83162934 6.05838831 54.66190998 6.05385766 50.4921875 6.04882812 C42.32810845 6.03814154 34.16405875 6.02110009 26 6 C26 6.66 26 7.32 26 8 C26.7748877 7.99476318 27.54977539 7.98952637 28.34814453 7.98413086 C56.76412405 7.81727622 56.76412405 7.81727622 68 9 C68 9.33 68 9.66 68 10 C60.47844177 10.02564505 52.95689508 10.04298881 45.43530273 10.05493164 C42.88386616 10.05991774 40.33243237 10.06670902 37.78100586 10.07543945 C3.37647494 10.19009874 3.37647494 10.19009874 -11 8 C-10.67 7.01 -10.34 6.02 -10 5 C-9.34 5 -8.68 5 -8 5 C-7.67 3.68 -7.34 2.36 -7 1 C-2.25 0 -2.25 0 0 0 Z " fill="#726756" transform="translate(200,436)"/>
<path d="M0 0 C1.23967529 0.0714624 2.47935059 0.1429248 3.7565918 0.21655273 C17.4522903 0.96191223 31.09919763 1.12160426 44.8125 1.0625 C46.88476452 1.05746511 48.95703025 1.05290578 51.02929688 1.04882812 C56.01956218 1.0380027 61.00976694 1.02085279 66 1 C66 0.67 66 0.34 66 0 C83.16 0 100.32 0 118 0 C118 0.66 118 1.32 118 2 C114.99686252 3.50156874 112.20932478 3.09281204 108.875 3.0625 C107.59367187 3.05347656 106.31234375 3.04445313 104.9921875 3.03515625 C103.51105469 3.01775391 103.51105469 3.01775391 102 3 C102 3.99 102 4.98 102 6 C101.01 6 100.02 6 99 6 C99 5.34 99 4.68 99 4 C98.34 4 97.68 4 97 4 C97 4.66 97 5.32 97 6 C91.48723898 6.12529002 91.48723898 6.12529002 88.8125 5.4375 C86.7824796 4.77806294 86.7824796 4.77806294 84 6 C84 5.34 84 4.68 84 4 C83.2575 4.350625 82.515 4.70125 81.75 5.0625 C78.69621461 6.1035632 77.98214523 5.8154379 75 5 C72.16308375 4.91636026 69.35182011 4.88378321 66.515625 4.90234375 C65.70003113 4.9037587 64.88443726 4.90517365 64.04412842 4.90663147 C61.44604788 4.91221697 58.84805437 4.92476679 56.25 4.9375 C54.48567833 4.94251688 52.72135531 4.94707946 50.95703125 4.95117188 C46.63798744 4.96218165 42.31900846 4.97943631 38 5 C38 4.34 38 3.68 38 3 C29.585 3.495 29.585 3.495 21 4 C21 4.66 21 5.32 21 6 C37.3344199 8.99050103 54.51820209 8.28477797 71.0625 8.5625 C73.49024004 8.60580327 75.9179745 8.6494208 78.34570312 8.69335938 C84.23040937 8.79919121 90.11517234 8.90116228 96 9 C96 9.33 96 9.66 96 10 C88.19361076 10.02563016 80.3872326 10.04298279 72.58081055 10.05493164 C69.93235255 10.05934841 67.28395075 10.06671281 64.63549805 10.07543945 C25.82864572 10.19998476 25.82864572 10.19998476 14 7 C14.66 6.67 15.32 6.34 16 6 C16 5.34 16 4.68 16 4 C13.69 3.67 11.38 3.34 9 3 C8.67 3.66 8.34 4.32 8 5 C7.67 4.67 7.34 4.34 7 4 C5.00041636 3.95919217 2.99954746 3.95745644 1 4 C0.67 2.68 0.34 1.36 0 0 Z " fill="#C4B7A4" transform="translate(186,447)"/>
<path d="M0 0 C-0.375 1.9375 -0.375 1.9375 -1 4 C-1.66 4.33 -2.32 4.66 -3 5 C-2.96044102 6.92309422 -2.96044102 6.92309422 -2 9 C0.98352894 10.78379415 0.98352894 10.78379415 4 12 C4 12.33 4 12.66 4 13 C-1.58674804 13.02478762 -7.1734638 13.04290152 -12.76025391 13.05493164 C-14.65934812 13.05994885 -16.5584385 13.06676411 -18.45751953 13.07543945 C-21.19304352 13.08761963 -23.92851626 13.09325454 -26.6640625 13.09765625 C-27.93003769 13.10539818 -27.93003769 13.10539818 -29.22158813 13.11329651 C-33.59835842 13.11370954 -37.69004167 12.88088964 -42 12 C-39.80873464 10.21452452 -37.95659637 8.98284043 -35.3125 7.9375 C-32.84061395 7.23196154 -32.84061395 7.23196154 -32 5 C-33.32 5 -34.64 5 -36 5 C-36 4.01 -36 3.02 -36 2 C-23.93629525 0.51686616 -12.15448493 -0.28012897 0 0 Z " fill="#675D51" transform="translate(270,301)"/>
<path d="M0 0 C0 3 0 3 -1.0625 5.5625 C-1.371875 6.366875 -1.68125 7.17125 -2 8 C-1.67 8.66 -1.34 9.32 -1 10 C0.32 10 1.64 10 3 10 C3 10.99 3 11.98 3 13 C-1.95 13 -6.9 13 -12 13 C-12 14.32 -12 15.64 -12 17 C-0.12 17.33 11.76 17.66 24 18 C24 18.33 24 18.66 24 19 C22.02 19 20.04 19 18 19 C17.505 20.485 17.505 20.485 17 22 C15.0625 22.75 15.0625 22.75 13 23 C12.34 22.67 11.68 22.34 11 22 C11 22.66 11 23.32 11 24 C16.28 24.66 21.56 25.32 27 26 C27.495 27.485 27.495 27.485 28 29 C19.8731469 32.4121776 13.5098969 31.8540371 5 30 C5 26.79604584 5.74335022 24.90600261 7 22 C5.081875 22.0309375 5.081875 22.0309375 3.125 22.0625 C-0.75 22.125 -0.75 22.125 -3 21 C-4.70702735 20.93003986 -6.41668003 20.91559846 -8.125 20.9375 C-9.03507813 20.94652344 -9.94515625 20.95554687 -10.8828125 20.96484375 C-11.93082031 20.98224609 -11.93082031 20.98224609 -13 21 C-13 20.01 -13 19.02 -13 18 C-13.99 17.67 -14.98 17.34 -16 17 C-12.16219538 9.93035991 -6.00961051 5.17452815 0 0 Z " fill="#CFBCA1" transform="translate(227,388)"/>
<path d="M0 0 C2 0 2 0 3.5 1.4375 C3.995 1.953125 4.49 2.46875 5 3 C5.66 3.33 6.32 3.66 7 4 C7 4.66 7 5.32 7 6 C5.1746875 6.2165625 5.1746875 6.2165625 3.3125 6.4375 C2.58289063 6.53289062 1.85328125 6.62828125 1.1015625 6.7265625 C-0.53427304 6.93940356 -2.17296557 7.13032951 -3.8125 7.3125 C-6.63001242 8.1980039 -7.48479742 9.52782737 -9 12 C-8.34 12 -7.68 12 -7 12 C-7 13.32 -7 14.64 -7 16 C-9.31 16 -11.62 16 -14 16 C-14.125 9.375 -14.125 9.375 -13 6 C-13.598125 6.309375 -14.19625 6.61875 -14.8125 6.9375 C-19.42629482 9.17848606 -19.42629482 9.17848606 -22.8125 8.125 C-23.864375 7.75375 -24.91625 7.3825 -26 7 C-27.99369031 6.63079809 -29.99279077 6.28674418 -32 6 C-31.67 6.99 -31.34 7.98 -31 9 C-32.32 9 -33.64 9 -35 9 C-34.67 10.98 -34.34 12.96 -34 15 C-34.66 15 -35.32 15 -36 15 C-36 13.02 -36 11.04 -36 9 C-40.4571874 9.26218749 -42.51522698 9.57711289 -45.9375 12.5625 C-46.618125 13.366875 -47.29875 14.17125 -48 15 C-47.34 15.33 -46.68 15.66 -46 16 C-46.66 17.32 -47.32 18.64 -48 20 C-50.42857143 13.71428571 -50.42857143 13.71428571 -49 10 C-49.99 9.67 -50.98 9.34 -52 9 C-52.99 9.495 -52.99 9.495 -54 10 C-53 7 -53 7 -50.890625 5.8671875 C-50.01921875 5.53976562 -49.1478125 5.21234375 -48.25 4.875 C-47.38890625 4.54242188 -46.5278125 4.20984375 -45.640625 3.8671875 C-39.90188846 1.98257284 -35.78364262 1.96809747 -29.9375 3.5625 C-27.58911795 4.09277982 -25.39937543 4.06664932 -23 4 C-23 4.66 -23 5.32 -23 6 C-22.60167969 5.49855469 -22.20335937 4.99710937 -21.79296875 4.48046875 C-20 3 -20 3 -17.73828125 2.92578125 C-16.93777344 3.05339844 -16.13726562 3.18101562 -15.3125 3.3125 C-14.10013672 3.49232422 -14.10013672 3.49232422 -12.86328125 3.67578125 C-12.24839844 3.78277344 -11.63351562 3.88976562 -11 4 C-11 4.33 -11 4.66 -11 5 C-9.02 5.33 -7.04 5.66 -5 6 C-5 5.34 -5 4.68 -5 4 C-3.35 3.34 -1.7 2.68 0 2 C0 1.34 0 0.68 0 0 Z " fill="#C1AF96" transform="translate(274,268)"/>
<path d="M0 0 C0.33 0 0.66 0 1 0 C0.89916972 4.94068385 0.18246905 7.2374674 -3.375 10.75 C-4.57489593 11.84267119 -5.78296168 12.92645528 -7 14 C-8.0068102 14.9931431 -9.00915973 15.99092341 -10 17 C-7.44694074 20.04948745 -4.67192893 21.09602718 -1 22.5 C6.25 25.27205882 6.25 25.27205882 8 28 C8.015625 30.4375 8.015625 30.4375 7 33 C4.671875 35.0625 4.671875 35.0625 1.75 37 C-5.83430308 42.2491619 -11.70146027 47.44742062 -13.86328125 56.69140625 C-15.41190092 70.03646789 -16.64455866 84.78284499 -8.35546875 96.28125 C-6.64355407 98.28034862 -4.87303515 100.15205014 -3 102 C-2.484375 102.52851563 -1.96875 103.05703125 -1.4375 103.6015625 C-0.30782706 104.75049123 0.84326703 105.87831955 2 107 C-3.63080811 106.38305929 -5.6311258 103.64113182 -9.13671875 99.46875 C-15.67197603 90.80987662 -17.34154911 81.70810409 -17.1875 71.0625 C-17.18685547 70.22009766 -17.18621094 69.37769531 -17.18554688 68.50976562 C-17.11274276 58.0017045 -16.85488162 49.90397916 -9.13671875 42.12109375 C2.12108531 32 2.12108531 32 6 32 C5.09948804 28.66810576 4.43538242 27.28299857 1.5 25.375 C-2.22749162 23.91062829 -5.96247028 22.78279206 -9.828125 21.74609375 C-12 21 -12 21 -14 19 C-13.859375 17.04296875 -13.859375 17.04296875 -13 15 C-11.328125 13.61328125 -11.328125 13.61328125 -9.25 12.3125 C-4.55979383 9.0310428 -2.36816636 5.12343684 0 0 Z " fill="#F0EDE9" transform="translate(280,290)"/>
<path d="M0 0 C0.33 0.66 0.66 1.32 1 2 C1.7734375 1.98839844 2.546875 1.97679687 3.34375 1.96484375 C9.33936364 1.91290155 15.07302983 2.08815844 21 3 C20.34 4.32 19.68 5.64 19 7 C24.61 7.33 30.22 7.66 36 8 C36 6.68 36 5.36 36 4 C35.34 4 34.68 4 34 4 C33.505 2.02 33.505 2.02 33 0 C33.66 0 34.32 0 35 0 C36.64772007 2.3727169 37.86765311 4.33826554 38.4375 7.1875 C38.8486428 9.21995468 38.8486428 9.21995468 41.0625 10.25 C42.0215625 10.62125 42.0215625 10.62125 43 11 C43 11.33 43 11.66 43 12 C39.43765572 12.08741124 35.87558892 12.14052896 32.3125 12.1875 C31.30509766 12.21263672 30.29769531 12.23777344 29.25976562 12.26367188 C23.76129548 12.31811217 20.64385255 12.1171065 16 9 C13.33146704 8.63774319 10.85958571 8.40199569 8.1875 8.3125 C7.14819336 8.26125977 7.14819336 8.26125977 6.08789062 8.20898438 C4.39247151 8.12713656 2.69626542 8.06187635 1 8 C1 7.34 1 6.68 1 6 C-4.28 5.67 -9.56 5.34 -15 5 C-15 4.67 -15 4.34 -15 4 C-13.35 3.67 -11.7 3.34 -10 3 C-10 2.34 -10 1.68 -10 1 C-9.36191406 1.01160156 -8.72382813 1.02320313 -8.06640625 1.03515625 C-7.24011719 1.04417969 -6.41382813 1.05320312 -5.5625 1.0625 C-4.32693359 1.07990234 -4.32693359 1.07990234 -3.06640625 1.09765625 C-1.00836062 1.23267348 -1.00836062 1.23267348 0 0 Z " fill="#B3A187" transform="translate(247,397)"/>
<path d="M0 0 C1.98 0.66 3.96 1.32 6 2 C6 2.66 6 3.32 6 4 C8.22942748 3.85820962 10.45853628 3.71140302 12.6875 3.5625 C13.92886719 3.48128906 15.17023438 3.40007812 16.44921875 3.31640625 C19.39682862 3.05374795 22.15218751 2.79781018 25 2 C25.33 1.34 25.66 0.68 26 0 C25.67 2.64 25.34 5.28 25 8 C24.505 6.515 24.505 6.515 24 5 C23.19404892 5.16233124 22.38809784 5.32466248 21.557724 5.49191284 C17.3611523 6.09123538 13.30852924 6.1398629 9.07641602 6.12939453 C8.19920898 6.13114685 7.32200195 6.13289917 6.41821289 6.13470459 C3.53009031 6.13909127 0.64202941 6.13619607 -2.24609375 6.1328125 C-4.26099153 6.13348651 -6.27588924 6.13445736 -8.29078674 6.13571167 C-12.50970231 6.13718438 -16.72859667 6.135048 -20.94750977 6.13037109 C-26.34541483 6.12467774 -31.74327013 6.12795304 -37.14117336 6.13394356 C-41.3010953 6.13756379 -45.46100551 6.13640379 -49.62092781 6.13381577 C-51.61076933 6.13315036 -53.60061193 6.1339614 -55.59045219 6.13629532 C-58.3760038 6.13884544 -61.16147578 6.13494788 -63.94702148 6.12939453 C-64.76334549 6.13141876 -65.57966949 6.13344299 -66.42073059 6.13552856 C-71.0498924 6.11850176 -75.4329204 5.7656648 -80 5 C-78.68 4.67 -77.36 4.34 -76 4 C-76 3.34 -76 2.68 -76 2 C-75.21496094 2.13277344 -74.42992187 2.26554687 -73.62109375 2.40234375 C-68.08812013 3.33242643 -62.55926159 4.24191887 -57 5 C-57 4.01 -57 3.02 -57 2 C-55.68 2 -54.36 2 -53 2 C-52.67 2.66 -52.34 3.32 -52 4 C-51.21351074 3.99476318 -50.42702148 3.98952637 -49.61669922 3.98413086 C-46.03614101 3.9632799 -42.45559562 3.95031399 -38.875 3.9375 C-37.6375 3.92912109 -36.4 3.92074219 -35.125 3.91210938 C-33.92617187 3.90888672 -32.72734375 3.90566406 -31.4921875 3.90234375 C-30.39245605 3.89710693 -29.29272461 3.89187012 -28.15966797 3.88647461 C-25.02381895 3.9991442 -22.07940617 4.41373624 -19 5 C-19 4.34 -19 3.68 -19 3 C-18.34 3 -17.68 3 -17 3 C-17 3.66 -17 4.32 -17 5 C-15.8553125 4.505 -15.8553125 4.505 -14.6875 4 C-12 3 -12 3 -9 3 C-9 3.66 -9 4.32 -9 5 C-7.68 5 -6.36 5 -5 5 C-5 4.34 -5 3.68 -5 3 C-3.68 3 -2.36 3 -1 3 C-0.67 2.01 -0.34 1.02 0 0 Z " fill="#9E907E" transform="translate(281,434)"/>
<path d="M0 0 C0 0.99 0 1.98 0 3 C-0.66 3 -1.32 3 -2 3 C-2 4.32 -2 5.64 -2 7 C-2.99 7 -3.98 7 -5 7 C-4.67 8.65 -4.34 10.3 -4 12 C2.96808991 14.76810011 9.54445241 15.72728755 17 16.1875 C18.2360498 16.26718018 19.47209961 16.34686035 20.74560547 16.42895508 C35.18869872 17.25777433 49.66335899 17.18436485 64.125 17.1875 C65.96336426 17.18899551 65.96336426 17.18899551 67.83886719 17.19052124 C79.68235413 17.18943298 91.51871675 17.12640028 103.3515625 16.5859375 C104.5432756 16.53526375 104.5432756 16.53526375 105.75906372 16.48356628 C111.45141944 16.18101783 116.70872823 15.2139795 122 13 C122 11.35 122 9.7 122 8 C120.02 8 118.04 8 116 8 C116.99 7.67 117.98 7.34 119 7 C118.505 5.02 118.505 5.02 118 3 C121.16115776 4.36983503 121.9927092 4.9890638 124 8 C123.86562768 11.22493574 123.73014124 13.233821 121.46166992 15.61425781 C118.01240413 17.55594507 114.6112616 17.83665946 110.73828125 18.171875 C109.87487625 18.25145447 109.01147125 18.33103394 108.12190247 18.4130249 C95.91578371 19.40434332 83.66063951 19.3003786 71.4230957 19.26074219 C67.92571983 19.24947007 64.42865257 19.25605634 60.93128777 19.26761627 C46.21455511 19.30884767 31.55384968 19.02258248 16.86328125 18.109375 C14.92584297 17.99314789 14.92584297 17.99314789 12.94926453 17.87457275 C-1.03145144 16.91519262 -1.03145144 16.91519262 -5.9375 13.75 C-7.59191869 11.0250751 -7.44509699 9.11567893 -7 6 C-4.88093452 3.36943595 -2.81981355 1.8798757 0 0 Z " fill="#FAF9F8" transform="translate(190,439)"/>
<path d="M0 0 C17.16 0 34.32 0 52 0 C52 0.66 52 1.32 52 2 C48.99686252 3.50156874 46.20932478 3.09281204 42.875 3.0625 C41.59367187 3.05347656 40.31234375 3.04445313 38.9921875 3.03515625 C37.51105469 3.01775391 37.51105469 3.01775391 36 3 C36 3.99 36 4.98 36 6 C35.01 6 34.02 6 33 6 C33 5.34 33 4.68 33 4 C32.34 4 31.68 4 31 4 C31 4.66 31 5.32 31 6 C25.48723898 6.12529002 25.48723898 6.12529002 22.8125 5.4375 C20.7824796 4.77806294 20.7824796 4.77806294 18 6 C18 5.34 18 4.68 18 4 C17.2575 4.350625 16.515 4.70125 15.75 5.0625 C13 6 13 6 11.33105469 5.56469727 C7.89365905 4.73198925 4.46819524 4.87798964 0.953125 4.90234375 C-0.20367767 4.90446617 -0.20367767 4.90446617 -1.3838501 4.90663147 C-3.83927338 4.91221466 -6.29460442 4.92476405 -8.75 4.9375 C-10.41796743 4.94251717 -12.08593629 4.9470797 -13.75390625 4.95117188 C-17.83597287 4.96217859 -21.91797081 4.97943164 -26 5 C-26 4.34 -26 3.68 -26 3 C-8.84 2.67 8.32 2.34 26 2 C13.13 1.505 13.13 1.505 0 1 C0 0.67 0 0.34 0 0 Z " fill="#C1B097" transform="translate(252,447)"/>
<path d="M0 0 C3.53311462 0.09214748 7.06515502 0.19848111 10.59741211 0.31933594 C12.42175781 0.35994141 12.42175781 0.35994141 14.28295898 0.40136719 C21.01651652 0.62788947 26.40421776 1.22212208 32.53491211 4.06933594 C32.53491211 4.39933594 32.53491211 4.72933594 32.53491211 5.06933594 C26.94816407 5.09412356 21.36144831 5.11223745 15.7746582 5.12426758 C13.87556399 5.12928479 11.97647361 5.13610005 10.07739258 5.14477539 C7.34186859 5.15695557 4.60639585 5.16259048 1.87084961 5.16699219 C0.60487442 5.17473412 0.60487442 5.17473412 -0.68667603 5.18263245 C-5.06344631 5.18304548 -9.15512956 4.95022558 -13.46508789 4.06933594 C-10.92713854 1.72661346 -9.80273767 1.08257711 -6.27758789 0.94433594 C-4.88540039 1.00621094 -4.88540039 1.00621094 -3.46508789 1.06933594 C-2.46508789 0.06933594 -2.46508789 0.06933594 0 0 Z " fill="#675A49" transform="translate(241.465087890625,308.9306640625)"/>
<path d="M0 0 C0.66 0 1.32 0 2 0 C2.20496094 0.75925781 2.40992188 1.51851563 2.62109375 2.30078125 C2.89050781 3.29464844 3.15992188 4.28851563 3.4375 5.3125 C3.83775391 6.79169922 3.83775391 6.79169922 4.24609375 8.30078125 C4.78079425 10.21517526 5.37144538 12.11433615 6 14 C6.66 14 7.32 14 8 14 C8.33 13.34 8.66 12.68 9 12 C9.66255511 14.8158592 9.99364114 17.15579219 9.875 20.0625 C10.02088605 23.49082213 10.97671586 24.36093373 13 27 C12.6875 29.25 12.6875 29.25 12 31 C10.35 31.33 8.7 31.66 7 32 C8.32 30.68 9.64 29.36 11 28 C10.38511719 27.29875 9.77023438 26.5975 9.13671875 25.875 C-1.11385033 13.84243406 -1.11385033 13.84243406 -0.94140625 6.5078125 C-0.71890324 4.31016735 -0.41660121 2.16833403 0 0 Z " fill="#C0B7A7" transform="translate(220,279)"/>
<path d="M0 0 C0.99 0 1.98 0 3 0 C3 0.66 3 1.32 3 2 C8.28 2.66 13.56 3.32 19 4 C19.33 4.99 19.66 5.98 20 7 C11.8731469 10.4121776 5.5098969 9.8540371 -3 8 C-3 4.38462395 -2.10770759 2.88834003 0 0 Z " fill="#EFE2C6" transform="translate(235,410)"/>
<path d="M0 0 C1.98 0 3.96 0 6 0 C6.33 0.66 6.66 1.32 7 2 C13.04124766 3.43508565 18.22761562 3.13327249 24 1 C24.33 2.32 24.66 3.64 25 5 C25.66 5 26.32 5 27 5 C27.33 6.65 27.66 8.3 28 10 C25.37461716 9.85946128 22.74982573 9.71281053 20.125 9.5625 C19.37863281 9.52318359 18.63226563 9.48386719 17.86328125 9.44335938 C12.2265625 9.11328125 12.2265625 9.11328125 10 8 C10.33 7.01 10.66 6.02 11 5 C10.37351562 4.86722656 9.74703125 4.73445313 9.1015625 4.59765625 C8.28429687 4.42105469 7.46703125 4.24445313 6.625 4.0625 C5.81289063 3.88847656 5.00078125 3.71445312 4.1640625 3.53515625 C2 3 2 3 0 2 C0 1.34 0 0.68 0 0 Z " fill="#A2937C" transform="translate(256,396)"/>
<path d="M0 0 C0.66 0.33 1.32 0.66 2 1 C1.67 1.33 1.34 1.66 1 2 C3.80537303 2.93512434 5.48165364 3.12182907 8.37963867 3.11352539 C9.26032516 3.11344986 10.14101166 3.11337433 11.04838562 3.11329651 C11.99534805 3.10813522 12.94231049 3.10297394 13.91796875 3.09765625 C14.89034988 3.0962413 15.86273102 3.09482635 16.86457825 3.09336853 C19.97225004 3.08776817 23.07984996 3.07521562 26.1875 3.0625 C28.29361875 3.05748505 30.39973863 3.05292213 32.50585938 3.04882812 C37.67060064 3.03779862 42.83528813 3.02053375 48 3 C48.66 4.32 49.32 5.64 50 7 C38.17777154 7.17984375 26.42713989 6.6129379 14.625 6 C12.71355787 5.90332489 10.8020996 5.80696852 8.890625 5.7109375 C4.26022262 5.47762603 -0.36994098 5.24002512 -5 5 C-4.1875 3.0625 -4.1875 3.0625 -3 1 C-2.01 0.67 -1.02 0.34 0 0 Z " fill="#94856C" transform="translate(230,310)"/>
<path d="M0 0 C1.19993431 3.59980292 0.84742216 6.57142089 0.4375 10.3125 C-0.45534084 21.75276724 0.28038621 33.33287938 7 43 C9.18277137 45.52817695 11.5119656 47.77727732 14 50 C15.00572396 50.99424309 16.00754685 51.99250968 17 53 C11.36919189 52.38305929 9.3688742 49.64113182 5.86328125 45.46875 C-0.69156271 36.7839253 -2.34654748 27.6140417 -2.25 16.9375 C-2.25773437 16.07833984 -2.26546875 15.21917969 -2.2734375 14.33398438 C-2.25766139 9.17125224 -1.67144493 4.88831314 0 0 Z " fill="#F2EEE8" transform="translate(265,344)"/>
<path d="M0 0 C0.33 0.66 0.66 1.32 1 2 C1.7734375 1.98839844 2.546875 1.97679687 3.34375 1.96484375 C9.33936364 1.91290155 15.07302983 2.08815844 21 3 C20.34 4.32 19.68 5.64 19 7 C18.34 7 17.68 7 17 7 C17 6.34 17 5.68 17 5 C6.44 5 -4.12 5 -15 5 C-15 4.67 -15 4.34 -15 4 C-13.35 3.67 -11.7 3.34 -10 3 C-10 2.34 -10 1.68 -10 1 C-9.36191406 1.01160156 -8.72382813 1.02320313 -8.06640625 1.03515625 C-7.24011719 1.04417969 -6.41382813 1.05320312 -5.5625 1.0625 C-4.32693359 1.07990234 -4.32693359 1.07990234 -3.06640625 1.09765625 C-1.00836062 1.23267348 -1.00836062 1.23267348 0 0 Z " fill="#BCAB92" transform="translate(247,397)"/>
<path d="M0 0 C4.75 0.875 4.75 0.875 7 2 C7 1.34 7 0.68 7 0 C25.81 0 44.62 0 64 0 C64 0.33 64 0.66 64 1 C55.95979701 2.06781095 47.95469774 2.15410479 39.8605957 2.13037109 C37.70191338 2.12503562 35.54344145 2.13033286 33.38476562 2.13671875 C24.87843104 2.14036688 16.47592146 1.80496042 8 1 C8 1.66 8 2.32 8 3 C6.68 3 5.36 3 4 3 C4.33 3.99 4.66 4.98 5 6 C2.525 5.01 2.525 5.01 0 4 C0 2.68 0 1.36 0 0 Z " fill="#B5A78F" transform="translate(215,319)"/>
<path d="M0 0 C0 0.99 0 1.98 0 3 C-5.02283887 4.0151052 -9.80213373 4.13052591 -14.8984375 4.09765625 C-15.73339752 4.0962413 -16.56835754 4.09482635 -17.42861938 4.09336853 C-20.07745042 4.08780174 -22.7261948 4.07525547 -25.375 4.0625 C-27.17838419 4.0574807 -28.98176971 4.05291855 -30.78515625 4.04882812 C-35.19013721 4.0378432 -39.59505394 4.02060163 -44 4 C-44 3.34 -44 2.68 -44 2 C-42.95134766 1.97494385 -41.90269531 1.9498877 -40.82226562 1.92407227 C-36.9009349 1.82931227 -32.97975328 1.72926412 -29.05859375 1.62768555 C-27.36722319 1.58459433 -25.67581632 1.54290324 -23.984375 1.50268555 C-21.54155573 1.44435171 -19.09891495 1.38084551 -16.65625 1.31640625 C-15.91008423 1.29969376 -15.16391846 1.28298126 -14.3951416 1.26576233 C-9.53739054 1.13122108 -4.81417681 0.66837139 0 0 Z " fill="#817768" transform="translate(304,440)"/>
<path d="M0 0 C2.4375 0.6875 2.4375 0.6875 5 2 C5.8125 4.625 5.8125 4.625 6 7 C5.505 5.515 5.505 5.515 5 4 C-5.56 4 -16.12 4 -27 4 C-27 3.67 -27 3.34 -27 3 C-28.65 2.67 -30.3 2.34 -32 2 C-32 1.67 -32 1.34 -32 1 C-21.27132003 0.89052367 -10.6948466 1.03711992 0 2 C0 1.34 0 0.68 0 0 Z " fill="#C5B59C" transform="translate(280,315)"/>
<path d="M0 0 C0.66 0 1.32 0 2 0 C1.67 1.98 1.34 3.96 1 6 C0.34 6 -0.32 6 -1 6 C-1 5.34 -1 4.68 -1 4 C-12.88 4.66 -24.76 5.32 -37 6 C-37 6.99 -37 7.98 -37 9 C-35.68 9 -34.36 9 -33 9 C-33.33 9.99 -33.66 10.98 -34 12 C-35.65 12.33 -37.3 12.66 -39 13 C-39.125 5.25 -39.125 5.25 -38 3 C-36.71029297 3.27650391 -36.71029297 3.27650391 -35.39453125 3.55859375 C-31.82806748 4.02235716 -29.21214872 3.70833384 -25.6875 3.0625 C-17.43514621 1.74741902 -9.33655149 1.81833181 -1 2 C-0.67 1.34 -0.34 0.68 0 0 Z " fill="#877E72" transform="translate(271,297)"/>
<path d="M0 0 C0.9821994 3.27626375 1.11580914 6.22788119 1.09765625 9.640625 C1.09443359 10.71054687 1.09121094 11.78046875 1.08789062 12.8828125 C1.07951172 13.99398438 1.07113281 15.10515625 1.0625 16.25 C1.05798828 17.37664062 1.05347656 18.50328125 1.04882812 19.6640625 C1.03705397 22.44276217 1.0206084 25.22135409 1 28 C0.34 27.67 -0.32 27.34 -1 27 C-1.31241371 24.45058627 -1.51303421 21.99638487 -1.625 19.4375 C-1.66367187 18.72658203 -1.70234375 18.01566406 -1.7421875 17.28320312 C-1.83671783 15.52257575 -1.91945817 13.76132272 -2 12 C-2.66 12.66 -3.32 13.32 -4 14 C-4.66 14 -5.32 14 -6 14 C-6 13.01 -6 12.02 -6 11 C-6.66 11 -7.32 11 -8 11 C-8 10.34 -8 9.68 -8 9 C-8.66 9 -9.32 9 -10 9 C-10.33 11.97 -10.66 14.94 -11 18 C-11.33 18 -11.66 18 -12 18 C-12 14.04 -12 10.08 -12 6 C-10.02 5.67 -8.04 5.34 -6 5 C-5.67 6.32 -5.34 7.64 -5 9 C-4.34 8.67 -3.68 8.34 -3 8 C-2.34 8.33 -1.68 8.66 -1 9 C-1.020625 7.700625 -1.04125 6.40125 -1.0625 5.0625 C-1.08399454 3.70834367 -1.07148199 2.35243917 -1 1 C-0.67 0.67 -0.34 0.34 0 0 Z " fill="#B6AA9A" transform="translate(263,347)"/>
<path d="M0 0 C1.09731445 0.00676758 1.09731445 0.00676758 2.21679688 0.01367188 C3.99873419 0.02531852 5.78062863 0.04324809 7.5625 0.0625 C8.2225 1.7125 8.8825 3.3625 9.5625 5.0625 C6.33303202 4.92290799 3.10401309 4.77471895 -0.125 4.625 C-1.03701172 4.58568359 -1.94902344 4.54636719 -2.88867188 4.50585938 C-3.77490234 4.46396484 -4.66113281 4.42207031 -5.57421875 4.37890625 C-6.38592529 4.34224854 -7.19763184 4.30559082 -8.03393555 4.26782227 C-10.55894485 4.05212569 -12.96350697 3.60350548 -15.4375 3.0625 C-15.4375 2.4025 -15.4375 1.7425 -15.4375 1.0625 C-10.23576905 0.19440561 -5.26771184 -0.06265348 0 0 Z " fill="#6E6558" transform="translate(258.4375,305.9375)"/>
<path d="M0 0 C4.07116347 0.2647316 8.14219957 0.53134094 12.21313477 0.79956055 C13.59298519 0.89022405 14.97286725 0.98040767 16.3527832 1.07006836 C24.57945594 1.60496644 32.79444698 2.19748244 41 3 C41 3.33 41 3.66 41 4 C26.9779359 4.17358814 13.00641226 3.63488981 -1 3 C-0.67 2.01 -0.34 1.02 0 0 Z " fill="#655847" transform="translate(190,441)"/>
<path d="M0 0 C2.475 0.99 2.475 0.99 5 2 C5.0270043 3.45823212 5.04639787 4.91660675 5.0625 6.375 C5.07410156 7.18710937 5.08570313 7.99921875 5.09765625 8.8359375 C5 11 5 11 4 13 C3.92934383 15.04055005 3.91578024 17.08334257 3.9375 19.125 C3.95103516 20.76855469 3.95103516 20.76855469 3.96484375 22.4453125 C3.97644531 23.28835938 3.98804688 24.13140625 4 25 C4.66 25 5.32 25 6 25 C6 26.98 6 28.96 6 31 C5.34 31.33 4.68 31.66 4 32 C1.79356116 28.69034174 1.72226635 27.500794 1.62109375 23.6328125 C1.58693359 22.58222656 1.55277344 21.53164063 1.51757812 20.44921875 C1.49115234 19.35222656 1.46472656 18.25523437 1.4375 17.125 C1.37731313 14.96083394 1.31363439 12.79676155 1.24609375 10.6328125 C1.22216553 9.67262207 1.1982373 8.71243164 1.17358398 7.72314453 C1.00422298 5.06624909 0.58526971 2.59405687 0 0 Z " fill="#D4CDC1" transform="translate(233,339)"/>
<path d="M0 0 C5.98530861 1.34669444 9.99185828 4.49702597 14 9 C17.41301992 14.39694283 20.48979599 20.1435603 19.66015625 26.67578125 C19.46292969 27.54589844 19.26570313 28.41601562 19.0625 29.3125 C18.86785156 30.19550781 18.67320312 31.07851563 18.47265625 31.98828125 C18.31667969 32.65214844 18.16070312 33.31601562 18 34 C16.515 34.495 16.515 34.495 15 35 C15.875 31.125 15.875 31.125 17 30 C17.45325251 23.65446488 16.24617654 18.90057774 14 13 C13.67 12.01 13.34 11.02 13 10 C12.01 9.67 11.02 9.34 10 9 C9.195625 8.175 8.39125 7.35 7.5625 6.5 C5.02184182 4.02130909 4.2511255 3.69666975 1 3 C0.67 2.01 0.34 1.02 0 0 Z " fill="#F1EDE6" transform="translate(291,407)"/>
<path d="M0 0 C0.33 0 0.66 0 1 0 C1 1.65 1 3.3 1 5 C0.01 5 -0.98 5 -2 5 C-1.67 5.99 -1.34 6.98 -1 8 C0.37285156 7.98259766 0.37285156 7.98259766 1.7734375 7.96484375 C3.55621094 7.95130859 3.55621094 7.95130859 5.375 7.9375 C6.55835938 7.92589844 7.74171875 7.91429687 8.9609375 7.90234375 C12 8 12 8 14 9 C14 9.66 14 10.32 14 11 C14.66 11.66 15.32 12.32 16 13 C9.36037635 13.31617255 4.13245664 12.64188422 -2 10 C-3 9 -3 9 -3.0625 6.4375 C-3.041875 5.633125 -3.02125 4.82875 -3 4 C-2.01 4 -1.02 4 0 4 C0 2.68 0 1.36 0 0 Z " fill="#BFB8AC" transform="translate(188,442)"/>
<path d="M0 0 C0.78503906 0.13277344 1.57007813 0.26554687 2.37890625 0.40234375 C7.91187987 1.33242643 13.44073841 2.24191887 19 3 C19 2.01 19 1.02 19 0 C20.32 0 21.64 0 23 0 C23.33 0.66 23.66 1.32 24 2 C25.89533342 2.46523063 25.89533342 2.46523063 28.0625 2.625 C29.361875 2.74875 30.66125 2.8725 32 3 C32 3.33 32 3.66 32 4 C27.99813807 4.02489435 23.99630672 4.04295127 19.99438477 4.05493164 C18.63565281 4.05993113 17.27692615 4.06673291 15.91821289 4.07543945 C13.95461415 4.08769842 11.99097459 4.09273487 10.02734375 4.09765625 C8.84906006 4.10289307 7.67077637 4.10812988 6.45678711 4.11352539 C2.90642424 3.99692685 -0.49542884 3.5655059 -4 3 C-2.68 2.67 -1.36 2.34 0 2 C0 1.34 0 0.68 0 0 Z " fill="#8D8170" transform="translate(205,436)"/>
<path d="M0 0 C0 0.99 0 1.98 0 3 C-3.60329889 3.22573595 -7.20754699 3.42759125 -10.8125 3.625 C-11.83666016 3.68945312 -12.86082031 3.75390625 -13.91601562 3.8203125 C-14.89892578 3.871875 -15.88183594 3.9234375 -16.89453125 3.9765625 C-17.80050049 4.02893066 -18.70646973 4.08129883 -19.63989258 4.13525391 C-22 4 -22 4 -25 2 C-20.68047647 -2.31952353 -5.85636618 -0.09345265 0 0 Z " fill="#61584D" transform="translate(267,303)"/>
<path d="M0 0 C2.00273388 0.65840827 4.00225901 1.32659419 6 2 C8.37659026 2.22059893 10.76241525 2.35288244 13.1484375 2.4140625 C13.80582916 2.43342865 14.46322083 2.4527948 15.14053345 2.4727478 C17.21856135 2.53202461 19.29664624 2.57871794 21.375 2.625 C22.7929915 2.66322778 24.21096097 2.70228223 25.62890625 2.7421875 C29.08573461 2.83768171 32.54272983 2.92190189 36 3 C36 2.34 36 1.68 36 1 C37.98 1.66 39.96 2.32 42 3 C42 3.33 42 3.66 42 4 C36.41325196 4.02478762 30.8265362 4.04290152 25.23974609 4.05493164 C23.34065188 4.05994885 21.4415615 4.06676411 19.54248047 4.07543945 C16.80695648 4.08761963 14.07148374 4.09325454 11.3359375 4.09765625 C10.06996231 4.10539818 10.06996231 4.10539818 8.77841187 4.11329651 C4.40164158 4.11370954 0.30995833 3.88088964 -4 3 C-2.375 1.375 -2.375 1.375 0 0 Z " fill="#796C57" transform="translate(232,310)"/>
<path d="M0 0 C2.64 0 5.28 0 8 0 C8.33 0.99 8.66 1.98 9 3 C7.68 3 6.36 3 5 3 C5.33 4.98 5.66 6.96 6 9 C5.34 9 4.68 9 4 9 C4 7.02 4 5.04 4 3 C-0.05606165 3.46800711 -3.46588679 3.87953208 -7 6 C-6.34 4.68 -5.68 3.36 -5 2 C-3.35 2 -1.7 2 0 2 C0 1.34 0 0.68 0 0 Z M-9 6 C-8.34 6.33 -7.68 6.66 -7 7 C-7.33 7.66 -7.66 8.32 -8 9 C-7.34 9.33 -6.68 9.66 -6 10 C-6.66 11.32 -7.32 12.64 -8 14 C-8.73080266 12.02253397 -9.39421747 10.01927511 -10 8 C-9.67 7.34 -9.34 6.68 -9 6 Z " fill="#B7A790" transform="translate(234,274)"/>
<path d="M0 0 C-0.33 1.32 -0.66 2.64 -1 4 C-11.56 3.67 -22.12 3.34 -33 3 C-33.33 2.34 -33.66 1.68 -34 1 C-33.36497559 1.00523682 -32.72995117 1.01047363 -32.07568359 1.01586914 C-29.17546595 1.03676256 -26.2752642 1.04969934 -23.375 1.0625 C-21.87646484 1.07506836 -21.87646484 1.07506836 -20.34765625 1.08789062 C-13.48182206 1.11062518 -6.82844903 -0.16258212 0 0 Z " fill="#A79A84" transform="translate(285,319)"/>
<path d="M0 0 C0.33 0 0.66 0 1 0 C0.89916972 4.94068385 0.18246905 7.2374674 -3.375 10.75 C-4.57489593 11.84267119 -5.78296168 12.92645528 -7 14 C-8.0068102 14.9931431 -9.00915973 15.99092341 -10 17 C-8.35 18.98 -6.7 20.96 -5 23 C-11.75 21.25 -11.75 21.25 -14 19 C-13.859375 17.04296875 -13.859375 17.04296875 -13 15 C-11.328125 13.61328125 -11.328125 13.61328125 -9.25 12.3125 C-4.55979383 9.0310428 -2.36816636 5.12343684 0 0 Z " fill="#E6E1DD" transform="translate(280,290)"/>
<path d="M0 0 C0.33 0.66 0.66 1.32 1 2 C3.32156597 2.40729228 5.6568787 2.74438677 8 3 C8 3.99 8 4.98 8 6 C5.89590361 6.02701408 3.79170822 6.04640223 1.6875 6.0625 C0.51574219 6.07410156 -0.65601563 6.08570313 -1.86328125 6.09765625 C-5 6 -5 6 -8 5 C-7.67 3.68 -7.34 2.36 -7 1 C-2.25 0 -2.25 0 0 0 Z " fill="#786E62" transform="translate(200,436)"/>
<path d="M0 0 C0.5775 0.350625 1.155 0.70125 1.75 1.0625 C1.523125 1.743125 1.29625 2.42375 1.0625 3.125 C0.64078041 7.08916414 2.09761958 9.4933583 3.75 13.0625 C3.75 14.0525 3.75 15.0425 3.75 16.0625 C3.09 16.0625 2.43 16.0625 1.75 16.0625 C-0.47656164 11.31895564 -1.71148032 7.33999285 -2.25 2.0625 C-2.91 2.0625 -3.57 2.0625 -4.25 2.0625 C-4.58 4.3725 -4.91 6.6825 -5.25 9.0625 C-5.58 9.0625 -5.91 9.0625 -6.25 9.0625 C-6.25 6.0925 -6.25 3.1225 -6.25 0.0625 C-2.25 -0.9375 -2.25 -0.9375 0 0 Z " fill="#DCD0BE" transform="translate(224.25,276.9375)"/>
<path d="M0 0 C1.9375 0.3125 1.9375 0.3125 4 1 C4.495 2.485 4.495 2.485 5 4 C-6.36783648 4.16938829 -17.65384417 3.63922005 -29 3 C-29 2.67 -29 2.34 -29 2 C-19.43 2 -9.86 2 0 2 C0 1.34 0 0.68 0 0 Z " fill="#A6977C" transform="translate(275,313)"/>
<path d="M0 0 C3.64576392 -0.05878077 7.29140352 -0.0938558 10.9375 -0.125 C12.46987305 -0.15013672 12.46987305 -0.15013672 14.03320312 -0.17578125 C20.35688352 -0.21618815 25.88316527 0.37989987 32 2 C32 2.33 32 2.66 32 3 C29.20826945 3.02690104 26.41679652 3.04679053 23.625 3.0625 C22.43390625 3.07506836 22.43390625 3.07506836 21.21875 3.08789062 C15.2265625 3.11328125 15.2265625 3.11328125 13 2 C10.795636 1.77049681 8.58607827 1.58924067 6.375 1.4375 C5.18648437 1.35371094 3.99796875 1.26992188 2.7734375 1.18359375 C1.40058594 1.09271484 1.40058594 1.09271484 0 1 C0 0.67 0 0.34 0 0 Z " fill="#D2BF9F" transform="translate(248,409)"/>
<path d="M0 0 C-0.33 1.32 -0.66 2.64 -1 4 C-1.66 4 -2.32 4 -3 4 C-3 3.34 -3 2.68 -3 2 C-11.91 2 -20.82 2 -30 2 C-30 1.67 -30 1.34 -30 1 C-19.97112823 0.0232751 -10.06604235 -0.10849626 0 0 Z " fill="#736A5F" transform="translate(270,301)"/>
<path d="M0 0 C4.29 0 8.58 0 13 0 C8.09396701 3.67952474 6.82490317 3.29124516 1 3 C1.33 3.99 1.66 4.98 2 6 C0.35 6 -1.3 6 -3 6 C-3.33 4.68 -3.66 3.36 -4 2 C-2.68 2 -1.36 2 0 2 C0 1.34 0 0.68 0 0 Z " fill="#938877" transform="translate(223,320)"/>
<path d="M0 0 C0.33 0.99 0.66 1.98 1 3 C-0.38759251 4.61130023 -1.78545623 6.21375841 -3.1875 7.8125 C-3.96480469 8.70582031 -4.74210937 9.59914063 -5.54296875 10.51953125 C-7.90335981 12.90243796 -10.13995376 14.3033624 -13 16 C-14.70855022 19.00007271 -14.70855022 19.00007271 -16 22 C-16.66 22.66 -17.32 23.32 -18 24 C-18.99 23.67 -19.98 23.34 -21 23 C-20.01 22.34 -19.02 21.68 -18 21 C-17.33291016 19.59234375 -17.33291016 19.59234375 -16.65234375 18.15625 C-14.75621366 14.53432775 -12.81510592 12.93614446 -9.5625 10.5 C-5.43870825 7.27624216 -2.47635809 4.59895074 0 0 Z " fill="#FAF6F0" transform="translate(229,382)"/>
<path d="M0 0 C0.74056641 0.09990234 1.48113281 0.19980469 2.24414062 0.30273438 C4.05959637 0.54869935 5.87370071 0.80460374 7.6875 1.0625 C7.3575 1.7225 7.0275 2.3825 6.6875 3.0625 C4.1249282 3.08960123 1.56264635 3.10938771 -1 3.125 C-2.0818457 3.13756836 -2.0818457 3.13756836 -3.18554688 3.15039062 C-7.02805382 3.16793632 -10.57889526 2.99774221 -14.3125 2.0625 C-13.3125 0.0625 -13.3125 0.0625 -11.26953125 -0.62109375 C-7.38716501 -1.03651207 -3.84885104 -0.55376677 0 0 Z " fill="#625542" transform="translate(247.3125,309.9375)"/>
<path d="M0 0 C1.98 0 3.96 0 6 0 C6.33 0.66 6.66 1.32 7 2 C9.54024004 2.47574438 12.00051464 2.84007547 14.5625 3.125 C15.27341797 3.21136719 15.98433594 3.29773438 16.71679688 3.38671875 C18.47689312 3.59934783 20.23834164 3.80072697 22 4 C21.67 4.66 21.34 5.32 21 6 C17.7 6 14.4 6 11 6 C11 5.67 11 5.34 11 5 C10.37351562 4.86722656 9.74703125 4.73445313 9.1015625 4.59765625 C8.28429687 4.42105469 7.46703125 4.24445313 6.625 4.0625 C5.81289063 3.88847656 5.00078125 3.71445312 4.1640625 3.53515625 C2 3 2 3 0 2 C0 1.34 0 0.68 0 0 Z " fill="#B09F86" transform="translate(256,396)"/>
<path d="M0 0 C0 0.66 0 1.32 0 2 C-1.65 2.66 -3.3 3.32 -5 4 C-5 3.34 -5 2.68 -5 2 C-5.680625 2.165 -6.36125 2.33 -7.0625 2.5 C-10.41148078 3.07003928 -13.60848603 3 -17 3 C-17.99 3.495 -17.99 3.495 -19 4 C-19 3.34 -19 2.68 -19 2 C-23.95 2 -28.9 2 -34 2 C-34 1.67 -34 1.34 -34 1 C-29.96154606 0.85646482 -25.92305315 0.71408569 -21.88452148 0.57275391 C-20.51211459 0.52456523 -19.13971854 0.47606675 -17.76733398 0.42724609 C-15.78892891 0.35692194 -13.8104804 0.28782304 -11.83203125 0.21875 C-10.64327393 0.17685547 -9.4545166 0.13496094 -8.22973633 0.09179688 C-5.48377864 0.01375015 -2.74674708 -0.0181154 0 0 Z " fill="#867B6C" transform="translate(283,322)"/>
<path d="M0 0 C0.99 0 1.98 0 3 0 C3 0.99 3 1.98 3 3 C2.01 3 1.02 3 0 3 C0.350625 4.051875 0.70125 5.10375 1.0625 6.1875 C1.94970527 9.7954681 2.05262882 11.52632489 1 15 C-0.32 14.01 -1.64 13.02 -3 12 C-2.14285714 3.42857143 -2.14285714 3.42857143 0 0 Z " fill="#8B7F71" transform="translate(191,423)"/>
<path d="M0 0 C5.28 0 10.56 0 16 0 C16 0.99 16 1.98 16 3 C10.72 3 5.44 3 0 3 C0 2.01 0 1.02 0 0 Z " fill="#AC9C84" transform="translate(248,402)"/>
<path d="M0 0 C0.33 0 0.66 0 1 0 C0.67 2.64 0.34 5.28 0 8 C-0.33 7.01 -0.66 6.02 -1 5 C-1.78632813 5.16371094 -2.57265625 5.32742188 -3.3828125 5.49609375 C-7.90846849 6.12655771 -12.31329568 6.10715524 -16.875 6.0625 C-17.75414062 6.05798828 -18.63328125 6.05347656 -19.5390625 6.04882812 C-21.69273803 6.03712337 -23.84637817 6.01919069 -26 6 C-26 5.67 -26 5.34 -26 5 C-24.9378125 4.95101563 -23.875625 4.90203125 -22.78125 4.8515625 C-15.61890196 4.48506561 -8.90684527 4.07205358 -2 2 C-1.34 2 -0.68 2 0 2 C0 1.34 0 0.68 0 0 Z " fill="#8A7D6D" transform="translate(306,434)"/>
<path d="M0 0 C1.65 0.33 3.3 0.66 5 1 C5 1.33 5 1.66 5 2 C9.9600338 2.94288183 14.84514574 3.30248211 19.875 3.5625 C20.65875 3.60568359 21.4425 3.64886719 22.25 3.69335938 C24.16650649 3.79853351 26.08323333 3.89967925 28 4 C28 4.33 28 4.66 28 5 C24.50007197 5.05869332 21.0002728 5.09382709 17.5 5.125 C16.02660156 5.15013672 16.02660156 5.15013672 14.5234375 5.17578125 C8.64081335 5.21499874 3.63635497 4.70432638 -2 3 C-1.34 2.67 -0.68 2.34 0 2 C0 1.34 0 0.68 0 0 Z " fill="#B5AEA4" transform="translate(202,451)"/>
<path d="M0 0 C0.33 0.66 0.66 1.32 1 2 C4.96 2 8.92 2 13 2 C13 2.33 13 2.66 13 3 C5.66236293 4.17402193 -1.58165418 4.09377123 -9 4 C-9.33 3.01 -9.66 2.02 -10 1 C-9.36191406 1.01160156 -8.72382813 1.02320313 -8.06640625 1.03515625 C-7.24011719 1.04417969 -6.41382813 1.05320312 -5.5625 1.0625 C-4.32693359 1.07990234 -4.32693359 1.07990234 -3.06640625 1.09765625 C-1.00836062 1.23267348 -1.00836062 1.23267348 0 0 Z " fill="#C8B69A" transform="translate(247,397)"/>
<path d="M0 0 C-1.66442897 2.02185443 -2.52984103 2.92078843 -5.15625 3.36328125 C-5.9296875 3.34652344 -6.703125 3.32976562 -7.5 3.3125 C-8.2734375 3.30863281 -9.046875 3.30476563 -9.84375 3.30078125 C-12 3 -12 3 -15 1 C-10.05183286 -1.80396138 -5.38317715 -0.77350507 0 0 Z " fill="#FEF8DE" transform="translate(248,415)"/>
<path d="M0 0 C2 2 2 2 2 4 C-7.9470536 6.5035281 -17.82766893 6.18974296 -28 6 C-28 5.67 -28 5.34 -28 5 C-26.85402344 4.93941406 -25.70804687 4.87882812 -24.52734375 4.81640625 C-22.99738703 4.73193011 -21.46743959 4.64728573 -19.9375 4.5625 C-18.80924805 4.50352539 -18.80924805 4.50352539 -17.65820312 4.44335938 C-8.11597473 4.29066053 -8.11597473 4.29066053 0 0 Z " fill="#988D7E" transform="translate(306,449)"/>
<path d="M0 0 C3.625 0.1875 3.625 0.1875 6.625 2.1875 C6.03332031 2.22488281 5.44164062 2.26226562 4.83203125 2.30078125 C-0.12797668 2.71344096 -3.1409934 3.4733932 -7.375 6.1875 C-10.02318039 7.00385636 -12.66474863 7.59032597 -15.375 8.1875 C-14.375 5.1875 -14.375 5.1875 -12.125 4.0546875 C-11.2175 3.72726562 -10.31 3.39984375 -9.375 3.0625 C-1.20038071 0.06668782 -1.20038071 0.06668782 0 0 Z " fill="#CEBDA3" transform="translate(235.375,269.8125)"/>
<path d="M0 0 C0 6.6 0 13.2 0 20 C-0.66 20 -1.32 20 -2 20 C-2.33 13.73 -2.66 7.46 -3 1 C-1 0 -1 0 0 0 Z " fill="#B4AB9A" transform="translate(239,344)"/>
<path d="M0 0 C2 0 2 0 3.5 1.4375 C3.995 1.953125 4.49 2.46875 5 3 C5.66 3.33 6.32 3.66 7 4 C7 4.66 7 5.32 7 6 C5.72125 6.144375 4.4425 6.28875 3.125 6.4375 C0.74307106 6.70642746 -0.84452691 6.92226346 -3 8 C-3.33 7.01 -3.66 6.02 -4 5 C-3.34 4.01 -2.68 3.02 -2 2 C-1.34 2 -0.68 2 0 2 C0 1.34 0 0.68 0 0 Z " fill="#C2B197" transform="translate(274,268)"/>
<path d="M0 0 C0 0.99 0 1.98 0 3 C-5.41538462 5.21538462 -5.41538462 5.21538462 -8.375 4.125 C-8.91125 3.75375 -9.4475 3.3825 -10 3 C-9.67 2.01 -9.34 1.02 -9 0 C-5.93109813 -1.53445094 -3.29905734 -0.54984289 0 0 Z " fill="#FBF4DC" transform="translate(253,261)"/>
<path d="M0 0 C0 0.99 0 1.98 0 3 C-5.66642551 4.22517308 -11.23708518 4.09228867 -17 4 C-17 3.34 -17 2.68 -17 2 C-8.585 1.01 -8.585 1.01 0 0 Z " fill="#7A7060" transform="translate(304,440)"/>
<path d="M0 0 C0.66 0 1.32 0 2 0 C3.64772007 2.3727169 4.86765311 4.33826554 5.4375 7.1875 C5.8486428 9.21995468 5.8486428 9.21995468 8.0625 10.25 C8.701875 10.4975 9.34125 10.745 10 11 C10 11.33 10 11.66 10 12 C7.36 12 4.72 12 2 12 C1.67 10.68 1.34 9.36 1 8 C1.66 7.67 2.32 7.34 3 7 C3 6.01 3 5.02 3 4 C2.34 4 1.68 4 1 4 C0.67 2.68 0.34 1.36 0 0 Z " fill="#B3A894" transform="translate(280,397)"/>
<path d="M0 0 C3.16115776 1.36983503 3.9927092 1.9890638 6 5 C5.625 8.1875 5.625 8.1875 5 11 C3.35 11.33 1.7 11.66 0 12 C1.32 11.34 2.64 10.68 4 10 C4 8.35 4 6.7 4 5 C2.02 5 0.04 5 -2 5 C-1.01 4.67 -0.02 4.34 1 4 C0.67 2.68 0.34 1.36 0 0 Z " fill="#E1DBD1" transform="translate(308,442)"/>
<path d="M0 0 C0 3 0 3 -1 6 C-0.34 6.66 0.32 7.32 1 8 C-1.97 8 -4.94 8 -8 8 C-5.80682128 3.61364256 -4.08649371 2.48743095 0 0 Z " fill="#D8CBB8" transform="translate(223,392)"/>
<path d="M0 0 C4.29 0 8.58 0 13 0 C13.66 1.32 14.32 2.64 15 4 C9.72 3.34 4.44 2.68 -1 2 C-0.67 1.34 -0.34 0.68 0 0 Z " fill="#796F64" transform="translate(253,307)"/>
<path d="M0 0 C0.33 0 0.66 0 1 0 C2.61561666 5.25075414 1.33923713 8.30515728 -0.89453125 13.046875 C-2 15 -2 15 -4 17 C-3.21450457 11.18733381 -1.59317541 5.63122376 0 0 Z " fill="#B0A899" transform="translate(236,366)"/>
<path d="M0 0 C0 0.66 0 1.32 0 2 C-6.27 2 -12.54 2 -19 2 C-19 1.67 -19 1.34 -19 1 C-16.39674384 0.63752129 -13.79279598 0.28472345 -11.1875 -0.0625 C-10.44951172 -0.16626953 -9.71152344 -0.27003906 -8.95117188 -0.37695312 C-5.56825221 -0.82086566 -3.27944975 -1.09314992 0 0 Z " fill="#6D614E" transform="translate(307,443)"/>
<path d="M0 0 C0.886875 0.103125 1.77375 0.20625 2.6875 0.3125 C-1.49711538 5.23557692 -1.49711538 5.23557692 -5.625 5.625 C-6.511875 5.521875 -7.39875 5.41875 -8.3125 5.3125 C-4.12788462 0.38942308 -4.12788462 0.38942308 0 0 Z " fill="#EADCC9" transform="translate(208.3125,405.6875)"/>
<path d="M0 0 C-2.45230311 2.96857745 -4.31844815 3.26368963 -8 4 C-10.22830794 5.81565832 -11.37810301 7.56715451 -13 10 C-12.4717235 6.19640917 -11.74493835 3.74493835 -9 1 C-3.81081081 -1.27027027 -3.81081081 -1.27027027 0 0 Z " fill="#EAE2D7" transform="translate(227,312)"/>
<path d="M0 0 C0.66 0.33 1.32 0.66 2 1 C1.67 1.33 1.34 1.66 1 2 C2.98 2.66 4.96 3.32 7 4 C7 4.33 7 4.66 7 5 C3.04 5 -0.92 5 -5 5 C-3 1 -3 1 0 0 Z " fill="#A69784" transform="translate(230,310)"/>
<path d="M0 0 C0.99 0.33 1.98 0.66 3 1 C3.33 1.99 3.66 2.98 4 4 C5.29355827 5.37195574 6.62298702 6.71182656 8 8 C1.25 6.25 1.25 6.25 -1 4 C-0.625 1.875 -0.625 1.875 0 0 Z " fill="#DBD7D2" transform="translate(267,305)"/>
<path d="M0 0 C0.66 1.32 1.32 2.64 2 4 C-1.625 9.75 -1.625 9.75 -5 12 C-4.67 9.69 -4.34 7.38 -4 5 C-3.01 5.33 -2.02 5.66 -1 6 C-0.67 4.02 -0.34 2.04 0 0 Z " fill="#948C80" transform="translate(277,290)"/>
<path d="M0 0 C-0.85851562 0.38285156 -0.85851562 0.38285156 -1.734375 0.7734375 C-4.24173733 2.13087159 -6.1330456 3.71974104 -8.25 5.625 C-8.95640625 6.25664062 -9.6628125 6.88828125 -10.390625 7.5390625 C-10.92171875 8.02117187 -11.4528125 8.50328125 -12 9 C-12 5.56586485 -11.65525082 5.18045278 -9.375 2.8125 C-6.32547823 -0.12811028 -4.27889359 -0.61127051 0 0 Z " fill="#D5C7B2" transform="translate(205,411)"/>
<path d="M0 0 C1.32 0 2.64 0 4 0 C6 3 6 3 5.8125 5.125 C5.544375 5.74375 5.27625 6.3625 5 7 C4.01 7.33 3.02 7.66 2 8 C1.34 7.34 0.68 6.68 0 6 C0.99 5.67 1.98 5.34 3 5 C3.33 4.34 3.66 3.68 4 3 C2.68 3 1.36 3 0 3 C0 2.01 0 1.02 0 0 Z " fill="#73695E" transform="translate(234,303)"/>
<path d="M0 0 C0 0.99 0 1.98 0 3 C-0.66 3 -1.32 3 -2 3 C-2 4.32 -2 5.64 -2 7 C-2.99 7 -3.98 7 -5 7 C-5.33 8.32 -5.66 9.64 -6 11 C-6.375 7.75 -6.375 7.75 -6 4 C-3 1.5625 -3 1.5625 0 0 Z " fill="#E0DBD1" transform="translate(190,439)"/>
<path d="M0 0 C2.475 0.99 2.475 0.99 5 2 C5 4.97 5 7.94 5 11 C2 9 2 9 1.26953125 6.8359375 C1.11871094 6.02382813 0.96789062 5.21171875 0.8125 4.375 C0.65394531 3.55773437 0.49539062 2.74046875 0.33203125 1.8984375 C0.22246094 1.27195312 0.11289063 0.64546875 0 0 Z " fill="#C8C0B1" transform="translate(233,339)"/>
<path d="M0 0 C0.99 0 1.98 0 3 0 C2.67 1.32 2.34 2.64 2 4 C1.01 4 0.02 4 -1 4 C-1 4.66 -1 5.32 -1 6 C-0.34 6.66 0.32 7.32 1 8 C-0.65 7.67 -2.3 7.34 -4 7 C-1.125 1.125 -1.125 1.125 0 0 Z " fill="#E6D4B7" transform="translate(235,410)"/>
<path d="M0 0 C0.66 0.33 1.32 0.66 2 1 C1.01 1.33 0.02 1.66 -1 2 C-1.33 2.99 -1.66 3.98 -2 5 C-3.84765625 6.60546875 -3.84765625 6.60546875 -6.0625 8.1875 C-6.79597656 8.71730469 -7.52945313 9.24710937 -8.28515625 9.79296875 C-8.85105469 10.19128906 -9.41695312 10.58960938 -10 11 C-8.55218207 7.55571735 -6.72305391 5.63869038 -3.875 3.25 C-3.15054688 2.63640625 -2.42609375 2.0228125 -1.6796875 1.390625 C-0.84824219 0.70226562 -0.84824219 0.70226562 0 0 Z " fill="#FFFCF6" transform="translate(232,256)"/>
<path d="M0 0 C0.33 0.66 0.66 1.32 1 2 C-0.8130666 6.63339243 -2.94775971 9.1524798 -7 12 C-6.690625 11.401875 -6.38125 10.80375 -6.0625 10.1875 C-4.89790296 7.91043228 -4.89790296 7.91043228 -4 5 C-3.34 5 -2.68 5 -2 5 C-1.34 3.35 -0.68 1.7 0 0 Z " fill="#A39884" transform="translate(235,378)"/>
<path d="M0 0 C1.32 0.33 2.64 0.66 4 1 C4.33 2.65 4.66 4.3 5 6 C6.32 6.33 7.64 6.66 9 7 C8.34 8.32 7.68 9.64 7 11 C4.23455278 7.54319097 2.15078722 3.85658398 0 0 Z " fill="#ACA395" transform="translate(229,332)"/>
<path d="M0 0 C1.32 0 2.64 0 4 0 C4 0.66 4 1.32 4 2 C5.32 1.34 6.64 0.68 8 0 C7.67 0.99 7.34 1.98 7 3 C3.7 3 0.4 3 -3 3 C-2.01 2.01 -1.02 1.02 0 0 Z " fill="#AE9E88" transform="translate(266,451)"/>
<path d="M0 0 C0.75 1.5625 0.75 1.5625 1 4 C-0.13084437 6.50286409 -1.52139516 8.67007722 -3 11 C-3.75 9.4375 -3.75 9.4375 -4 7 C-2.86915563 4.49713591 -1.47860484 2.32992278 0 0 Z " fill="#DED9D3" transform="translate(268,335)"/>
<path d="M0 0 C1.32 0.66 2.64 1.32 4 2 C4 2.66 4 3.32 4 4 C-0.62 4 -5.24 4 -10 4 C-10 3.67 -10 3.34 -10 3 C-6.7 2.67 -3.4 2.34 0 2 C0 1.34 0 0.68 0 0 Z " fill="#AEA088" transform="translate(276,313)"/>
<path d="M0 0 C4.75 0.875 4.75 0.875 7 2 C7 2.66 7 3.32 7 4 C5.02 4 3.04 4 1 4 C0.67 2.68 0.34 1.36 0 0 Z " fill="#ACA08E" transform="translate(186,447)"/>
<path d="M0 0 C1.4606285 2.64738916 2 3.89448334 2 7 C0.02 6.34 -1.96 5.68 -4 5 C-2.68 3.35 -1.36 1.7 0 0 Z " fill="#DCCCB4" transform="translate(220,314)"/>
<path d="M0 0 C3.63 0.66 7.26 1.32 11 2 C11 2.33 11 2.66 11 3 C6.05 3 1.1 3 -4 3 C-2.68 2.67 -1.36 2.34 0 2 C0 1.34 0 0.68 0 0 Z " fill="#968A7D" transform="translate(205,436)"/>
<path d="M0 0 C2.71164209 2.53086595 4.3564968 4.71299361 6 8 C6.99 8.66 7.98 9.32 9 10 C7.35 10 5.7 10 4 10 C3.32845067 8.71086513 2.66291141 7.41859796 2 6.125 C1.62875 5.40570313 1.2575 4.68640625 0.875 3.9453125 C0 2 0 2 0 0 Z " fill="#F2EFEA" transform="translate(282,397)"/>
<path d="M0 0 C3.65316671 1.24976756 4.78065836 1.67098753 7 5 C4.03 4.505 4.03 4.505 1 4 C0.67 2.68 0.34 1.36 0 0 Z " fill="#CEBEAA" transform="translate(294,410)"/>
<path d="M0 0 C0.99 0.33 1.98 0.66 3 1 C2.34 2.65 1.68 4.3 1 6 C0.01 6 -0.98 6 -2 6 C-1.125 1.125 -1.125 1.125 0 0 Z " fill="#A99B88" transform="translate(259,355)"/>
<path d="M0 0 C-2.55068845 2.35448165 -3.71017358 2.98327924 -7.25 3.1875 C-8.1575 3.125625 -9.065 3.06375 -10 3 C-7.29536552 -0.8183075 -4.37912428 -0.24787496 0 0 Z " fill="#8E816E" transform="translate(236,320)"/>
<path d="M0 0 C2.31 0 4.62 0 7 0 C7 0.99 7 1.98 7 3 C6.01 3 5.02 3 4 3 C4 2.34 4 1.68 4 1 C3.34 1 2.68 1 2 1 C2 1.66 2 2.32 2 3 C1.34 3 0.68 3 0 3 C0 2.01 0 1.02 0 0 Z " fill="#B5A38C" transform="translate(281,450)"/>
<path d="M0 0 C2.31 0.33 4.62 0.66 7 1 C7 1.66 7 2.32 7 3 C4.69 2.67 2.38 2.34 0 2 C0 1.34 0 0.68 0 0 Z " fill="#D3C9B9" transform="translate(195,450)"/>
<path d="M0 0 C0.33 0 0.66 0 1 0 C0.67 2.64 0.34 5.28 0 8 C-0.33 6.68 -0.66 5.36 -1 4 C-2.32 3.67 -3.64 3.34 -5 3 C-3.35 2.67 -1.7 2.34 0 2 C0 1.34 0 0.68 0 0 Z " fill="#9C9384" transform="translate(306,434)"/>
<path d="M0 0 C-0.33 1.32 -0.66 2.64 -1 4 C-3.97 3.67 -6.94 3.34 -10 3 C-10 2.67 -10 2.34 -10 2 C-8.7090864 1.66376204 -7.41723903 1.33110751 -6.125 1 C-5.40570313 0.814375 -4.68640625 0.62875 -3.9453125 0.4375 C-2 0 -2 0 0 0 Z " fill="#9B9281" transform="translate(285,319)"/>
</svg>
